<svg viewBox="0 0 330 200" xmlns="http://www.w3.org/2000/svg"><g><g><g><g><g><line x1="51.53200149536133" y1="176.88999938964844" x2="46.53200149536133" y2="176.88999938964844" style="visibility: inherit;" fill="rgb(0, 0, 0)" stroke="rgb(204, 204, 204)" stroke-width="1px"></line><line x1="51.53200149536133" y1="162.14916610717776" x2="46.53200149536133" y2="162.14916610717776" style="visibility: inherit;" fill="rgb(0, 0, 0)" stroke="rgb(204, 204, 204)" stroke-width="1px"></line><line x1="51.53200149536133" y1="147.40833282470703" x2="46.53200149536133" y2="147.40833282470703" style="visibility: inherit;" fill="rgb(0, 0, 0)" stroke="rgb(204, 204, 204)" stroke-width="1px"></line><line x1="51.53200149536133" y1="132.66749954223633" x2="46.53200149536133" y2="132.66749954223633" style="visibility: inherit;" fill="rgb(0, 0, 0)" stroke="rgb(204, 204, 204)" stroke-width="1px"></line><line x1="51.53200149536133" y1="117.92666625976564" x2="46.53200149536133" y2="117.92666625976564" style="visibility: inherit;" fill="rgb(0, 0, 0)" stroke="rgb(204, 204, 204)" stroke-width="1px"></line><line x1="51.53200149536133" y1="103.18583297729495" x2="46.53200149536133" y2="103.18583297729495" style="visibility: inherit;" fill="rgb(0, 0, 0)" stroke="rgb(204, 204, 204)" stroke-width="1px"></line><line x1="51.53200149536133" y1="88.44499969482422" x2="46.53200149536133" y2="88.44499969482422" style="visibility: inherit;" fill="rgb(0, 0, 0)" stroke="rgb(204, 204, 204)" stroke-width="1px"></line><line x1="51.53200149536133" y1="73.70416641235352" x2="46.53200149536133" y2="73.70416641235352" style="visibility: inherit;" fill="rgb(0, 0, 0)" stroke="rgb(204, 204, 204)" stroke-width="1px"></line><line x1="51.53200149536133" y1="58.96333312988278" x2="46.53200149536133" y2="58.96333312988278" style="visibility: inherit;" fill="rgb(0, 0, 0)" stroke="rgb(204, 204, 204)" stroke-width="1px"></line><line x1="51.53200149536133" y1="44.22249984741215" x2="46.53200149536133" y2="44.22249984741215" style="visibility: inherit;" fill="rgb(0, 0, 0)" stroke="rgb(204, 204, 204)" stroke-width="1px"></line><line x1="51.53200149536133" y1="29.48166656494144" x2="46.53200149536133" y2="29.48166656494144" style="visibility: inherit;" fill="rgb(0, 0, 0)" stroke="rgb(204, 204, 204)" stroke-width="1px"></line><line x1="51.53200149536133" y1="14.74083328247071" x2="46.53200149536133" y2="14.74083328247071" style="visibility: inherit;" fill="rgb(0, 0, 0)" stroke="rgb(204, 204, 204)" stroke-width="1px"></line><line x1="51.53200149536133" y1="0" x2="46.53200149536133" y2="0" style="visibility: inherit;" fill="rgb(0, 0, 0)" stroke="rgb(204, 204, 204)" stroke-width="1px"></line></g><g transform="translate(41.53200149536133, 0)"><text style="text-anchor: end; visibility: hidden; font-family: Roboto, sans-serif; font-size: 12px; font-weight: 200;" x="0" y="176.88999938964844" dx="0em" dy="0.3em" fill="rgb(33, 33, 33)" stroke="none" stroke-width="1px">0.4</text><text style="text-anchor: end; visibility: inherit; font-family: Roboto, sans-serif; font-size: 12px; font-weight: 200;" x="0" y="162.14916610717776" dx="0em" dy="0.3em" fill="rgb(33, 33, 33)" stroke="none" stroke-width="1px">0.42</text><text style="text-anchor: end; visibility: hidden; font-family: Roboto, sans-serif; font-size: 12px; font-weight: 200;" x="0" y="147.40833282470703" dx="0em" dy="0.3em" fill="rgb(33, 33, 33)" stroke="none" stroke-width="1px">0.44</text><text style="text-anchor: end; visibility: inherit; font-family: Roboto, sans-serif; font-size: 12px; font-weight: 200;" x="0" y="132.66749954223633" dx="0em" dy="0.3em" fill="rgb(33, 33, 33)" stroke="none" stroke-width="1px">0.46</text><text style="text-anchor: end; visibility: hidden; font-family: Roboto, sans-serif; font-size: 12px; font-weight: 200;" x="0" y="117.92666625976564" dx="0em" dy="0.3em" fill="rgb(33, 33, 33)" stroke="none" stroke-width="1px">0.48</text><text style="text-anchor: end; visibility: inherit; font-family: Roboto, sans-serif; font-size: 12px; font-weight: 200;" x="0" y="103.18583297729495" dx="0em" dy="0.3em" fill="rgb(33, 33, 33)" stroke="none" stroke-width="1px">0.5</text><text style="text-anchor: end; visibility: hidden; font-family: Roboto, sans-serif; font-size: 12px; font-weight: 200;" x="0" y="88.44499969482422" dx="0em" dy="0.3em" fill="rgb(33, 33, 33)" stroke="none" stroke-width="1px">0.52</text><text style="text-anchor: end; visibility: inherit; font-family: Roboto, sans-serif; font-size: 12px; font-weight: 200;" x="0" y="73.70416641235352" dx="0em" dy="0.3em" fill="rgb(33, 33, 33)" stroke="none" stroke-width="1px">0.54</text><text style="text-anchor: end; visibility: hidden; font-family: Roboto, sans-serif; font-size: 12px; font-weight: 200;" x="0" y="58.96333312988278" dx="0em" dy="0.3em" fill="rgb(33, 33, 33)" stroke="none" stroke-width="1px">0.56</text><text style="text-anchor: end; visibility: inherit; font-family: Roboto, sans-serif; font-size: 12px; font-weight: 200;" x="0" y="44.22249984741215" dx="0em" dy="0.3em" fill="rgb(33, 33, 33)" stroke="none" stroke-width="1px">0.58</text><text style="text-anchor: end; visibility: hidden; font-family: Roboto, sans-serif; font-size: 12px; font-weight: 200;" x="0" y="29.48166656494144" dx="0em" dy="0.3em" fill="rgb(33, 33, 33)" stroke="none" stroke-width="1px">0.6</text><text style="text-anchor: end; visibility: inherit; font-family: Roboto, sans-serif; font-size: 12px; font-weight: 200;" x="0" y="14.74083328247071" dx="0em" dy="0.3em" fill="rgb(33, 33, 33)" stroke="none" stroke-width="1px">0.62</text><text style="text-anchor: end; visibility: hidden; font-family: Roboto, sans-serif; font-size: 12px; font-weight: 200;" x="0" y="0" dx="0em" dy="0.3em" fill="rgb(33, 33, 33)" stroke="none" stroke-width="1px">0.64</text></g><line x1="51.53200149536133" y1="0" x2="51.53200149536133" y2="176.88999938964844" fill="rgb(0, 0, 0)" stroke="rgb(204, 204, 204)" stroke-width="1px"></line></g></g><g transform="translate(51, 0)" clip-path="url(#clip_0)"><clipPath id="clip_0"><rect width="278" height="176"></rect></clipPath><g><g><g><line x1="0" y1="0" x2="0" y2="176.88999938964844" fill="rgb(0, 0, 0)" stroke="rgb(66, 66, 66)" stroke-width="1px" opacity="0.25"></line><line x1="25.31527259133079" y1="0" x2="25.31527259133079" y2="176.88999938964844" fill="rgb(0, 0, 0)" stroke="rgb(66, 66, 66)" stroke-width="1px" opacity="0.25"></line><line x1="50.63054518266158" y1="0" x2="50.63054518266158" y2="176.88999938964844" fill="rgb(0, 0, 0)" stroke="rgb(66, 66, 66)" stroke-width="1px" opacity="0.25"></line><line x1="75.94581777399236" y1="0" x2="75.94581777399236" y2="176.88999938964844" fill="rgb(0, 0, 0)" stroke="rgb(66, 66, 66)" stroke-width="1px" opacity="0.25"></line><line x1="101.26109036532316" y1="0" x2="101.26109036532316" y2="176.88999938964844" fill="rgb(0, 0, 0)" stroke="rgb(66, 66, 66)" stroke-width="1px" opacity="0.25"></line><line x1="126.57636295665394" y1="0" x2="126.57636295665394" y2="176.88999938964844" fill="rgb(0, 0, 0)" stroke="rgb(66, 66, 66)" stroke-width="1px" opacity="0.25"></line><line x1="151.89163554798472" y1="0" x2="151.89163554798472" y2="176.88999938964844" fill="rgb(0, 0, 0)" stroke="rgb(66, 66, 66)" stroke-width="1px" opacity="0.25"></line><line x1="177.20690813931552" y1="0" x2="177.20690813931552" y2="176.88999938964844" fill="rgb(0, 0, 0)" stroke="rgb(66, 66, 66)" stroke-width="1px" opacity="0.25"></line><line x1="202.5221807306463" y1="0" x2="202.5221807306463" y2="176.88999938964844" fill="rgb(0, 0, 0)" stroke="rgb(66, 66, 66)" stroke-width="1px" opacity="0.25"></line><line x1="227.8374533219771" y1="0" x2="227.8374533219771" y2="176.88999938964844" fill="rgb(0, 0, 0)" stroke="rgb(66, 66, 66)" stroke-width="1px" opacity="0.25"></line><line x1="253.15272591330788" y1="0" x2="253.15272591330788" y2="176.88999938964844" fill="rgb(0, 0, 0)" stroke="rgb(66, 66, 66)" stroke-width="1px" opacity="0.25"></line><line x1="278.4679985046387" y1="0" x2="278.4679985046387" y2="176.88999938964844" fill="rgb(0, 0, 0)" stroke="rgb(66, 66, 66)" stroke-width="1px" opacity="0.25"></line></g><g><line x1="0" y1="176.88999938964844" x2="278.4679985046387" y2="176.88999938964844" fill="rgb(0, 0, 0)" stroke="rgb(66, 66, 66)" stroke-width="1px" opacity="0.25"></line><line x1="0" y1="162.14916610717776" x2="278.4679985046387" y2="162.14916610717776" fill="rgb(0, 0, 0)" stroke="rgb(66, 66, 66)" stroke-width="1px" opacity="0.25"></line><line x1="0" y1="147.40833282470703" x2="278.4679985046387" y2="147.40833282470703" fill="rgb(0, 0, 0)" stroke="rgb(66, 66, 66)" stroke-width="1px" opacity="0.25"></line><line x1="0" y1="132.66749954223633" x2="278.4679985046387" y2="132.66749954223633" fill="rgb(0, 0, 0)" stroke="rgb(66, 66, 66)" stroke-width="1px" opacity="0.25"></line><line x1="0" y1="117.92666625976564" x2="278.4679985046387" y2="117.92666625976564" fill="rgb(0, 0, 0)" stroke="rgb(66, 66, 66)" stroke-width="1px" opacity="0.25"></line><line x1="0" y1="103.18583297729495" x2="278.4679985046387" y2="103.18583297729495" fill="rgb(0, 0, 0)" stroke="rgb(66, 66, 66)" stroke-width="1px" opacity="0.25"></line><line x1="0" y1="88.44499969482422" x2="278.4679985046387" y2="88.44499969482422" fill="rgb(0, 0, 0)" stroke="rgb(66, 66, 66)" stroke-width="1px" opacity="0.25"></line><line x1="0" y1="73.70416641235352" x2="278.4679985046387" y2="73.70416641235352" fill="rgb(0, 0, 0)" stroke="rgb(66, 66, 66)" stroke-width="1px" opacity="0.25"></line><line x1="0" y1="58.96333312988278" x2="278.4679985046387" y2="58.96333312988278" fill="rgb(0, 0, 0)" stroke="rgb(66, 66, 66)" stroke-width="1px" opacity="0.25"></line><line x1="0" y1="44.22249984741215" x2="278.4679985046387" y2="44.22249984741215" fill="rgb(0, 0, 0)" stroke="rgb(66, 66, 66)" stroke-width="1px" opacity="0.25"></line><line x1="0" y1="29.48166656494144" x2="278.4679985046387" y2="29.48166656494144" fill="rgb(0, 0, 0)" stroke="rgb(66, 66, 66)" stroke-width="1px" opacity="0.25"></line><line x1="0" y1="14.74083328247071" x2="278.4679985046387" y2="14.74083328247071" fill="rgb(0, 0, 0)" stroke="rgb(66, 66, 66)" stroke-width="1px" opacity="0.25"></line><line x1="0" y1="0" x2="278.4679985046387" y2="0" fill="rgb(0, 0, 0)" stroke="rgb(66, 66, 66)" stroke-width="1px" opacity="0.25"></line></g></g></g><g><g><line x1="0" y1="471.70666503906256" x2="278.4679985046387" y2="471.70666503906256" fill="rgb(0, 0, 0)" stroke="rgb(153, 153, 153)" stroke-width="1.5px"></line></g></g><g><g><line x1="25.31527259133079" y1="0" x2="25.31527259133079" y2="176.88999938964844" fill="rgb(0, 0, 0)" stroke="rgb(153, 153, 153)" stroke-width="1.5px"></line></g></g><g><g><g><g><g><path style="fill: none;" stroke="rgb(255, 112, 67)" stroke-width="2px" d="M25.441848954287444,48.86326245335841L25.821578043157405,-18.941847049192493L25.94815440611406,57.407959061615145L26.70761258385398,104.45038745737774L26.834188946810634,131.84085040239898L27.2139180356806,116.00976150124828L27.34049439863725,122.61013211018025L27.720223487507212,125.8213145570875L27.846799850463867,132.50590786572937L27.97337621342052,130.38706792680168L28.22652893933383,103.16581820088344L28.353105302290484,102.38646371638994L28.732834391160445,103.79919980479038L28.8594107541171,109.30819847324022L29.112563480030406,97.62828088962448L29.618868931857023,52.18574283081186L29.998598020726984,18.669661709556944L30.12517438368364,27.73225737219983L30.251750746640294,28.933182973924772L30.378327109596945,26.53443374162373L30.5049034725536,28.920563850181L31.390938013250178,-7.64957758082246L31.644090739163484,-2.9048011257940356L31.897243465076794,2.4172738858097573L32.023819828033446,9.795534139774698L32.276972553946756,6.775941181934539L32.40354891690341,3.534791306539386L32.65670164281672,-12.423907933314588L33.16300709464333,-13.993434080967631L33.28958345759999,6.954387840204918L33.416159820556636,20.832595985676637L33.669312546469946,25.998237929130944L33.7958889094266,-14.494090166682291L41.26389432386919,-15.873752364864458L41.39047068682584,1.9664784688144572L41.643623412739146,-1.466483416502536L41.896776138652456,15.692649666856815L42.02335250160911,10.030436212677765L42.149928864565766,-30.17616859576001L42.403081590479076,-20.329190823358708L42.65623431639237,1.7708770872052173L42.782810679349026,12.771945188584871L43.542268857088956,13.60075911563877L43.66884522004561,11.837739321272494L43.921997945958914,22.084982686171656L44.04857430891557,7.08433168186422L44.428303397785534,4.361415049728903L45.31433793848211,-6.001902689462708L45.56749066439542,-12.694595298181756L45.69406702735208,0.6330695421487348L45.94721975326539,23.690130402301488L46.20037247917869,40.289250186666614L46.45352520509199,32.7531061465652L46.95983065691861,43.32302004679895L47.08640701987527,40.091325917744236L47.21298338283192,44.78332338403153L47.59271247170188,44.527772659114376L47.719288834658535,57.182117034965515L47.84586519761519,58.91972635573513L47.972441560571845,43.12970187034509L48.225594286485155,50.48920859642228L48.35217064944181,28.98104363521253L48.73189973831177,23.86428637694292L48.85847610126842,50.127805069414805L48.98505246422508,14.386112655257747L49.364781553095035,7.779478632761308L49.49135791605169,31.53201995100861L49.617934279008345,32.33686562736193L49.744510641965,25.241780156128616L50.12423973083496,31.048765499056152L50.50396881970492,26.472248828724048L50.63054518266158,38.32807216762575L50.75712154561823,56.30506107408154L51.01027427153154,54.09592349230893L51.13685063448819,56.713802504050314L51.263426997444846,54.72572368480282L51.3900033604015,52.1638249604016L51.64315608631481,55.12558248786743L51.89630881222812,46.359118709079965L52.14946153814143,48.82816302860098L52.402614264054726,49.255120055421266L52.655766989968036,58.75851104641539L52.78234335292469,43.76656944722361L53.035496078838,50.812514177067065L53.162072441794656,45.98401727099927L53.28864880475131,56.35377943652192L53.41522516770796,48.37077701153077L53.541801530664614,41.183022462817505L53.794954256577924,56.46619127010764L53.92153061953458,57.905816889605774L54.4278360713612,62.86827664251531L54.80756516023116,77.52917757048681L55.18729424910112,66.75620253736861L55.440446975014424,62.70444613776281L55.56702333797108,59.98713720755826L55.693599700927734,67.88365162123503L55.94675242684104,63.696200353748296L56.07332878979769,68.92463658592332L56.326481515711,75.64686321546552L56.45305787866766,78.49931347601907L56.57963424162431,63.63643817138829L56.70621060458097,67.37811152850021L57.339092419364235,77.83086961878294L57.46566878232089,61.14560426217122L57.592245145277545,52.81122509639172L57.97197423414751,65.44695120066733L58.098550597104165,76.93967871623822L58.22512696006081,79.73663084437013L58.35170332301747,81.97174311796118L58.60485604893077,88.0091687820546L59.617466952584,83.980196065715L59.74404331554066,84.28111115877293L60.12377240441062,74.36655551037045L60.25034876736728,73.52430365980693L60.37692513032393,71.4473962877491L60.630077856237236,68.22134718096112L60.883230582150546,86.22503657571431L61.136383308063856,89.18757730609782L61.26295967102051,74.33605326945822L61.51611239693382,74.34064062285182L61.76926512284713,69.1160658084442L61.89584148580377,66.31013646629036L62.14899421171708,73.72671429108777L62.781876026500356,88.2559065607299L62.90845238945701,69.13783810573116L63.03502875241366,90.04501333823809L63.161605115370314,93.67546851197213L63.28818147832697,78.99006588734836L63.921063293110244,74.09315619815457L64.17421601902355,82.21756591786456L64.3007923819802,85.30442658140996L64.42736874493686,80.22924008063436L64.55394510789351,65.00902615915867L64.93367419676348,68.07459798850567L65.06025055972013,70.42146837415063L65.43997964859008,82.14689884682981L65.69313237450339,70.46805047531704L65.81970873746005,76.32788140907044L66.19943782633001,50.72661155287602L66.45259055224332,72.39653915222641L67.08547236702658,94.07878155639152L67.21204872998324,84.25900237713513L67.33862509293989,81.07889664378457L67.46520145589655,87.28039247037394L68.09808327067982,92.21972799339949L68.22465963363648,95.21545173234223L68.47781235954979,92.29744400307302L68.85754144841975,101.05150707321401L68.98411781137641,98.67781233166875L69.11069417433305,92.97839591931353L69.2372705372897,94.07393248832499L69.49042326320301,98.84355745398065L69.74357598911631,92.35403408077521L69.99672871502962,95.98538473669599L70.12330507798629,100.73109847363213L70.24988144094293,104.62869981846315L70.3764578038996,93.234308847883L70.75618689276955,91.24749270696054L71.00933961868286,91.15231003625053L71.26249234459617,84.65273879952333L71.38906870755282,98.86778577049336L71.51564507050948,86.25267571021563L71.64222143346613,94.36033719303391L71.76879779642279,73.20237824805932L71.89537415937944,80.39431863288802L72.02195052233608,84.65263601187755L72.78140870007601,95.84712664448209L73.16113778894598,95.3373560755893L73.28771415190263,99.6075071608416L73.79401960372925,105.06779441627813L74.1737486925992,84.08069360120946L74.30032505555587,98.6523981716375L74.80663050738248,96.88185484709003L74.93320687033913,70.16910463526936L75.05978323329579,71.80376260968472L75.18635959625244,77.65140353266794L75.3129359592091,103.8555533580048L75.43951232216575,97.65248484525958L75.56608868512241,95.31055494001036L75.69266504807905,89.2576792181217L75.81924141103572,96.80318707881742L75.94581777399236,111.37237835696745L76.19897049990567,110.65135242319002L76.32554686286232,122.21002234780391L76.57869958877563,125.71279029745286L77.08500504060224,130.23958872970925L77.21158140355891,114.37282728038814L77.59131049242886,112.0370087796113L77.71788685538553,114.45903518121426L77.84446321834217,117.17704515290563L77.97103958129884,118.28766290296889L78.35076867016879,116.38803519041858L78.73049775903876,113.80824960669608L78.85707412199541,103.17317614414847L79.23680321086536,120.58159067809927L79.36337957382202,128.09772616446747L79.86968502564864,106.67410205774009L79.99626138860529,110.02934613857143L80.37599047747526,97.40860167595656L80.5025668404319,97.07981458195648L80.62914320338857,108.13037290765104L80.7557195663452,109.349985879117L80.88229592930188,125.9072494802863L81.00887229225852,94.03319941860565L81.13544865521519,105.96317659089162L81.26202501817183,105.81636878278498L81.51517774408514,126.4618334325118L81.64175410704179,119.0387399475401L81.76833046999845,115.78893005311507L81.8949068329551,114.06606250279569L82.4012122847817,123.54969490079515L82.52778864773838,114.25157361930005L82.65436501069502,117.42304802372324L82.78094137365169,97.6547265792762L82.90751773660833,87.41902650388995L83.16067046252164,81.98479183985584L83.41382318843495,99.74811470071484L83.66697591434826,110.87229653398005L83.79355227730491,105.4889557363768L84.17328136617486,109.94501465703402L84.29985772913153,109.5352750047093L84.42643409208817,102.40489085355152L84.67958681800148,104.64078241820279L84.93273954391479,98.53720729111558L85.43904499574141,108.57650660270667L85.56562135869805,114.51234698361019L85.94535044756803,105.71589035313522L86.07192681052467,103.0431309947326L86.19850317348134,114.54870209224293L86.32507953643798,124.73984876680312L86.45165589939464,121.1760658958356L86.57823226235129,134.1561769001177L86.70480862530795,138.37101030099555L86.95796135122126,128.06084236196244L87.08453771417791,129.85285020804935L87.21111407713457,129.79851587589425L87.33769044009122,114.95101063395697L87.59084316600453,107.85174860952628L87.9705722548745,118.92652865543064L88.47687770670112,115.06210071972798L88.85660679557107,117.22373150366795L88.98318315852771,108.03904667682222L89.10975952148438,107.64940788123134L89.48948861035433,108.28132220381744L89.74264133626764,109.13630618512282L89.86921769922431,119.69819454024794L89.99579406218095,127.99003335414503L90.1223704251376,127.75498647871021L90.24894678809426,117.01958540921146L90.37552315105091,122.87196412783993L90.50209951400757,121.3891362253949L90.88182860287753,112.9377362612005L91.00840496583419,103.31609052504855L91.13498132879084,102.58729031271234L91.26155769174748,116.08065194237575L91.64128678061746,118.87840174283309L92.52732132131403,111.31117035384543L92.90705041018398,118.46529209065025L93.03362677314065,122.39192444962127L93.28677949905396,117.03984855383341L93.4133558620106,104.87061986092554L93.53993222496727,104.02509263274969L93.66650858792391,123.89773293983625L93.79308495088057,130.72258503280997L94.04623767679388,128.47085718395383L94.17281403975053,139.04138729338635L94.29939040270719,134.3747633482834L94.5525431286205,144.5034061284234L94.67911949157715,136.330825695062L95.0588485804471,132.26039572634994L95.31200130636041,144.29104750930384L95.56515403227372,142.91362346624325L95.69173039523038,136.01670723035932L95.81830675818703,134.40280372772855L96.57776493592695,126.56930367060801L96.70434129888362,116.10391365122014L96.83091766184026,113.55790993142412L97.33722311366688,119.52044714966361L97.71695220253685,116.813738905967L97.97010492845016,129.41342012877425L98.34983401732012,120.7414318119017L98.85613946914673,125.60130017687977L99.36244492097335,128.68586392778576L99.48902128393,123.48920042027252L99.61559764688666,127.12435352198376L99.86875037279997,131.36516410098875L99.9953267357566,132.36196634998478L100.12190309871328,137.45861937130036L100.24847946166992,140.66307749340987L100.37505582462659,122.56484465671895L100.6282085505399,113.38082232397316L100.88136127645319,106.13335539791765L101.00793763940985,111.35957205803703L101.13451400236649,114.96543518422902L101.26109036532316,116.61002125664062L101.51424309123647,112.92469092964203L101.6408194541931,120.4495485036447L101.76739581714978,127.60351005464709L102.02054854306309,131.84411856926081L102.40027763193304,133.41058603189651L102.65343035784635,125.64103676882138L103.03315944671631,126.75103749631566L103.15973580967297,121.46005017104719L103.41288853558626,106.62252216776675L103.66604126149957,116.90565973267078L103.91919398741288,128.6032704048151L104.17234671332619,123.12484278299684L104.29892307628286,129.33675458414504L104.67865216515281,124.60183041285717L104.80522852810945,119.55803843310696L104.93180489106612,111.31884542176961L105.05838125402276,116.9578675190938L105.56468670584938,127.26542942293902L105.81783943176269,137.4003395306605L106.070992157676,148.95961759226265L106.45072124654597,134.27630907627483L106.57729760950262,121.56447730159033L106.70387397245928,111.56024848757747L106.83045033541592,119.66952483974912L106.95702669837259,116.93944625538509L107.08360306132923,127.26284658206147L107.58990851315585,134.7159171476142L107.84306123906916,137.43771992543427L107.96963760202581,148.82685480204094L108.09621396498247,148.89897819107756L108.22279032793911,146.98576282075064L108.34936669089578,146.97288159912617L108.72909577976573,141.77085304563064L108.8556721427224,146.92410376799333L108.98224850567904,135.87133616200708L109.86828304637562,140.61572350815894L110.24801213524559,140.837331718468L110.88089395002885,145.0582530496385L111.0074703129855,143.91312204765723L111.13404667594216,147.4489298521873L111.51377576481212,141.08826676722387L111.76692849072543,138.12007314954835L111.89350485368207,144.972577119004L112.02008121663874,115.9808221291713L112.3998103055087,130.7177536715167L113.03269212029197,110.00364398404156L113.28584484620528,114.1404298934583L113.41242120916193,110.84165984226546L113.53899757211859,119.57513872934258L113.66557393507524,128.38372348999155L113.91872666098855,122.43777272967L114.2984557498585,124.80983724814512L114.42503211281516,43.80466623708311L114.67818483872847,78.5642298374541L115.18449029055509,103.48926246858893L115.31106665351173,114.55896226447133L115.56421937942504,121.7026511035107L115.94394846829502,126.65020328531051L116.19710119420833,126.79198754183838L116.45025392012163,136.59229930766182L116.57683028307828,141.47610251137667L116.70340664603494,148.3608693505953L116.95655937194823,152.7502552300976L117.20971209786154,145.46094806022813L117.33628846081821,132.21115396464955L117.46286482377485,140.2280381918939L117.58944118673152,153.5938483821067L117.71601754968816,139.69100941773095L117.96917027560147,151.71233163462358L118.09574663855813,140.2689107218831L118.22232300151478,139.7022361944261L118.85520481629806,141.70078971558138L118.9817811792547,144.50659661659014L119.10835754221137,152.29536236231414L119.36151026812468,129.35011037677168L119.48808663108132,126.84082363228244L119.61466299403799,131.4820041553142L119.74123935699463,135.91488458071936L120.6272738976912,139.5828668767381L121.00700298656118,137.31832285766592L121.13357934951782,140.88814821685153L121.38673207543113,138.23482257018824L122.0196138902144,136.70516542241984L122.14619025317106,117.3468234792795L122.27276661612771,122.85907189548657L122.65249570499766,119.18639193219701L122.77907206795433,133.31552590146762L123.03222479386764,116.5483297662621L123.15880115682428,131.69718348157295L123.28537751978095,131.3731227045705L123.53853024569426,139.16191721490245L123.6651066086509,132.44855861467343L123.91825933456421,126.07164383441878L124.04483569752085,134.24161287286955L124.17141206047752,129.92236716368768L124.29798842343416,142.09462371765503L124.42456478639083,148.13429936941293L124.55114114934747,144.01360420328277L125.18402296413075,133.52429611321372L125.3105993270874,137.6739436243504L125.56375205300071,130.25359495791753L125.81690477891402,135.01082178130545L126.07005750482732,144.22578464431203L126.19663386778399,148.12537519170132L126.57636295665394,139.21139459731666L126.7029393196106,140.1542570061568L127.20924477143721,138.98624211670986L127.33582113439387,119.5915084782818L127.46239749735051,111.23036489830697L127.58897386030718,110.60628859318176L127.96870294917713,132.47404784802342L128.3484320380471,138.49346846487498L128.98131385283037,142.25568152343885L129.10789021578702,115.76287655134138L129.36104294170033,132.85264528419813L129.487619304657,120.0014242630968L129.61419566761364,121.66817294255338L129.86734839352695,118.63092709734426L129.99392475648358,129.5605321854408L130.12050111944026,120.69684259339832L130.2470774823969,129.5733229044161L130.7533829342235,141.91002702352816L130.87995929718016,148.66905624672478L131.13311202309347,150.5571677826629L131.25968838605013,161.1204178348805L131.38626474900678,152.29252397180514L131.6394174749201,142.0820143075827L131.76599383787675,147.75006841559764L132.1457229267467,127.70276060834898L132.39887565266002,126.43321814503224L133.0317574674433,134.89641001224683L133.15833383039995,141.6211880971857L133.53806291926992,124.9807758333189L133.91779200813986,128.38694941451433L134.29752109700985,147.37778082214507L134.42409745996648,156.83793154068823L134.55067382292313,154.8165979884347L134.9304029117931,144.66612844532764L135.05697927474975,155.00505259052454L135.56328472657637,148.87710361409515L135.68986108953303,158.58300572055325L136.95562471909957,149.74688608619766L137.20877744501288,158.7663069516645L137.3353538079695,155.45406761000362L137.4619301709262,156.6733345498896L137.58850653388282,157.34735375042965L137.84165925979613,152.14401223381518L138.09481198570944,146.5894277319257L138.34796471162275,143.96272020321874L138.72769380049272,145.85283363607806L138.98084652640603,151.7930174723988L139.10742288936268,153.62256074841528L139.48715197823262,148.87954066025685L139.6137283411893,143.41227161583356L139.8668810671026,152.1398016323452L140.12003379301592,145.28037268906814L140.24661015597258,140.14800893742128L140.37318651892923,147.86718177269438L140.62633924484254,140.4546738748669L140.7529156077992,148.40812976230288L141.00606833371248,160.0038551408148L141.13264469666916,165.78476261652239L141.38579742258244,156.06441572073246L141.63895014849578,154.19591803262887L141.7655265114524,149.53824233340129L142.01867923736572,156.37220205249943L142.27183196327903,154.69732432387164L142.77813741510565,152.0053465457903L142.9047137780623,156.0301671343271L143.03129014101896,156.40550514738868L143.15786650397558,134.00691732560057L143.28444286693227,113.1620695554685L143.41101922988892,140.45732334071604L143.53759559284558,148.51219314100862L143.7907483187589,147.79772332467942L144.2970537705855,148.83421412892022L144.5502064964988,145.39471295351467L144.67678285945544,140.94985840970696L145.0565119483254,143.2412475994237L145.56281740015203,131.36626607344135L145.942546489022,131.92496827731608L146.1956992149353,119.0322346784602L146.32227557789196,126.63731936260535L146.4488519408486,137.40358300098765L146.95515739267523,122.38672354037821L147.0817337556319,123.01105098470701L147.20831011858854,138.6647281660173L147.33488648154517,141.12950856880227L147.46146284450185,146.09842206875481L147.5880392074585,155.9676053614823L147.8411919333718,158.76204645380048L147.96776829632847,146.05726590889884L148.3474973851984,136.80071394932014L148.9803791999817,116.7900484428326L149.233531925895,132.9545151611026L149.36010828885165,144.50055972708185L149.61326101476496,133.94936102488177L149.7398373777216,142.0383158527956L150.24614282954823,159.60007047326513L150.49929555546152,162.6194126329434L150.6258719184182,157.04924773233185L150.75244828137485,165.66985269890776L151.00560100728813,141.6448817791292L151.25875373320147,139.54587952083637L151.3853300961581,128.8175586685186L151.51190645911475,137.81256226760632L151.7650591850281,140.85242333134832L151.89163554798472,133.765521250177L152.14478827389803,128.733172334928L152.2713646368547,139.44134638203397L152.39794099981134,141.7298823258671L152.524517362768,142.74013295185955L152.65109372572465,141.67906268805814L152.7776700886813,139.3265242242956L153.41055190346458,134.67014417977157L153.66370462937786,136.788824283565L153.9168573552912,143.7939467346408L154.04343371824785,151.60962446469006L154.17001008120448,144.52007344213632L154.80289189598778,139.44056103209724L155.30919734781438,148.38401606385577L155.56235007372769,164.76639394713524L155.68892643668434,146.8731661628799L156.44838461442427,145.2930695655532L156.57496097738093,151.4846774752423L156.70153734033758,156.26844211291274L156.82811370329424,157.16737156396513L156.9546900662509,157.18590839371026L157.4609955180775,149.71240878842605L157.71414824399082,131.76226507888225L157.84072460694745,136.4550058142285L158.6001827846874,144.761854066632L158.72675914764403,153.69710038474278L159.10648823651402,149.2515336135926L159.3596409624273,151.07874991967952L159.48621732538396,141.20892659037304L159.61279368834064,135.66227453270798L159.86594641425393,151.13533839936198L160.2456755031239,144.80809105981342L160.37225186608055,138.63421752692298L160.4988282290372,155.8200044193906L160.7519809549505,142.64979927605444L160.87855731790717,146.17550130200542L161.0051336808638,147.41139540528567L161.13171004382048,147.2271892308468L161.25828640677713,153.75190564235604L161.3848627697338,138.93504760529004L161.76459185860375,143.10589678191926L161.8911682215604,142.89916615921092L162.1443209474737,113.44154595193089L162.27089731043037,106.454111696444L162.397473673387,119.94807742216913L162.777202762257,138.46596968369178L162.90377912521362,148.59109309215833L163.03035548817027,147.5483877464487L163.5366609399969,151.86606837523962L163.66323730295355,145.93431444987422L163.7898136659102,152.5731743744984L164.42269548069348,122.68777735680844L164.67584820660676,133.66012330869586L164.9290009325201,132.385310260164L165.05557729547675,152.60335987143927L165.18215365843338,163.56097429224062L165.56188274730337,161.1699333491849L165.68845911026,167.29858473969418L165.81503547321665,164.7633547861665L165.94161183617334,144.52579938272376L166.06818819912996,152.72517844635644L166.19476456208662,155.70122343989874L166.32134092504327,156.244803832279L166.44791728799996,158.99762731890425L166.70107001391324,158.36536075250098L167.0807991027832,130.7590209739189L167.3339518286965,128.3909303746855L167.46052819165314,146.56855099050068L167.84025728052313,144.66601639511396L167.96683364347976,154.25318354736143L168.2199863693931,153.13591520006764L168.34656273234972,142.82445990146155L168.47313909530638,130.94589891313774L168.59971545826306,137.98610487943333L168.72629182121972,145.440377290996L168.979444547133,141.2960035490595L169.10602091008968,150.15294455343985L169.23259727304634,142.9546601676702L169.35917363600296,135.55814858244247L169.6123263619163,133.85113100931179L169.99205545078624,137.57218287321112L170.3717845396562,137.76532994126077L170.49836090261286,135.97574157929625L170.75151362852617,134.4939828029152L170.87808999148282,137.19063717304527L171.00466635443948,140.48143847127648L171.1312427173961,139.75477123136037L171.2578190803528,138.0406217002824L171.38439544330944,154.5455901475596L171.63754816922273,162.43271331475188L172.14385362104935,156.73502204407473L172.27042998400603,156.82204808278397L172.5235827099193,161.65393295645657L172.77673543583265,168.71905950336463L173.02988816174593,161.03994252174823L173.15646452470259,162.59372216767335L173.91592270244251,161.8314265950994L174.04249906539917,157.2431106518972L174.29565179131245,153.72867200193716L174.42222815426913,159.12005033350022L174.5488045172258,158.68823781194737L175.0551099690524,151.27619966430234L175.3082626949657,150.2298594600927L175.56141542087903,152.6968875748807L175.8145681467923,154.32439665787732L175.941144509749,151.65051709661725L176.06772087270565,162.97173132960273L176.44744996157561,122.77645117475083L176.57402632453224,132.26730886788957L176.7006026874889,150.56388314336183L176.95375541340223,155.12108561343453L177.08033177635886,69.89189760044596L177.46006086522885,107.0044305372081L177.58663722818548,116.0851061076173L177.96636631705542,116.32371273494233L178.0929426800121,132.48498407329342L178.21951904296876,126.49592561825808L178.47267176888204,141.09210371896128L178.97897722070866,142.69763313214563L179.10555358366534,158.10573584980824L179.232129946622,133.49746247833275L179.48528267253528,145.23427237307303L179.61185903549196,152.5202813860628L180.11816448731858,127.64663284308087L180.2447408502752,134.48031709144334L180.49789357618852,151.61081015449776L180.87762266505848,139.1192005022378L181.00419902801514,139.8499566094864L181.3839281168851,145.37369944650192L181.51050447984176,150.55773212052426L182.143386294625,145.52712899980915L182.39653902053834,147.79849409760257L182.52311538349497,150.1964091031715L182.64969174645162,156.35558186663326L182.7762681094083,136.55429594523193L182.90284447236496,145.26686320723798L183.0294208353216,149.35301191208052L183.15599719827824,147.01859158431506L183.5357262871482,151.1796350524613L183.66230265010486,158.96343131316888L183.78887901306155,164.06729151904358L183.91545537601817,166.00888996896137L184.16860810193148,159.2654063782115L184.4217608278448,158.84150625061994L184.54833719080145,166.6914273492118L184.9280662796714,160.22251247737336L185.05464264262807,161.36656584245384L185.43437173149803,151.886838985491L185.81410082036797,149.8754214561275L186.3204062721946,157.96661600371837L186.95328808697786,144.60153010211027L187.07986444993455,135.46373778733425L187.20644081289117,136.13610037489394L187.45959353880448,139.64391835975553L187.7127462647178,140.7919653739008L188.09247535358776,145.778758249243L188.4722044424577,157.00133557744832L188.72535716837103,154.66800239195888L189.105086257241,149.61014039526816L189.48481534611093,129.76820772655947L189.73796807202427,141.10902623115618L189.8645444349809,142.80182556619647L190.1176971608942,143.22469881510102L190.2442735238509,141.54447880458895L190.7505789756775,148.93796006139036L191.2568844275041,143.5260741581596L191.76318987933072,149.98970285525718L191.88976624228738,140.48721183965986L192.52264805707065,144.2960549749222L192.77580078298396,149.00918710226898L192.90237714594062,140.7165042123295L193.1555298718539,135.4430767206743L193.28210623481056,134.7289877495843L193.53525896072387,147.07267769873405L194.42129350142048,147.78476629679858L195.56048076803035,155.95336575937012L195.687057130987,153.78537778110177L195.9402098569003,158.21172520630668L196.06678621985697,152.625715405376L196.4465153087269,164.0946285628821L196.57309167168358,157.58310416212336L196.82624439759687,157.8280569004982L197.3325498494235,163.5512478321622L197.58570257533682,150.71494319479345L198.09200802716342,142.28903519647935L198.21858439012007,154.8888398117171L198.34516075307673,138.24173394627272L198.47173711603338,130.59827566799052L198.59831347899004,138.7720081780988L199.10461893081663,143.07946117378853L199.2311952937733,150.32506730988945L199.4843480196866,152.40427674531716L199.61092438264325,137.09965972687385L200.11722983446987,148.44973519690134L200.24380619742655,138.53505005392836L200.75011164925317,145.95379815979854L200.8766880122098,146.93711668408886L201.38299346403642,138.22938782364278L201.76272255290638,134.27042326023619L202.14245164177635,145.66556618201372L202.26902800473297,151.74650972871572L202.5221807306463,134.58520061758313L202.64875709360297,138.73025683651503L203.02848618247293,142.97183746092037L203.2816389083862,145.8580338852148L204.29424981203945,131.41263134447757L204.67397890090942,141.52075401016333L204.80055526386607,153.3662846957701L205.05370798977938,138.34994176719863L205.3068607156927,142.67709279286973L205.43343707864932,140.0284046632069L206.57262434525924,144.46973779202307L206.6992007082159,156.62461438758118L206.82577707117252,159.0923584680575L206.95235343412918,145.31242798371957L207.20550616004252,141.9760790687633L207.4586588859558,145.3745800714821L207.58523524891248,155.50288226492637L207.7118116118691,119.96011310268521L207.83838797482576,134.2155200360968L208.21811706369573,142.55955548041345L208.47126978960904,129.55510167348905L208.59784615256572,137.1007455280092L208.72442251552235,151.01976773537712L208.850998878479,162.3841432868989L208.97757524143566,128.9406914157543L209.10415160439229,136.19104386479378L209.23072796734897,146.85457708763164L209.48388069326228,154.51111235538926L209.6104570562189,155.36921128891925L209.7370334191756,115.01756292406021L209.86360978213224,129.25561433886278L209.9901861450889,130.82411843236392L210.11676250804553,131.27455435913123L210.2433388710022,147.672206297863L210.36991523395886,142.11393744966213L210.4964915969155,115.89506064286616L210.62306795987215,114.42588923228806L210.74964432282883,126.3517888238819L211.50910250056873,126.73943409325257L211.8888315894387,139.51746250431043L212.01540795239535,145.21411878683017L212.2685606783087,138.40769224679138L212.39513704126531,143.9979668051421L212.90144249309193,139.73982846887242L213.0280188560486,139.80133280894015L213.15459521900524,151.14705994344374L213.28117158196187,135.48478955772103L213.66090067083184,141.54983254873687L213.7874770337885,152.77653363628076L213.91405339674517,140.2209117342125L214.04062975970183,150.5703544908206L214.16720612265846,156.38758356975325L214.4203588485718,161.39617127411475L214.54693521152845,158.42670218878746L215.05324066335504,150.68401767268512L215.1798170263117,126.11454306749069L215.30639338926835,110.2793603444007L215.55954611518166,114.54818369354011L215.93927520405163,125.62916899438397L216.44558065587822,138.06169452163613L216.5721570188349,117.90251389436291L216.69873338179156,129.7353742884677L216.95188610770484,143.42820070989802L217.20503883361818,133.6582643030796L217.3316151965748,127.64373851207576L218.21764973727142,126.58527649146538L218.59737882614138,136.78044712075814L218.85053155205466,144.62558836167275L219.10368427796797,152.73134166282753L219.48341336683794,146.03460410745808L219.6099897297946,144.607398584482L219.98971881866456,143.69179463548443L220.11629518162118,143.90199231254195L220.36944790753452,120.69581697475645L220.49602427049118,123.04060886907466L221.00232972231777,123.0984387987469L221.2554824482311,126.55701298210892L221.38205881118776,138.2792967026206L221.7617879000577,135.87111651698163L221.88836426301438,145.7927320514365L222.014940625971,140.82709050268593L222.26809335188432,133.4289655083853L222.52124607779763,119.71993291304963L222.9009751666676,122.55021563644881L223.1541278925809,83.07590617443951L223.4072806184942,102.82973971174417L223.53385698145087,129.30008040198845L223.66043334440752,142.98131880429767L223.91358607032083,143.65951456373864L224.16673879623414,128.8257822367218L224.29331515919077,133.89618826322376L224.41989152214745,133.1468786501996L224.5464678851041,129.2645250008558L224.92619697397404,110.11607987288664L225.17934969988735,110.17017463525916L225.305926062844,124.81570784550124L225.43250242580066,120.4059739908304L225.55907878875735,99.11000828652311L225.68565515171397,116.02134306001285L226.06538424058394,129.64295387462806L226.6982660553672,118.71997331615047L227.3311478701505,120.90192945455875L227.45772423310711,133.5809831199843L227.5843005960638,147.30859835570857L228.0906060478904,145.05110684165803L228.21718241084707,145.33337952954696L228.3437587738037,149.19736677765908L229.2297933145003,157.98023024522158L229.35636967745694,146.12374909022557L229.60952240337025,148.6353855032877L229.7360987663269,145.1812802029668L229.86267512928356,144.71713483447573L229.98925149224021,154.41063978455318L230.49555694406683,146.6553432284389L230.74870966998014,148.4209744212917L231.00186239589345,134.67716052737197L231.25501512180674,146.1180440705497L231.38159148476342,145.59769367769238L231.76132057363336,140.87712869052194L231.88789693659004,136.01147357529277L232.39420238841666,133.98990053122336L232.52077875137329,138.61884496732094L232.64735511432994,141.92676760308268L232.7739314772866,104.42461714421474L233.0270842031999,121.06932552219891L233.15366056615656,124.52353349777555L233.78654238093984,118.83076074008412L233.91311874389646,143.85197474416313L234.1662714698098,136.37308364422628L234.41942419572308,137.10340258104014L234.54600055867976,135.53516365742541L234.67257692163642,133.65715222757456L234.79915328459305,132.41188953389593L235.05230601050638,121.36065572569677L235.30545873641967,121.66508200775695L235.8117641882463,136.32557661133194L236.06491691415962,144.10648492099347L236.3180696400729,146.72698807693965L236.69779872894287,144.3160653235965L236.82437509189953,136.60943441934504L237.33068054372615,126.78292336690119L237.7104096325961,139.7298591052618L237.9635623585094,144.60267067969897L238.09013872146605,142.23928409297588L238.21671508442273,136.32788191204253L238.34329144737939,121.12712844465364L238.72302053624935,110.39422902850082L238.849596899206,116.6849596629161L238.97617326216263,133.93317386469568L239.1027496251193,134.90383911994897L239.22932598807597,149.0521639833825L239.3559023510326,141.09335259985778L239.7356314399026,130.68423522794168L239.86220780285922,132.7179069289916L239.98878416581587,122.82759043423697L240.24193689172915,124.52019208761271L240.36851325468584,132.25033277428471L240.4950896176425,141.11854343837018L240.62166598059915,143.62870492084136L240.87481870651246,131.03891758898865L241.12797143242577,139.30923186119085L241.50770052129573,129.8631421043237L241.760853247209,136.87947063733304L241.8874296101657,138.85409698572215L242.01400597312235,138.77253228907463L242.14058233607898,140.73019069499423L242.6468877879056,142.75104821693796L242.90004051381894,136.22299840006835L243.02661687677556,128.7133068898376L243.40634596564556,100.46766673642789L243.53292232860218,123.64519814549213L243.65949869155884,129.8489509849918L243.7860750545155,125.30507295825949L244.41895686929874,125.25059211298958L245.43156777295198,121.7716137296946L245.55814413590866,124.32267501496955L245.68472049886532,124.38966789460503L246.06444958773528,119.15233192734888L246.31760231364856,113.12323490641124L246.44417867660522,129.8930961913027L246.5707550395619,116.99908559446473L246.69733140251853,119.83992783525697L246.82390776547518,127.65409032306596L246.95048412843184,111.44941919853177L247.07706049138852,114.38281687914305L247.3302132173018,131.92259266519125L247.45678958025846,116.31187798038901L247.83651866912842,132.08987490107194L248.46940048391167,146.17519421879135L248.59597684686833,141.0728750298594L248.84912957278166,122.69959505139722L248.9757059357383,119.00233401175765L249.22885866165163,130.4975731198958L250.11489320234818,115.74523003676836L250.24146956530487,127.12498617291524L250.3680459282615,138.05698926547194L250.74777501713146,129.1097054262194L250.87435138008811,118.42009197658862L251.25408046895805,117.66028368164393L251.38065683191473,64.16747201465051L251.5072331948714,72.84480734464047L251.63380955782804,99.82213824166006L251.88696228374135,106.88206025827985L252.013538646698,131.56380526855673L252.2666913726113,123.68078391925926L252.51984409852463,132.7895508398079L252.7729968244379,99.09291806447334L252.8995731873946,110.1439490641846L253.27930227626453,105.91826867615349L253.4058786392212,99.36639752118953L253.53245500217784,115.99462853901179L253.6590313651345,104.016416748369L253.78560772809115,81.71065206361239L254.29191317991777,108.65625660612136L254.54506590583108,113.29783663823368L255.0513713576577,118.99898422926064L255.304524083571,122.96094794798424L255.55767680948432,128.67915712399838L255.68425317244098,134.98907255409756L256.19055862426757,139.20168950543234L256.57028771313753,145.3367942859382L256.6968640760942,138.6804021074743L256.9500168020075,114.55702625010122L257.07659316496415,120.69565166497458L257.32974589087746,130.97934388343447L257.4563222538341,104.40657206180246L257.58289861679077,100.94057330703525L257.8360513427041,116.74123316162134L257.96262770566074,110.9786597292644L258.0892040686174,118.94086624441441L258.8486622463573,121.04163476811016L258.975238609314,127.06312077114437L259.10181497227063,119.85451560773559L259.2283913352273,107.57277014240518L259.35496769818394,112.70651579437967L259.60812042409725,130.5672785579819L259.7346967870539,127.9062046632968L259.98784951296716,125.97553455075527L260.3675786018372,128.30767855612686L260.87388405366374,134.0100432070101L261.38018950549036,121.69177241661215L261.506765868447,126.9039766658481L261.63334223140373,117.63914238301479L261.75991859436033,96.92496774315067L262.26622404618695,109.69903590345886L262.3928004091436,109.79118618023195L262.51937677210026,125.33925553583099L262.64595313505697,129.97785405928684L262.77252949801357,124.93933444814493L262.8991058609702,125.55553705366097L263.0256822239269,128.24505827209265L263.2788349498402,96.97412360418288L263.40541131279684,95.70357636341836L263.7851404016668,109.04588331672477L263.91171676462346,108.0825563570479L264.1648694905368,107.70772397670736L264.4180222164501,114.3273700288403L264.6711749423634,117.94730464134159L264.79775130532005,103.93877989076476L265.30405675714667,100.26810282353644L265.8103622089733,90.6667668965528L266.0635149348866,101.56112646498038L266.19009129784325,109.18446598937639L266.6963967496699,128.8017809559617L266.9495494755832,128.52351042584593L267.07612583853984,117.57926360820397L267.2027022014965,110.86558145547863L267.58243129036646,116.11592060395449L267.9621603792364,77.55766792433667L268.2153131051497,105.64600877520334L268.7216185569763,128.0479337847369" fill="none"></path></g></g></g></g><g opacity="0.2"><g><g><g><path style="fill: none;" stroke="rgb(255, 112, 67)" stroke-width="2px" d="M25.441848954287444,48.86326245335841L25.821578043157405,-59.62491275072304L25.94815440611406,130.70377292799026L26.70761258385398,159.77228325079457L26.834188946810634,167.60183882341883L27.2139180356806,94.10966635895238L27.34049439863725,132.0487676868827L27.720223487507212,130.50324939202983L27.846799850463867,142.36438458057182L27.97337621342052,127.24083755557605L28.22652893933383,62.58083834353602L28.353105302290484,101.22167320233804L28.732834391160445,105.91369110894723L28.8594107541171,117.56090377402347L29.112563480030406,80.12213381887295L29.618868931857023,-15.946014658822593L29.998598020726984,-31.590277090048843L30.12517438368364,41.32384987410707L30.251750746640294,30.73438842758425L30.378327109596945,22.936529148353678L30.5049034725536,32.4996281519707L31.390938013250178,-62.50358637124644L31.51751437620683,-58.74180964635751L31.644090739163484,34.86764658966924L31.897243465076794,10.400348576184134L32.023819828033446,20.862893055812513L32.276972553946756,2.2465594714849626L32.40354891690341,-1.3269285306246013L33.16300709464333,-9.325157586942623L33.28958345759999,38.37611655404819L33.416159820556636,41.649906547104834L33.669312546469946,33.74670047430801L33.7958889094266,-75.23258057017254L34.428770724209876,-3.826696356940816L35.1882289019498,7.98954124068178L35.4413816278631,-54.03696385662852L35.56795799081976,5.489729483259017L35.82111071673307,-19.429443892453932L36.20083980560303,-16.162287496490066L36.32741616855969,0.4901938306266078L36.70714525742964,11.653307666802467L36.83372162038629,-24.65733343706188L37.46660343516957,3.036704354338339L37.97290888699618,-23.830066769152836L39.23867251656272,-22.538184718109264L39.36524887951938,10.408651555326761L39.87155433134599,-59.38386276894741L40.1247070572593,10.461720332069042L40.75758887204257,10.074863007571834L41.26389432386919,-34.08459745914978L41.39047068682584,28.726824719331496L41.643623412739146,-6.615926244478007L41.896776138652456,41.43134929189548L42.02335250160911,1.5371160314093881L42.149928864565766,-90.48607580841643L42.403081590479076,-5.558724164756755L42.65623431639237,34.92097895305097L42.782810679349026,29.273547340654225L43.542268857088956,14.843980006219688L43.66884522004561,9.193209629723249L43.921997945958914,37.4558477335204L44.04857430891557,-15.416644824596915L44.428303397785534,0.2770401015259464L45.31433793848211,-21.546879298250133L45.56749066439542,-22.73363421126031L45.69406702735208,20.6245668026445L45.94721975326539,58.275721692530645L46.20037247917869,65.18792986321434L46.45352520509199,21.448890086413044L46.95983065691861,59.177890897149624L47.08640701987527,35.24378472416222L47.21298338283192,51.82131958346237L47.59271247170188,44.14444657173865L47.719288834658535,76.16363359874232L47.84586519761519,61.52614033688953L47.972441560571845,19.444665142259986L48.225594286485155,61.52846868553798L48.35217064944181,-3.281203806602194L48.73189973831177,16.18915048953842L48.85847610126842,89.52308310812262L48.98505246422508,-39.226425965977796L49.364781553095035,-2.130472400983282L49.49135791605169,67.16083192837961L49.617934279008345,33.54413414189185L49.744510641965,14.59915194927864L50.12423973083496,39.75924351344748L50.50396881970492,19.607473823225988L50.63054518266158,56.11180717597838L50.75712154561823,83.27054443376528L51.01027427153154,50.78221711964991L51.13685063448819,60.640621021662376L51.263426997444846,51.743605455931636L51.3900033604015,48.32097687379976L51.64315608631481,59.56821877906625L51.89630881222812,33.209423040898876L52.14946153814143,52.53172950788258L52.402614264054726,49.8955555956518L52.655766989968036,73.01359753290672L52.78234335292469,21.278657048435896L53.035496078838,61.38143127183232L53.162072441794656,38.741271911897464L53.28864880475131,71.90842268480584L53.41522516770796,36.39627337404409L53.541801530664614,30.401390639747667L53.794954256577924,79.39094448104288L53.92153061953458,60.06525531885292L54.4278360713612,70.31196627187956L54.80756516023116,99.52052896244416L55.18729424910112,50.596739987691315L55.440446975014424,56.62681153835411L55.56702333797108,55.9111738122515L55.693599700927734,79.7284232417501L55.94675242684104,57.41502345251821L56.07332878979769,76.76729093418591L56.326481515711,85.73020315977874L56.45305787866766,82.77798886684924L56.57963424162431,41.34212521444217L56.70621060458097,72.99062156416814L57.339092419364235,93.5100067542071L57.46566878232089,36.11770622725364L57.592245145277545,40.30965634772249L57.97197423414751,84.4005403570809L58.098550597104165,94.17876998959447L58.22512696006081,83.93205903656782L58.35170332301747,85.32441152834781L58.60485604893077,97.06530727819474L59.617466952584,77.93673699120563L59.74404331554066,84.7324837983597L60.12377240441062,59.49472203776669L60.25034876736728,72.26092588396159L60.37692513032393,68.33203522966232L60.630077856237236,63.382273520779115L60.883230582150546,113.23057066784418L61.136383308063856,93.63138840167312L61.26295967102051,52.05876721449888L61.51611239693382,74.34752165294232L61.76926512284713,61.27920358683288L61.89584148580377,62.10124245305952L62.14899421171708,84.85158102828383L62.781876026500356,110.04969496519314L62.90845238945701,40.46073542323303L63.03502875241366,121.40577618699854L63.161605115370314,99.12115127257313L63.28818147832697,56.96196195041285L63.921063293110244,66.74779166436385L64.17421601902355,94.40418049742951L64.3007923819802,89.93471757672796L64.42736874493686,72.61646032947102L64.55394510789351,42.178705276945045L64.93367419676348,72.67295573252615L65.06025055972013,73.94177395261796L65.43997964859008,99.73504455584863L65.69313237450339,52.949777918047864L65.81970873746005,85.11762780970048L66.19943782633001,12.324706768584305L66.45259055224332,104.9014305512519L67.08547236702658,126.60214516263912L67.21204872998324,69.52933360825047L67.33862509293989,76.30873804375871L67.46520145589655,96.58263621025799L68.09808327067982,99.62873127793776L68.22465963363648,99.70903734075637L68.47781235954979,87.9204324091693L68.85754144841975,114.18260167842553L68.98411781137641,95.11727021935077L69.11069417433305,84.42927130078078L69.2372705372897,95.7172373418421L69.49042326320301,105.99799490246416L69.74357598911631,82.61974902096699L69.99672871502962,101.4324107205771L70.12330507798629,107.84966907903643L70.24988144094293,110.47510183570967L70.3764578038996,76.14272239201274L70.75618689276955,88.26726849557691L71.00933961868286,91.00953603018571L71.26249234459617,74.90338194443257L71.38906870755282,120.19035622694834L71.51564507050948,67.33001061979894L71.64222143346613,106.52182941726142L71.76879779642279,41.46543983059747L71.89537415937944,91.18222921013106L72.02195052233608,91.04011208036174L72.78140870007601,112.63886259338894L73.16113778894598,94.57270022225022L73.28771415190263,106.01273378872L73.79401960372925,113.258225299433L74.1737486925992,52.600042378606325L74.30032505555587,120.50995502727962L74.80663050738248,94.22603986026888L74.93320687033913,30.099979317538335L75.05978323329579,74.25574957130766L75.18635959625244,86.42286491714277L75.3129359592091,143.16177809601007L75.43951232216575,88.34788207614156L75.56608868512241,91.79766008213666L75.69266504807905,80.17836563528864L75.81924141103572,108.12144886986108L75.94581777399236,133.22616527419245L76.19897049990567,109.56981352252387L76.32554686286232,139.5480272347247L76.57869958877563,130.9669422219263L77.08500504060224,137.02978637809383L77.21158140355891,90.57268510640645L77.59131049242886,108.53328102844605L77.71788685538553,118.09207478361874L77.84446321834217,121.25406011044267L77.97103958129884,119.95358952806374L78.35076867016879,113.53859362159304L78.73049775903876,109.93857123111229L78.85707412199541,87.22056595032701L79.23680321086536,146.69421247902554L79.36337957382202,139.37192939401987L79.86968502564864,74.53866589764904L79.99626138860529,115.06221225981837L80.37599047747526,78.47748498203418L80.5025668404319,96.5866339409563L80.62914320338857,124.70621039619277L80.7557195663452,111.179405336316L80.88229592930188,150.74314488204027L81.00887229225852,46.222124326084675L81.13544865521519,123.85814234932062L81.26202501817183,105.59615707062495L81.51517774408514,157.43003040710212L81.64175410704179,107.90409972008254L81.76833046999845,110.91421521147755L81.8949068329551,111.48176117731671L82.4012122847817,137.77514349779426L82.52778864773838,100.30439169705734L82.65436501069502,122.18025963035802L82.78094137365169,68.00224441260572L82.90751773660833,72.06547639081055L83.16067046252164,73.83343984380464L83.41382318843495,126.39309899200316L83.66697591434826,127.55856928387792L83.79355227730491,97.41394453997194L84.17328136617486,116.62910303801984L84.29985772913153,108.92066552622214L84.42643409208817,91.70931462681483L84.67958681800148,107.99461976517978L84.93273954391479,89.38184460048478L85.43904499574141,123.6354555700932L85.56562135869805,123.41610755496552L85.94535044756803,92.52120540742273L86.07192681052467,99.03399195712882L86.19850317348134,131.80705873850846L86.32507953643798,140.02656877864342L86.45165589939464,115.83039158938436L86.57823226235129,153.62634340654088L86.70480862530795,144.6932604023123L86.95796135122126,112.5955904534128L87.08453771417791,132.5408619771797L87.21111407713457,129.71701437766163L87.33769044009122,92.67975277105099L87.59084316600453,97.20285557288025L87.9705722548745,135.53869872428712L88.47687770670112,109.26545881617406L88.85660679557107,120.4661776795779L88.98318315852771,94.2620194365536L89.10975952148438,107.064949687845L89.48948861035433,109.22919368769658L89.74264133626764,110.41878215708087L89.86921769922431,135.54102707293558L89.99579406218095,140.4277915749906L90.1223704251376,127.40241616555797L90.24894678809426,100.91648380496329L90.37552315105091,131.6505322057826L90.50209951400757,119.16489437172731L90.88182860287753,100.2606363149089L91.00840496583419,88.88362192082062L91.13498132879084,101.49408999420804L91.26155769174748,136.32069438687088L91.64128678061746,123.07502644351919L92.52732132131403,99.96032327036394L92.90705041018398,129.19647469585743L93.03362677314065,128.2818729880778L93.28677949905396,109.01173471015159L93.4133558620106,86.61677682156369L93.53993222496727,102.75680179048597L93.66650858792391,153.7066934004661L93.79308495088057,140.95986317227062L94.04623767679388,125.09326541066959L94.17281403975053,154.89718245753514L94.29939040270719,127.37482743062901L94.5525431286205,159.6963702986334L94.67911949157715,124.07195504501988L95.0588485804471,126.15475077328188L95.31200130636041,162.33702518373482L95.56515403227372,140.84748740165244L95.69173039523038,125.67133287653337L95.81830675818703,131.98194847378252L96.57776493592695,114.81905358492715L96.70434129888362,100.40582862213842L96.83091766184026,109.73890435173007L97.33722311366688,128.46425297702288L97.71695220253685,112.75367654042202L97.97010492845016,148.31294196298518L98.34983401732012,107.73344933659293L98.85613946914673,132.8911027243469L99.36244492097335,133.31270955414473L99.48902128393,115.69420515900268L99.61559764688666,132.57708317455058L99.86875037279997,137.7263799694963L99.9953267357566,133.85716972347885L100.12190309871328,145.1035989032737L100.24847946166992,145.4697646765742L100.37505582462659,95.41749540168259L100.6282085505399,99.6047888248545L100.88136127645319,95.2621550088343L101.00793763940985,119.19889704821617L101.13451400236649,120.37422987351692L101.26109036532316,119.07690036525811L101.51424309123647,107.39669543914422L101.6408194541931,131.7368348646487L101.76739581714978,138.33445238115067L102.02054854306309,138.20503134118147L102.40027763193304,135.7602872258501L102.65343035784635,113.98671287420872L103.03315944671631,128.41603858755707L103.15973580967297,113.52356918314447L103.41288853558626,84.36623016284604L103.66604126149957,132.3303660800268L103.91919398741288,146.14968641303153L104.17234671332619,114.90720135026939L104.29892307628286,138.65462228586742L104.67865216515281,117.49944415592543L104.80522852810945,111.99235046348169L104.93180489106612,98.96005590476352L105.05838125402276,125.41640066508015L105.56468670584938,142.72677227870693L105.81783943176269,152.60270469224272L106.070992157676,166.29853468466584L106.45072124654597,112.25134630229309L106.57729760950262,102.49672963956345L106.70387397245928,96.5539052665581L106.83045033541592,131.83343936800657L106.95702669837259,112.84432837883902L107.08360306132923,142.74794707207596L107.58990851315585,145.89552299594334L107.84306123906916,141.5204240921644L107.96963760202581,165.91055711695097L108.09621396498247,149.0071632746326L108.22279032793911,144.11593976526026L108.34936669089578,146.95355976668952L108.72909577976573,133.96781021538735L108.8556721427224,154.65397985153731L108.98224850567904,119.29218475302766L109.86828304637562,147.7323045273868L110.24801213524559,141.16974403393147L110.88089395002885,151.38963504639426L111.0074703129855,142.19542554468535L111.13404667594216,152.75264155898233L111.51377576481212,131.54727213977867L111.76692849072543,133.66778272303512L111.89350485368207,155.25133307318742L112.02008121663874,72.49318964442229L112.3998103055087,152.8231509850348L113.03269212029197,78.93247945282884L113.28584484620528,120.34560875758349L113.41242120916193,105.89350476547611L113.53899757211859,132.67535705995832L113.66557393507524,141.596600630965L113.91872666098855,113.51884658918767L114.2984557498585,128.36793402585772L114.42503211281516,-77.70309027950998L114.67818483872847,130.70357523801067L115.18449029055509,140.8768114152911L115.31106665351173,131.163511958295L115.56421937942504,132.41818436206975L115.94394846829502,134.07153155801032L116.19710119420833,127.00466392663022L116.45025392012163,151.29276695639695L116.57683028307828,148.80180731694898L116.70340664603494,158.68801960942326L116.95655937194823,159.33433404935093L117.20971209786154,134.526987305424L117.33628846081821,112.33646282128167L117.46286482377485,152.25336453276032L117.58944118673152,173.64256366742597L117.71601754968816,118.83675097116728L117.96917027560147,169.7443149599626L118.09574663855813,123.10377935277235L118.22232300151478,138.8522244032406L118.85520481629806,144.6986199973144L118.9817811792547,148.71530696810328L119.10835754221137,163.9785109809002L119.36151026812468,94.93223239845794L119.48808663108132,123.0768935155486L119.61466299403799,138.44377493986192L119.74123935699463,142.56420521882708L120.6272738976912,145.0848403207663L121.00700298656118,133.92150682905753L121.13357934951782,146.24288625562988L121.38673207543113,134.25483410019345L122.0196138902144,134.41067970076736L122.14619025317106,88.30931056456895L122.27276661612771,131.1274445197971L122.65249570499766,113.67737198726266L122.77907206795433,154.50922685537356L123.03222479386764,91.39753556345387L123.15880115682428,154.42046405453928L123.28537751978095,130.8870315390668L123.53853024569426,150.84510898040028L123.6651066086509,122.37852071432987L123.91825933456421,116.50627166403684L124.04483569752085,146.49656643054573L124.17141206047752,123.44349859991485L124.29798842343416,160.35300854860614L124.42456478639083,157.1938128470497L124.55114114934747,137.83256145408748L125.18402296413075,117.7903339781101L125.3105993270874,143.8984148910554L125.56375205300071,119.12307195826818L125.81690477891402,142.14666201638738L126.07005750482732,158.04822893882195L126.19663386778399,153.9747610127852L126.57636295665394,125.84042370573957L126.7029393196106,141.568550619417L127.20924477143721,137.23421978253944L127.33582113439387,90.49940802063978L127.46239749735051,98.68864952834477L127.58897386030718,109.67017413549388L127.96870294917713,165.27568673028603L128.3484320380471,147.52259939015224L128.98131385283037,147.89900111128466L129.10789021578702,76.02366909319518L129.36104294170033,158.48729838348325L129.487619304657,100.7245927314448L129.61419566761364,124.1682959617383L129.86734839352695,114.07505832953055L129.99392475648358,145.9549398175857L130.12050111944026,107.40130820533457L130.2470774823969,142.88804337094282L130.7533829342235,160.41508320219626L130.87995929718016,158.80760008151972L131.13311202309347,153.38933508657013L131.25968838605013,176.9652929132069L131.38626474900678,139.05068317719204L131.6394174749201,126.76624981124907L131.76599383787675,156.25214957762003L132.1457229267467,97.6317988974761L132.39887565266002,124.52890445005713L133.0317574674433,147.5911978130687L133.15833383039995,151.70835522459404L133.53806291926992,100.02015743751875L133.91779200813986,133.49620978630742L134.29752109700985,175.8640279335912L134.42409745996648,171.028157618503L134.55067382292313,151.78459766005452L134.9304029117931,129.440424130667L135.05697927474975,170.51343880832L135.56328472657637,139.6851801494511L135.68986108953303,173.14185888024033L136.95562471909957,136.4927066346643L137.20877744501288,172.29543824986467L137.3353538079695,150.48570859751229L137.4619301709262,158.50223495971866L137.58850653388282,158.35838255123966L137.84165925979613,144.33899995889354L138.09481198570944,138.25755097909158L138.34796471162275,140.0226589101583L138.72769380049272,148.6880037853671L138.98084652640603,160.70329322687985L139.10742288936268,156.36687566243998L139.48715197823262,141.7650105280193L139.6137283411893,135.21136804919865L139.8668810671026,165.23109665711266L140.12003379301592,134.99122927415263L140.24661015597258,132.44946330995094L140.37318651892923,159.44594102560407L140.62633924484254,129.33591202812568L140.7529156077992,160.3383135934569L141.00606833371248,177.39744320858267L141.13264469666916,174.4561238300837L141.38579742258244,141.4838953770475L141.63895014849578,151.39317150047353L141.7655265114524,142.55172878455983L142.01867923736572,166.62314163114664L142.27183196327903,152.18500773093004L142.77813741510565,147.96737987866823L142.9047137780623,162.06739801713232L143.03129014101896,156.96851216698113L143.15786650397558,100.40903559291839L143.28444286693227,81.89479790027055L143.41101922988892,181.40020401858737L143.53759559284558,160.5944978414475L143.7907483187589,146.72601860018563L144.2970537705855,150.38895033528138L144.5502064964988,140.23546119040634L144.67678285945544,134.2825765939954L145.0565119483254,146.67833138399877L145.56281740015203,113.55379378446787L145.942546489022,132.76302158312822L146.1956992149353,99.69313428017632L146.32227557789196,138.0449463888231L146.4488519408486,153.55297845856103L146.95515739267523,99.86143434946418L147.0817337556319,123.9475421512002L147.20831011858854,162.14524393798274L147.33488648154517,144.82667917297977L147.46146284450185,153.5517923186835L147.5880392074585,170.77138030057358L147.8411919333718,162.95370809227782L147.96776829632847,127.00009509154646L148.3474973851984,122.91588600995217L148.9803791999817,86.7740501831013L149.233531925895,157.20121523850753L149.36010828885165,161.81962657605075L149.61326101476496,118.12256297158163L149.7398373777216,154.17174809466633L150.24614282954823,185.9427024039694L150.49929555546152,167.14842587246088L150.6258719184182,148.69400038141455L150.75244828137485,178.60076014877154L151.00560100728813,105.60742539946138L151.25875373320147,136.39737613339707L151.3853300961581,112.72507739004186L151.51190645911475,151.30506766623787L151.7650591850281,145.4122149269613L151.89163554798472,123.13516812841999L152.14478827389803,121.18464896205458L152.2713646368547,155.50360745269293L152.39794099981134,145.1626862416167L152.524517362768,144.25550889084823L152.65109372572465,140.08745729235602L152.7776700886813,135.7977165286518L153.41055190346458,127.68557411298549L153.66370462937786,139.96684443925508L153.9168573552912,154.30163041125456L154.04343371824785,163.3331410597639L154.17001008120448,133.88574690830572L154.80289189598778,131.82129241703868L155.30919734781438,161.7991986114935L155.56235007372769,189.33996077205438L155.68892643668434,120.03332448649691L156.44838461442427,142.92292466956314L156.57496097738093,160.7720893397759L156.70153734033758,163.44408906941842L156.82811370329424,158.51576574054369L156.9546900662509,157.21371363832807L157.4609955180775,138.50215938049976L157.71414824399082,104.83704951456662L157.84072460694745,143.494116917248L158.6001827846874,157.22212644523714L158.72675914764403,167.09996986190893L159.10648823651402,142.58318345686737L159.3596409624273,153.8195743788099L159.48621732538396,126.40419159641331L159.61279368834064,127.34229644621044L159.86594641425393,174.34493419934304L160.2456755031239,135.31722005049053L160.37225186608055,129.37340722758722L160.4988282290372,181.59868475809208L160.7519809549505,122.89449156105026L160.87855731790717,151.46405434093185L161.0051336808638,149.26523656020598L161.13171004382048,146.9508799691885L161.25828640677713,163.53898025961988L161.3848627697338,116.70976054969107L161.76459185860375,149.36217054686315L161.8911682215604,142.5890702251484L162.1443209474737,69.25511564101089L162.27089731043037,95.97296031321366L162.397473673387,140.18902601075686L162.777202762257,166.24280807597577L162.90377912521362,163.77877820485813L163.03035548817027,145.98432972788422L163.5366609399969,158.34258931842604L163.66323730295355,137.0366835618261L163.7898136659102,162.53146426143462L164.42269548069348,77.85968183027354L164.67584820660676,150.11864223652697L164.9290009325201,130.47309068736627L165.05557729547675,182.93043428835222L165.18215365843338,179.99739592344258L165.56188274730337,157.58337193460127L165.68845911026,176.49156182545815L165.81503547321665,160.96050985587502L165.94161183617334,114.16946627755965L166.06818819912996,165.02424704180547L166.19476456208662,160.16529093021225L166.32134092504327,157.06017442084934L166.44791728799996,163.12686254884218L166.70107001391324,157.4169609028961L167.0807991027832,89.3495113060458L167.3339518286965,124.83879447583536L167.46052819165314,173.83498191422336L167.84025728052313,141.81221450203387L167.96683364347976,168.63393427573263L168.2199863693931,151.460012679127L168.34656273234972,127.35727695355241L168.47313909530638,113.12805743065204L168.59971545826306,148.54641382887667L168.72629182121972,156.62178590833992L168.979444547133,135.0794429361547L169.10602091008968,163.43835606001042L169.23259727304634,132.15723358901576L169.35917363600296,124.46338120460086L169.6123263619163,131.29060464961572L169.99205545078624,143.15376066906015L170.3717845396562,138.05505054333528L170.49836090261286,133.2913590363494L170.75151362852617,132.27134463834363L170.87808999148282,141.23561872824033L171.00466635443948,145.41764041862325L171.1312427173961,138.66477037148618L171.2578190803528,135.46939740366545L171.38439544330944,179.30304281847543L171.63754816922273,174.26339806554031L172.14385362104935,148.18848513805895L172.27042998400603,156.95258714084775L172.5235827099193,168.90176026696554L172.77673543583265,179.31674932372675L173.02988816174593,149.5212670493236L173.15646452470259,164.92439163656107L173.91592270244251,160.68798323623858L174.04249906539917,150.36063673709398L174.29565179131245,148.4570140269971L174.42222815426913,167.20711783084474L174.5488045172258,158.04051902961808L175.0551099690524,140.15814244283482L175.3082626949657,148.66034915377827L175.56141542087903,156.39742974706272L175.8145681467923,156.76566028237224L175.941144509749,147.63969775472722L176.06772087270565,179.95355267908099L176.44744996157561,62.48353094247297L176.57402632453224,146.50359540759771L176.7006026874889,178.00874455657026L176.95375541340223,161.95688931854355L177.08033177635886,-57.951884419037015L177.46006086522885,162.67322994235136L177.58663722818548,129.70611946323106L177.96636631705542,116.68162267592994L178.0929426800121,156.72689108082L178.21951904296876,117.51233793570509L178.47267176888204,162.98637087001615L178.97897722070866,145.10592725192217L179.10555358366534,181.2178899263022L179.232129946622,96.58505242111961L179.48528267253528,162.83948721518348L179.61185903549196,163.44929490554753L180.11816448731858,90.33616002860799L180.2447408502752,144.730843463987L180.49789357618852,177.30654974907952L180.87762266505848,120.3817860238478L181.00419902801514,140.94609077035943L181.3839281168851,153.65931370202523L181.51050447984176,158.33378113155777L182.143386294625,137.98122431873642L182.39653902053834,151.20554174429276L182.52311538349497,153.79328161152492L182.64969174645162,165.59434101182592L182.7762681094083,106.8523670631298L182.90284447236496,158.3357141002471L183.0294208353216,155.4822349693443L183.15599719827824,143.5169610926669L183.5357262871482,157.4212002546806L183.66230265010486,170.6391257042303L183.78887901306155,171.72308182785562L183.91545537601817,168.92128764383804L184.16860810193148,149.15018099208672L184.4217608278448,158.20565605923255L184.54833719080145,178.46630899709956L184.9280662796714,150.51914016961567L185.05464264262807,163.0826458900747L185.43437173149803,137.6672487000467L185.81410082036797,146.85829516208221L186.3204062721946,170.1034078251046L186.95328808697786,124.55390124969814L187.07986444993455,121.75704931517022L187.20644081289117,137.1446442562335L187.45959353880448,144.9056453370479L187.7127462647178,142.5140358951187L188.09247535358776,153.25894756225625L188.4722044424577,173.83520156975626L188.72535716837103,151.16800261372467L189.105086257241,142.0233474002321L189.48481534611093,100.00530872349646L189.73796807202427,158.12025398805125L189.8645444349809,145.34102456875692L190.1176971608942,143.85900868845786L190.2442735238509,139.02414878882087L190.7505789756775,160.02818194659244L191.2568844275041,135.4082453033134L191.76318987933072,159.68514590090356L191.88976624228738,126.23347531626383L192.52264805707065,150.0093196778157L192.77580078298396,156.07888529328923L192.90237714594062,128.27747987742032L193.1555298718539,127.53293548319155L193.28210623481056,133.6578542929492L193.53525896072387,165.58821262245874L194.42129350142048,148.85289919389538L195.56048076803035,168.20626495322747L195.687057130987,150.53339581369914L195.9402098569003,164.85124634411412L196.06678621985697,144.24670070398L196.4465153087269,181.29799829914123L196.57309167168358,147.81581756098535L196.82624439759687,158.1954860080605L197.3325498494235,172.1360342296582L197.58570257533682,131.46048623874026L198.09200802716342,129.65017319900812L198.21858439012007,173.78854673457388L198.34516075307673,113.2710751481061L198.47173711603338,119.13308825056723L198.59831347899004,151.0326069432613L199.10461893081663,149.54064066732306L199.2311952937733,161.1934765140409L199.4843480196866,155.5230908984588L199.61092438264325,114.14273419920895L200.11722983446987,165.47484840194264L200.24380619742655,123.66302233946888L200.75011164925317,157.08192031860384L200.8766880122098,148.4120944705244L201.38299346403642,125.16779453297364L201.76272255290638,128.3319764151263L202.14245164177635,162.75828056468004L202.26902800473297,160.86792504876874L202.5221807306463,108.84323695088415L202.64875709360297,144.94784116491294L203.02848618247293,149.3342083975283L203.2816389083862,150.1873285216566L204.29424981203945,109.74452753337167L204.67397890090942,156.68293800869196L204.80055526386607,171.13458072418032L205.05370798977938,115.82542737434143L205.3068607156927,149.16781933137645L205.43343707864932,136.05537246871268L206.57262434525924,151.13173748524719L206.6992007082159,174.85692928091842L206.82577707117252,162.79397458877204L206.95235343412918,124.6425322572127L207.20550616004252,136.97155569632903L207.4586588859558,150.47233157556028L207.58523524891248,170.6953355550927L207.7118116118691,66.64595935932358L207.83838797482576,155.5986304362141L208.21811706369573,155.07560864688847L208.47126978960904,110.04842096310244L208.59784615256572,148.41921130978952L208.72442251552235,171.898301046429L208.850998878479,179.43070661418167L208.97757524143566,78.77551360903728L209.10415160439229,147.06657253835306L209.23072796734897,162.84987692188838L209.48388069326228,165.99591525702567L209.6104570562189,156.65635968921427L209.7370334191756,54.490090376771626L209.86360978213224,150.6126914610666L209.9901861450889,133.1768745726156L210.11676250804553,131.95020824928224L210.2433388710022,172.26868420596065L210.36991523395886,133.77653417736087L210.4964915969155,76.56674543267218L210.62306795987215,112.2221321164209L210.74964432282883,144.24063821127268L211.50910250056873,127.32090199730852L211.8888315894387,158.68450512089728L212.01540795239535,153.75910321060974L212.2685606783087,128.19805243673318L212.39513704126531,152.38337864266828L212.90144249309193,133.35262096446786L213.0280188560486,139.89358931904167L213.15459521900524,168.16565064519912L213.28117158196187,111.99138397913703L213.66090067083184,150.6473970352606L213.7874770337885,169.61658526759655L213.91405339674517,121.38747888111018L214.04062975970183,166.09451862573272L214.16720612265846,165.11342718815217L214.4203588485718,168.90905283065698L214.54693521152845,153.9724985607966L215.05324066335504,139.06999089853164L215.1798170263117,89.26033115969904L215.30639338926835,86.52658625976575L215.55954611518166,120.95141871724923L215.93927520405163,142.2506469456498L216.44558065587822,156.71048281251433L216.5721570188349,87.66374295345304L216.69873338179156,147.48466487962494L216.95188610770484,163.96744034204337L217.20503883361818,119.00335969285199L217.3316151965748,118.62194982557004L218.21764973727142,124.99758346054979L218.59737882614138,152.07320306469728L218.85053155205466,156.3933002230447L219.10368427796797,164.88997161455973L219.48341336683794,135.98949777440387L219.6099897297946,142.46659030001797L219.98971881866456,142.31838871198806L220.11629518162118,144.2172888281282L220.36944790753452,85.88655396807827L220.49602427049118,126.55779671055191L221.00232972231777,123.18518369325534L221.2554824482311,131.74487425715188L221.38205881118776,155.86272228338817L221.7617879000577,132.25884623852315L221.88836426301438,160.67515535311873L222.014940625971,133.37862817956014L222.26809335188432,122.33177801693435L222.52124607779763,99.15638402004609L222.9009751666676,126.79563972154757L223.1541278925809,23.86444198142545L223.4072806184942,132.46049001770123L223.53385698145087,169.00559143735498L223.66043334440752,163.50317640776143L223.91358607032083,144.67680820290005L224.16673879623414,106.57518374619646L224.29331515919077,141.50179730297668L224.41989152214745,132.02291423066345L224.5464678851041,123.44099452684009L224.92619697397404,81.39341218093296L225.17934969988735,110.25131677881791L225.305926062844,146.7840076608643L225.43250242580066,113.79137320882413L225.55907878875735,67.16605973006199L225.68565515171397,141.38834522024743L226.06538424058394,150.07537009655087L226.6982660553672,102.33550247843417L227.3311478701505,124.17486366217123L227.45772423310711,152.59956361812263L227.5843005960638,167.90002120929492L228.0906060478904,141.66486957058217L228.21718241084707,145.75678856138032L228.3437587738037,154.99334764982723L229.2297933145003,171.15452544656526L229.35636967745694,128.33902735773154L229.60952240337025,152.40284012288092L229.7360987663269,140.00012225248545L229.86267512928356,144.0209167817391L229.98925149224021,168.95089720966942L230.49555694406683,135.0223983942674L230.74870966998014,151.06942121057094L231.00186239589345,114.06143968649236L231.25501512180674,163.27936938531641L231.38159148476342,144.81716808840636L231.76132057363336,133.79628120976625L231.88789693659004,128.71299090244906L232.39420238841666,130.95754096511928L232.52077875137329,145.56226162146734L232.64735511432994,146.88865155672534L232.7739314772866,48.17139145591275L233.0270842031999,146.0363880891753L233.15366056615656,129.7048454611404L233.78654238093984,110.29160160354698L233.91311874389646,181.3837957502817L234.1662714698098,125.15474699432094L234.41942419572308,138.198880986261L234.54600055867976,133.18280527200318L234.67257692163642,130.84013508279827L234.79915328459305,130.5439954933779L235.05230601050638,104.78380501339802L235.30545873641967,122.12172143084719L235.8117641882463,158.3163185166943L236.06491691415962,155.77784738548576L236.3180696400729,150.65774281085896L236.69779872894287,140.6996811935817L236.82437509189953,125.04948806296787L237.33068054372615,112.04315678823538L237.7104096325961,159.15026271280274L237.9635623585094,151.9118880413548L238.09013872146605,138.69420421289124L238.21671508442273,127.46077864064253L238.34329144737939,98.32599824357021L238.72302053624935,94.29487990427153L238.849596899206,126.12105561453906L238.97617326216263,159.80549516736508L239.1027496251193,136.35983700282898L239.22932598807597,170.27465127853293L239.3559023510326,129.1551355245706L239.7356314399026,115.07055917006758L239.86220780285922,135.76841448056646L239.98878416581587,107.99211569210502L240.24193689172915,127.05909456767633L240.36851325468584,143.84554380429267L240.4950896176425,154.42085943449845L240.62166598059915,147.39394714454806L240.87481870651246,112.15423659120964L241.12797143242577,151.7147032694941L241.50770052129573,115.69400746902309L241.760853247209,147.4039634368471L241.8874296101657,141.81603650830587L242.01400597312235,138.65018524410334L242.14058233607898,143.66667830387362L242.6468877879056,145.78233449985353L242.90004051381894,126.43092367476402L243.02661687677556,117.44876962449146L243.40634596564556,58.0992065063133L243.53292232860218,158.41149525908853L243.65949869155884,139.15458024424132L243.7860750545155,118.489255918161L244.41895686929874,125.16887084508471L245.43156777295198,116.55314615475208L245.55814413590866,128.14926694288195L245.68472049886532,124.4901572140582L246.06444958773528,111.29632797646471L246.31760231364856,104.07958937500487L246.44417867660522,155.0478881186398L246.5707550395619,97.65806969920777L246.69733140251853,124.10119119644538L246.82390776547518,139.37533405477942L246.95048412843184,87.14241251173054L247.07706049138852,118.78291340005993L247.3302132173018,158.23225634426356L247.45678958025846,92.8958059531856L247.83651866912842,155.75687028209634L248.46940048391167,167.3031731953704L248.59597684686833,133.4193962464615L248.84912957278166,95.13967508370389L248.9757059357383,113.45644245229825L249.22885866165163,147.7404317821031L250.11489320234818,93.61671541207718L250.24146956530487,144.19462037713564L250.3680459282615,154.45499390430703L250.74777501713146,115.68877966734067L250.87435138008811,102.38567180214251L251.25408046895805,116.52057123922692L251.38065683191473,-16.071745485839514L251.5072331948714,85.86081033962546L251.63380955782804,140.2881345871895L251.88696228374135,117.47194328320961L252.013538646698,168.58642278397204L252.2666913726113,111.85625189531314L252.51984409852463,146.45270122063087L252.7729968244379,48.547968901471464L252.8995731873946,126.72049556375148L253.27930227626453,99.57974809410689L253.4058786392212,89.53859078874349L253.53245500217784,140.9369750657452L253.6590313651345,86.04909906240484L253.78560772809115,48.25200503647739L254.29191317991777,149.07466341988473L254.54506590583108,120.26020668640219L255.0513713576577,127.55070561580101L255.304524083571,128.90389352606962L255.55767680948432,137.25647088801952L255.68425317244098,144.45394569924636L256.19055862426757,145.52061493243448L256.57028771313753,154.53945145669695L256.6968640760942,128.69581383977837L256.9500168020075,78.37196246404166L257.07659316496415,129.90358978728455L257.32974589087746,146.40488221112426L257.4563222538341,64.54741432935454L257.58289861679077,95.74157517488449L257.8360513427041,140.4422229435004L257.96262770566074,102.33479958072895L258.0892040686174,130.88417601713948L258.8486622463573,124.19278755365373L258.975238609314,136.09534977569572L259.10181497227063,109.04160786262244L259.2283913352273,89.15015194440957L259.35496769818394,120.40713427234144L259.60812042409725,157.3584227033853L259.7346967870539,123.91459382126914L259.98784951296716,123.07952938194309L260.3675786018372,131.8058945641842L260.87388405366374,142.563590183335L261.38018950549036,103.21436623101525L261.506765868447,134.722283039702L261.63334223140373,103.74189095876478L261.75991859436033,65.85370578335461L262.26622404618695,128.86013814392118L262.3928004091436,109.92941159539146L262.51937677210026,148.66135956922952L262.64595313505697,136.9357518444706L262.77252949801357,117.3815550314321L262.8991058609702,126.47984096193503L263.0256822239269,132.27934009974027L263.2788349498402,50.06772160231822L263.40541131279684,93.7977555022717L263.7851404016668,129.05934374668436L263.91171676462346,106.63756591753261L264.1648694905368,107.14547540619651L264.4180222164501,124.25683910703971L264.6711749423634,123.37720656009355L264.79775130532005,82.92599276489956L265.30405675714667,94.76208722269395L265.8103622089733,76.26476300607739L266.0635149348866,117.90266581762174L266.19009129784325,120.61947527597046L266.6963967496699,158.22775340583962L266.9495494755832,128.10610463067226L267.07612583853984,101.16289338174103L267.2027022014965,100.79505822639068L267.58243129036646,123.99142932666837L267.9621603792364,19.720288904909935L268.2153131051497,147.7785200515034L268.7216185569763,161.65082129903726" fill="none"></path></g></g></g></g></g></g><g transform="translate(51, 176)" clip-path="url(#clip_1)"><clipPath id="clip_1"><rect width="278" height="23"></rect></clipPath><g><g><line x1="0" y1="0" x2="0" y2="5" style="visibility: inherit;" fill="rgb(0, 0, 0)" stroke="rgb(204, 204, 204)" stroke-width="1px"></line><line x1="25.31527259133079" y1="0" x2="25.31527259133079" y2="5" style="visibility: inherit;" fill="rgb(0, 0, 0)" stroke="rgb(204, 204, 204)" stroke-width="1px"></line><line x1="50.63054518266158" y1="0" x2="50.63054518266158" y2="5" style="visibility: inherit;" fill="rgb(0, 0, 0)" stroke="rgb(204, 204, 204)" stroke-width="1px"></line><line x1="75.94581777399236" y1="0" x2="75.94581777399236" y2="5" style="visibility: inherit;" fill="rgb(0, 0, 0)" stroke="rgb(204, 204, 204)" stroke-width="1px"></line><line x1="101.26109036532316" y1="0" x2="101.26109036532316" y2="5" style="visibility: inherit;" fill="rgb(0, 0, 0)" stroke="rgb(204, 204, 204)" stroke-width="1px"></line><line x1="126.57636295665394" y1="0" x2="126.57636295665394" y2="5" style="visibility: inherit;" fill="rgb(0, 0, 0)" stroke="rgb(204, 204, 204)" stroke-width="1px"></line><line x1="151.89163554798472" y1="0" x2="151.89163554798472" y2="5" style="visibility: inherit;" fill="rgb(0, 0, 0)" stroke="rgb(204, 204, 204)" stroke-width="1px"></line><line x1="177.20690813931552" y1="0" x2="177.20690813931552" y2="5" style="visibility: inherit;" fill="rgb(0, 0, 0)" stroke="rgb(204, 204, 204)" stroke-width="1px"></line><line x1="202.5221807306463" y1="0" x2="202.5221807306463" y2="5" style="visibility: inherit;" fill="rgb(0, 0, 0)" stroke="rgb(204, 204, 204)" stroke-width="1px"></line><line x1="227.8374533219771" y1="0" x2="227.8374533219771" y2="5" style="visibility: inherit;" fill="rgb(0, 0, 0)" stroke="rgb(204, 204, 204)" stroke-width="1px"></line><line x1="253.15272591330788" y1="0" x2="253.15272591330788" y2="5" style="visibility: inherit;" fill="rgb(0, 0, 0)" stroke="rgb(204, 204, 204)" stroke-width="1px"></line><line x1="278.4679985046387" y1="0" x2="278.4679985046387" y2="5" style="visibility: inherit;" fill="rgb(0, 0, 0)" stroke="rgb(204, 204, 204)" stroke-width="1px"></line></g><g transform="translate(0, 8)"><text style="text-anchor: middle; visibility: hidden; font-family: Roboto, sans-serif; font-size: 12px; font-weight: 200;" x="0" y="0" dx="0em" dy="0.95em" fill="rgb(33, 33, 33)" stroke="none" stroke-width="1px">-20k</text><text style="text-anchor: middle; visibility: inherit; font-family: Roboto, sans-serif; font-size: 12px; font-weight: 200;" x="25.31527259133079" y="0" dx="0em" dy="0.95em" fill="rgb(33, 33, 33)" stroke="none" stroke-width="1px">0</text><text style="text-anchor: middle; visibility: hidden; font-family: Roboto, sans-serif; font-size: 12px; font-weight: 200;" x="50.63054518266158" y="0" dx="0em" dy="0.95em" fill="rgb(33, 33, 33)" stroke="none" stroke-width="1px">20k</text><text style="text-anchor: middle; visibility: inherit; font-family: Roboto, sans-serif; font-size: 12px; font-weight: 200;" x="75.94581777399236" y="0" dx="0em" dy="0.95em" fill="rgb(33, 33, 33)" stroke="none" stroke-width="1px">40k</text><text style="text-anchor: middle; visibility: hidden; font-family: Roboto, sans-serif; font-size: 12px; font-weight: 200;" x="101.26109036532316" y="0" dx="0em" dy="0.95em" fill="rgb(33, 33, 33)" stroke="none" stroke-width="1px">60k</text><text style="text-anchor: middle; visibility: inherit; font-family: Roboto, sans-serif; font-size: 12px; font-weight: 200;" x="126.57636295665394" y="0" dx="0em" dy="0.95em" fill="rgb(33, 33, 33)" stroke="none" stroke-width="1px">80k</text><text style="text-anchor: middle; visibility: hidden; font-family: Roboto, sans-serif; font-size: 12px; font-weight: 200;" x="151.89163554798472" y="0" dx="0em" dy="0.95em" fill="rgb(33, 33, 33)" stroke="none" stroke-width="1px">100k</text><text style="text-anchor: middle; visibility: inherit; font-family: Roboto, sans-serif; font-size: 12px; font-weight: 200;" x="177.20690813931552" y="0" dx="0em" dy="0.95em" fill="rgb(33, 33, 33)" stroke="none" stroke-width="1px">120k</text><text style="text-anchor: middle; visibility: hidden; font-family: Roboto, sans-serif; font-size: 12px; font-weight: 200;" x="202.5221807306463" y="0" dx="0em" dy="0.95em" fill="rgb(33, 33, 33)" stroke="none" stroke-width="1px">140k</text><text style="text-anchor: middle; visibility: inherit; font-family: Roboto, sans-serif; font-size: 12px; font-weight: 200;" x="227.8374533219771" y="0" dx="0em" dy="0.95em" fill="rgb(33, 33, 33)" stroke="none" stroke-width="1px">160k</text><text style="text-anchor: middle; visibility: hidden; font-family: Roboto, sans-serif; font-size: 12px; font-weight: 200;" x="253.15272591330788" y="0" dx="0em" dy="0.95em" fill="rgb(33, 33, 33)" stroke="none" stroke-width="1px">180k</text><text style="text-anchor: middle; visibility: hidden; font-family: Roboto, sans-serif; font-size: 12px; font-weight: 200;" x="278.4679985046387" y="0" dx="0em" dy="0.95em" fill="rgb(33, 33, 33)" stroke="none" stroke-width="1px">200k</text></g><line x1="0" y1="0" x2="278.4679985046387" y2="0" fill="rgb(0, 0, 0)" stroke="rgb(204, 204, 204)" stroke-width="1px"></line></g></g></g></g></svg>