<svg viewBox="0 0 330 200" xmlns="http://www.w3.org/2000/svg"><g><g><g><g><g><line x1="51.53200149536133" y1="176.88999938964844" x2="46.53200149536133" y2="176.88999938964844" style="visibility: inherit;" fill="rgb(0, 0, 0)" stroke="rgb(204, 204, 204)" stroke-width="1px"></line><line x1="51.53200149536133" y1="154.77874946594238" x2="46.53200149536133" y2="154.77874946594238" style="visibility: inherit;" fill="rgb(0, 0, 0)" stroke="rgb(204, 204, 204)" stroke-width="1px"></line><line x1="51.53200149536133" y1="132.6674995422363" x2="46.53200149536133" y2="132.6674995422363" style="visibility: inherit;" fill="rgb(0, 0, 0)" stroke="rgb(204, 204, 204)" stroke-width="1px"></line><line x1="51.53200149536133" y1="110.55624961853023" x2="46.53200149536133" y2="110.55624961853023" style="visibility: inherit;" fill="rgb(0, 0, 0)" stroke="rgb(204, 204, 204)" stroke-width="1px"></line><line x1="51.53200149536133" y1="88.44499969482426" x2="46.53200149536133" y2="88.44499969482426" style="visibility: inherit;" fill="rgb(0, 0, 0)" stroke="rgb(204, 204, 204)" stroke-width="1px"></line><line x1="51.53200149536133" y1="66.3337497711182" x2="46.53200149536133" y2="66.3337497711182" style="visibility: inherit;" fill="rgb(0, 0, 0)" stroke="rgb(204, 204, 204)" stroke-width="1px"></line><line x1="51.53200149536133" y1="44.22249984741213" x2="46.53200149536133" y2="44.22249984741213" style="visibility: inherit;" fill="rgb(0, 0, 0)" stroke="rgb(204, 204, 204)" stroke-width="1px"></line><line x1="51.53200149536133" y1="22.111249923706076" x2="46.53200149536133" y2="22.111249923706076" style="visibility: inherit;" fill="rgb(0, 0, 0)" stroke="rgb(204, 204, 204)" stroke-width="1px"></line><line x1="51.53200149536133" y1="0" x2="46.53200149536133" y2="0" style="visibility: inherit;" fill="rgb(0, 0, 0)" stroke="rgb(204, 204, 204)" stroke-width="1px"></line></g><g transform="translate(41.53200149536133, 0)"><text style="text-anchor: end; visibility: hidden; font-family: Roboto, sans-serif; font-size: 12px; font-weight: 200;" x="0" y="176.88999938964844" dx="0em" dy="0.3em" fill="rgb(33, 33, 33)" stroke="none" stroke-width="1px">1.45</text><text style="text-anchor: end; visibility: inherit; font-family: Roboto, sans-serif; font-size: 12px; font-weight: 200;" x="0" y="154.77874946594238" dx="0em" dy="0.3em" fill="rgb(33, 33, 33)" stroke="none" stroke-width="1px">1.5</text><text style="text-anchor: end; visibility: hidden; font-family: Roboto, sans-serif; font-size: 12px; font-weight: 200;" x="0" y="132.6674995422363" dx="0em" dy="0.3em" fill="rgb(33, 33, 33)" stroke="none" stroke-width="1px">1.55</text><text style="text-anchor: end; visibility: inherit; font-family: Roboto, sans-serif; font-size: 12px; font-weight: 200;" x="0" y="110.55624961853023" dx="0em" dy="0.3em" fill="rgb(33, 33, 33)" stroke="none" stroke-width="1px">1.6</text><text style="text-anchor: end; visibility: hidden; font-family: Roboto, sans-serif; font-size: 12px; font-weight: 200;" x="0" y="88.44499969482426" dx="0em" dy="0.3em" fill="rgb(33, 33, 33)" stroke="none" stroke-width="1px">1.65</text><text style="text-anchor: end; visibility: inherit; font-family: Roboto, sans-serif; font-size: 12px; font-weight: 200;" x="0" y="66.3337497711182" dx="0em" dy="0.3em" fill="rgb(33, 33, 33)" stroke="none" stroke-width="1px">1.7</text><text style="text-anchor: end; visibility: hidden; font-family: Roboto, sans-serif; font-size: 12px; font-weight: 200;" x="0" y="44.22249984741213" dx="0em" dy="0.3em" fill="rgb(33, 33, 33)" stroke="none" stroke-width="1px">1.75</text><text style="text-anchor: end; visibility: inherit; font-family: Roboto, sans-serif; font-size: 12px; font-weight: 200;" x="0" y="22.111249923706076" dx="0em" dy="0.3em" fill="rgb(33, 33, 33)" stroke="none" stroke-width="1px">1.8</text><text style="text-anchor: end; visibility: hidden; font-family: Roboto, sans-serif; font-size: 12px; font-weight: 200;" x="0" y="0" dx="0em" dy="0.3em" fill="rgb(33, 33, 33)" stroke="none" stroke-width="1px">1.85</text></g><line x1="51.53200149536133" y1="0" x2="51.53200149536133" y2="176.88999938964844" fill="rgb(0, 0, 0)" stroke="rgb(204, 204, 204)" stroke-width="1px"></line></g></g><g transform="translate(51, 0)" clip-path="url(#clip_0)"><clipPath id="clip_0"><rect width="278" height="176"></rect></clipPath><g><g><g><line x1="0" y1="0" x2="0" y2="176.88999938964844" fill="rgb(0, 0, 0)" stroke="rgb(66, 66, 66)" stroke-width="1px" opacity="0.25"></line><line x1="25.31527259133079" y1="0" x2="25.31527259133079" y2="176.88999938964844" fill="rgb(0, 0, 0)" stroke="rgb(66, 66, 66)" stroke-width="1px" opacity="0.25"></line><line x1="50.63054518266158" y1="0" x2="50.63054518266158" y2="176.88999938964844" fill="rgb(0, 0, 0)" stroke="rgb(66, 66, 66)" stroke-width="1px" opacity="0.25"></line><line x1="75.94581777399236" y1="0" x2="75.94581777399236" y2="176.88999938964844" fill="rgb(0, 0, 0)" stroke="rgb(66, 66, 66)" stroke-width="1px" opacity="0.25"></line><line x1="101.26109036532316" y1="0" x2="101.26109036532316" y2="176.88999938964844" fill="rgb(0, 0, 0)" stroke="rgb(66, 66, 66)" stroke-width="1px" opacity="0.25"></line><line x1="126.57636295665394" y1="0" x2="126.57636295665394" y2="176.88999938964844" fill="rgb(0, 0, 0)" stroke="rgb(66, 66, 66)" stroke-width="1px" opacity="0.25"></line><line x1="151.89163554798472" y1="0" x2="151.89163554798472" y2="176.88999938964844" fill="rgb(0, 0, 0)" stroke="rgb(66, 66, 66)" stroke-width="1px" opacity="0.25"></line><line x1="177.20690813931552" y1="0" x2="177.20690813931552" y2="176.88999938964844" fill="rgb(0, 0, 0)" stroke="rgb(66, 66, 66)" stroke-width="1px" opacity="0.25"></line><line x1="202.5221807306463" y1="0" x2="202.5221807306463" y2="176.88999938964844" fill="rgb(0, 0, 0)" stroke="rgb(66, 66, 66)" stroke-width="1px" opacity="0.25"></line><line x1="227.8374533219771" y1="0" x2="227.8374533219771" y2="176.88999938964844" fill="rgb(0, 0, 0)" stroke="rgb(66, 66, 66)" stroke-width="1px" opacity="0.25"></line><line x1="253.15272591330788" y1="0" x2="253.15272591330788" y2="176.88999938964844" fill="rgb(0, 0, 0)" stroke="rgb(66, 66, 66)" stroke-width="1px" opacity="0.25"></line><line x1="278.4679985046387" y1="0" x2="278.4679985046387" y2="176.88999938964844" fill="rgb(0, 0, 0)" stroke="rgb(66, 66, 66)" stroke-width="1px" opacity="0.25"></line></g><g><line x1="0" y1="176.88999938964844" x2="278.4679985046387" y2="176.88999938964844" fill="rgb(0, 0, 0)" stroke="rgb(66, 66, 66)" stroke-width="1px" opacity="0.25"></line><line x1="0" y1="154.77874946594238" x2="278.4679985046387" y2="154.77874946594238" fill="rgb(0, 0, 0)" stroke="rgb(66, 66, 66)" stroke-width="1px" opacity="0.25"></line><line x1="0" y1="132.6674995422363" x2="278.4679985046387" y2="132.6674995422363" fill="rgb(0, 0, 0)" stroke="rgb(66, 66, 66)" stroke-width="1px" opacity="0.25"></line><line x1="0" y1="110.55624961853023" x2="278.4679985046387" y2="110.55624961853023" fill="rgb(0, 0, 0)" stroke="rgb(66, 66, 66)" stroke-width="1px" opacity="0.25"></line><line x1="0" y1="88.44499969482426" x2="278.4679985046387" y2="88.44499969482426" fill="rgb(0, 0, 0)" stroke="rgb(66, 66, 66)" stroke-width="1px" opacity="0.25"></line><line x1="0" y1="66.3337497711182" x2="278.4679985046387" y2="66.3337497711182" fill="rgb(0, 0, 0)" stroke="rgb(66, 66, 66)" stroke-width="1px" opacity="0.25"></line><line x1="0" y1="44.22249984741213" x2="278.4679985046387" y2="44.22249984741213" fill="rgb(0, 0, 0)" stroke="rgb(66, 66, 66)" stroke-width="1px" opacity="0.25"></line><line x1="0" y1="22.111249923706076" x2="278.4679985046387" y2="22.111249923706076" fill="rgb(0, 0, 0)" stroke="rgb(66, 66, 66)" stroke-width="1px" opacity="0.25"></line><line x1="0" y1="0" x2="278.4679985046387" y2="0" fill="rgb(0, 0, 0)" stroke="rgb(66, 66, 66)" stroke-width="1px" opacity="0.25"></line></g></g></g><g><g><line x1="0" y1="818.1162471771237" x2="278.4679985046387" y2="818.1162471771237" fill="rgb(0, 0, 0)" stroke="rgb(153, 153, 153)" stroke-width="1.5px"></line></g></g><g><g><line x1="25.31527259133079" y1="0" x2="25.31527259133079" y2="176.88999938964844" fill="rgb(0, 0, 0)" stroke="rgb(153, 153, 153)" stroke-width="1.5px"></line></g></g><g><g><g><g><g><path style="fill: none;" stroke="rgb(255, 112, 67)" stroke-width="2px" d="M35.1882289019498,197.99736089262106L35.4413816278631,175.78240657935117L35.56795799081976,170.0958017698457L35.82111071673307,155.0442746231115L35.94768707968972,128.71018175786278L36.20083980560303,143.86462402602078L36.32741616855969,163.31923866110287L36.70714525742964,131.92869837185296L36.83372162038629,113.9311036273388L37.46660343516957,142.56498152132534L37.97290888699618,126.03732163124776L38.099485249952835,142.3288500407399L38.4792143388228,166.87741866275374L38.858943427692765,167.86979483836282L38.98551979064942,175.96881521317403L39.23867251656272,124.87333866023819L39.36524887951938,81.92661033777786L39.87155433134599,80.80059239762765L40.1247070572593,104.35736596221676L40.75758887204257,125.09125998799774L41.26389432386919,137.02546788186189L41.39047068682584,131.5317252315371L41.643623412739146,120.97586076537695L41.896776138652456,116.85870507175073L42.02335250160911,108.36533042259029L42.149928864565766,120.8118610525677L42.403081590479076,127.25246631850206L42.65623431639237,287.66884224569645L42.782810679349026,218.91697411170074L43.542268857088956,130.55045838554759L43.66884522004561,152.34565221424836L43.921997945958914,282.14137854326833L44.04857430891557,206.07006757196442L44.428303397785534,174.68259471076567L45.31433793848211,132.6327882704212L45.56749066439542,131.85368608087182L45.69406702735208,91.98208868884822L45.94721975326539,92.67744759632467L46.20037247917869,96.94182592168242L46.45352520509199,84.47981011594204L46.95983065691861,81.08568419914168L47.08640701987527,65.35120143099654L47.21298338283192,139.1463646876347L47.59271247170188,118.97256495340781L47.719288834658535,120.8169526815865L47.84586519761519,128.45920550015316L47.972441560571845,156.33102396217868L48.225594286485155,106.51251138787225L48.35217064944181,113.18068095241169L48.73189973831177,95.368712843285L48.85847610126842,79.0959413055154L48.98505246422508,145.5972979465933L49.364781553095035,139.64843904118467L49.49135791605169,140.3610359384521L49.617934279008345,124.15634038840713L49.744510641965,77.20741392531455L50.12423973083496,64.74077872358212L50.50396881970492,91.46342037261616L50.63054518266158,105.46620737013863L50.75712154561823,101.83091100466672L51.01027427153154,79.20091365321355L51.13685063448819,75.64045167032191L51.263426997444846,76.56943405419892L51.3900033604015,94.33867256268094L51.64315608631481,115.7714201021927L51.89630881222812,86.7202025195197L52.14946153814143,61.38237887280932L52.402614264054726,72.81488264480893L52.655766989968036,65.6540850341572L52.78234335292469,38.40992233283108L53.035496078838,82.01799824373974L53.162072441794656,90.65920334805813L53.28864880475131,105.43493748213953L53.41522516770796,71.36612091335118L53.541801530664614,58.14086316134432L53.794954256577924,86.00064762565633L53.92153061953458,82.77798141911454L54.4278360713612,60.192010016571686L54.80756516023116,58.78833408384245L55.18729424910112,72.79177088349728L55.440446975014424,101.53424458238784L55.56702333797108,97.89873261551251L55.693599700927734,62.08693328143506L55.94675242684104,58.43146875274682L56.07332878979769,94.04790107526965L56.326481515711,63.664780114708584L56.45305787866766,48.85938298422435L56.57963424162431,31.927157649079305L56.70621060458097,16.931766743634405L57.339092419364235,21.056191416079837L57.46566878232089,34.7005725658846L57.592245145277545,13.32083551734999L57.97197423414751,28.149768715032717L58.098550597104165,18.92470369431336L58.22512696006081,29.416554750664236L58.35170332301747,-0.5688214078367575L58.60485604893077,14.348133311201474L59.617466952584,57.33101042144375L59.74404331554066,48.76434801552696L60.12377240441062,28.533446116410463L60.25034876736728,37.555872348106995L60.37692513032393,50.07513888723925L60.630077856237236,57.22046099040331L60.883230582150546,19.16383127542921L61.136383308063856,38.85034273254118L61.26295967102051,44.062504067503994L61.51611239693382,41.62124843656201L61.76926512284713,44.11864507446166L61.89584148580377,22.171135825984145L62.14899421171708,6.175020417412421L62.781876026500356,15.068776319895191L62.90845238945701,-0.7838987804942894L63.03502875241366,10.053152768451653L63.161605115370314,50.28833725025787L63.28818147832697,68.33011636329731L63.921063293110244,68.06839238501952L64.17421601902355,45.29756433103985L64.3007923819802,54.074999418284854L64.42736874493686,38.05009151719747L64.55394510789351,11.225554000022882L64.93367419676348,51.30426522199953L65.06025055972013,70.41497811080093L65.43997964859008,73.58696690857298L65.69313237450339,35.405211449643595L65.81970873746005,46.27664166954983L66.19943782633001,51.45813902373711L66.45259055224332,50.74338638361639L67.08547236702658,46.285813341419896L67.21204872998324,33.78273525207193L67.33862509293989,31.352906862455335L67.46520145589655,40.72257963008751L68.09808327067982,45.55083989740886L68.22465963363648,77.51328392047363L68.47781235954979,70.46101188655187L68.85754144841975,32.49696924386521L68.98411781137641,15.76003378213702L69.11069417433305,18.310144314144114L69.2372705372897,21.17629967831604L69.49042326320301,64.43224967121513L69.74357598911631,52.07925835532407L69.99672871502962,37.77863728726904L70.12330507798629,36.969199429069135L70.24988144094293,58.08971246280965L70.3764578038996,54.00305522533289L70.75618689276955,33.447382225315415L71.00933961868286,12.695189856769819L71.26249234459617,12.420185440705874L71.38906870755282,25.24190673431346L71.51564507050948,21.4905558858352L71.64222143346613,2.9107428452955637L71.76879779642279,28.20708183370856L71.89537415937944,44.97962656928197L72.02195052233608,34.891258956061854L72.78140870007601,49.45231619976854L73.16113778894598,50.21005644830023L73.28771415190263,33.324790586353686L73.79401960372925,41.36318529964811L74.1737486925992,-11.085777457084376L75.94581777399236,-18.462066403168635L76.19897049990567,6.186605391098864L76.32554686286232,14.83542063665459L76.57869958877563,30.580089478030136L77.08500504060224,13.246635823408337L77.21158140355891,55.42927255183146L77.59131049242886,39.66509747553126L77.71788685538553,52.65126890889385L77.84446321834217,50.17641977091139L77.97103958129884,55.620928909117396L78.35076867016879,36.422292720365455L78.73049775903876,45.94187961223229L78.85707412199541,52.5854632351307L79.23680321086536,89.74266350679768L79.36337957382202,99.54398913263556L79.86968502564864,86.261888211716L79.99626138860529,52.436275501380784L80.37599047747526,67.13412186814922L80.5025668404319,65.7082502724747L80.62914320338857,42.93931497946842L80.7557195663452,9.592080527645406L80.88229592930188,37.52019654072382L81.00887229225852,14.699426800726444L81.13544865521519,55.50107766561761L81.26202501817183,38.71066326547406L81.51517774408514,29.622544960892633L81.64175410704179,34.906148236952646L81.76833046999845,8.029056999161279L81.8949068329551,7.821748324681935L82.4012122847817,17.561323428366393L82.52778864773838,26.391863593358053L82.65436501069502,18.300260538475413L82.78094137365169,29.882582628483995L82.90751773660833,51.15531604398162L83.16067046252164,39.195815615813636L83.41382318843495,4.334303227907632L83.66697591434826,-9.244478684177274L84.29985772913153,-4.118173588299308L84.42643409208817,3.1903211239839626L84.67958681800148,3.016613217833529L84.93273954391479,7.536815737420769L85.43904499574141,23.12231893745632L85.56562135869805,32.32691907742611L85.94535044756803,52.07960421788004L86.07192681052467,79.53676739950929L86.19850317348134,56.57538318118366L86.32507953643798,67.70436921225816L86.45165589939464,52.57300293462792L86.57823226235129,65.12690736303547L86.70480862530795,90.72172481413286L86.95796135122126,74.72116778785579L87.08453771417791,55.96733414822139L87.21111407713457,56.56801905409098L87.33769044009122,61.59983894350551L87.59084316600453,67.97348205929363L87.9705722548745,81.10712629546366L88.47687770670112,61.88875065192049L88.85660679557107,70.41692157099752L88.98318315852771,92.36876539311946L89.10975952148438,62.1056434994496L89.48948861035433,51.310335637116005L89.74264133626764,63.3986333695609L89.86921769922431,35.233412005542604L89.99579406218095,30.505487154855267L90.1223704251376,-2.2968091007553655L90.24894678809426,2.4462994173840493L90.37552315105091,-1.1693350903787083L90.50209951400757,2.9968104968848475L90.88182860287753,15.50899450067703L91.00840496583419,44.12244625311352L91.13498132879084,43.479124599795576L91.26155769174748,31.15124401640138L91.64128678061746,33.79630206517449L92.52732132131403,41.392353144342025L92.90705041018398,36.77904547590842L93.03362677314065,37.303004958385756L93.28677949905396,38.333303047545456L93.4133558620106,15.610674108567123L93.53993222496727,-8.928136223669252L93.66650858792391,14.310578433532424L93.79308495088057,0.4117198500521385L94.04623767679388,18.30842705320899L94.17281403975053,20.830940822910673L94.29939040270719,13.181017716289027L94.5525431286205,18.9427859652547L94.67911949157715,16.75171240453211L95.0588485804471,27.43030253686657L95.31200130636041,25.391170689504886L95.56515403227372,39.15474290071167L95.69173039523038,50.54507572053641L95.81830675818703,55.36437696662483L96.57776493592695,36.0637550618644L96.70434129888362,22.797502860026853L96.83091766184026,34.2895177052509L97.33722311366688,14.637714198453512L97.71695220253685,16.110290704491206L97.97010492845016,25.91936521925592L98.34983401732012,16.834480544897534L98.85613946914673,47.05879943455791L99.36244492097335,32.69861963952627L99.48902128393,30.228571977993088L99.61559764688666,40.37817895438011L99.86875037279997,45.095036313446535L99.9953267357566,58.32571017438202L100.12190309871328,52.65091890998745L100.24847946166992,31.74053846991795L100.37505582462659,38.04324318431875L100.6282085505399,53.522988680200726L100.88136127645319,66.36029366454306L101.00793763940985,52.97057920113719L101.13451400236649,78.7104651134566L101.26109036532316,65.50432134194718L101.51424309123647,66.79722660092806L101.6408194541931,53.64163564501178L101.76739581714978,49.68012916785592L102.02054854306309,48.92291246364543L102.40027763193304,60.65735582249559L102.65343035784635,63.78829393219424L103.03315944671631,73.61266550072229L103.15973580967297,74.1346336003575L103.41288853558626,50.13848391967502L103.66604126149957,11.8253674447937L103.91919398741288,26.075478635171258L104.17234671332619,39.867524478506354L104.29892307628286,41.699555822104166L104.67865216515281,46.92299879759191L104.80522852810945,49.24353077889073L104.93180489106612,46.306218001951706L105.05838125402276,46.20044073432523L105.56468670584938,15.959003284086757L105.81783943176269,45.289573922254995L106.070992157676,53.26985070099255L106.45072124654597,51.19223850546811L106.57729760950262,70.14064624306918L106.70387397245928,56.64455101375942L106.83045033541592,69.14262605770668L106.95702669837259,87.11294587904796L107.08360306132923,106.76678927389142L107.58990851315585,84.76541139662994L107.84306123906916,58.58209920018943L107.96963760202581,67.19561284052538L108.09621396498247,35.929320721908944L108.22279032793911,39.53908919417344L108.34936669089578,39.86929074655062L108.72909577976573,32.336542064540005L108.8556721427224,28.157425706569935L108.98224850567904,41.66073554516728L109.86828304637562,56.85577465509071L110.24801213524559,53.83621489427914L110.88089395002885,70.15244984001518L111.0074703129855,35.571049182326895L111.13404667594216,60.88561881196527L111.51377576481212,64.22578266870967L111.76692849072543,74.6722025664614L111.89350485368207,71.01245383851193L112.02008121663874,76.2553147840144L112.3998103055087,67.79147379492909L113.03269212029197,46.60657053292624L113.28584484620528,69.88406137152712L113.41242120916193,45.81854640670667L113.53899757211859,53.88742774359873L113.66557393507524,43.56518652540432L113.91872666098855,20.577745909460873L114.2984557498585,44.972659516632234L114.42503211281516,46.259471566148704L114.67818483872847,22.431165344650324L115.18449029055509,3.6853452242088234L115.31106665351173,21.120170388582306L115.56421937942504,39.32507225875341L115.94394846829502,49.40609656752639L116.19710119420833,52.28509235688793L116.45025392012163,42.727417970744675L116.57683028307828,47.63983683590424L116.70340664603494,42.747694324523515L116.95655937194823,21.897922106494253L117.20971209786154,29.102378321825192L117.33628846081821,41.54124315747194L117.46286482377485,32.023340746756006L117.58944118673152,49.976479965039736L117.71601754968816,38.05117101627557L117.96917027560147,43.195739547066864L118.09574663855813,37.30697602756022L118.22232300151478,39.10046650821144L118.85520481629806,23.594578352072407L118.9817811792547,36.770958199493286L119.10835754221137,49.120477284286316L119.36151026812468,44.271470003141594L119.48808663108132,50.5853838873801L119.61466299403799,54.15856117240861L119.74123935699463,72.50596066063864L120.6272738976912,62.686184756050054L121.00700298656118,49.445671313991475L121.13357934951782,41.59108814082457L121.38673207543113,63.328624897644325L122.0196138902144,65.83248919410079L122.14619025317106,48.34608952689982L122.27276661612771,53.45408726559292L122.65249570499766,80.70521637984004L122.77907206795433,84.64062573946661L123.03222479386764,52.102557466710074L123.15880115682428,51.65455377497146L123.28537751978095,44.233654945926794L123.53853024569426,29.860157365213617L123.6651066086509,42.24460984955741L123.91825933456421,63.84590994622538L124.04483569752085,37.80417561672708L124.17141206047752,60.99427093627603L124.29798842343416,53.43341852579028L124.42456478639083,32.479065307086316L124.55114114934747,37.91443953981008L125.18402296413075,41.60630138750961L125.3105993270874,57.796297120270964L125.56375205300071,68.91217483010179L125.81690477891402,82.61191560792085L126.07005750482732,79.72042344064532L126.19663386778399,76.56667289052568L126.57636295665394,68.85177260810589L126.7029393196106,94.1863916123236L127.20924477143721,66.21394886175861L127.33582113439387,66.61110254453364L127.46239749735051,38.80774065993799L127.58897386030718,33.75449127985046L127.96870294917713,44.776411920049576L128.3484320380471,47.40824626728336L128.98131385283037,42.860032941935486L129.10789021578702,73.46368093730877L129.36104294170033,74.35150945041731L129.487619304657,41.7467479416859L129.61419566761364,34.451466279553L129.86734839352695,38.226652475653836L129.99392475648358,39.78290591557833L130.12050111944026,57.98723416095806L130.2470774823969,52.27730328967547L130.7533829342235,72.32750957046963L130.87995929718016,72.17195973644951L131.13311202309347,82.0780947640172L131.25968838605013,74.31320400998378L131.38626474900678,68.29213815261863L131.6394174749201,56.36201168693724L131.76599383787675,38.101940684063656L132.1457229267467,42.63524010209623L132.39887565266002,49.03752510601112L133.0317574674433,44.02628610515503L133.15833383039995,26.888431007565824L133.53806291926992,10.235208438303417L133.91779200813986,17.6794889224003L134.29752109700985,30.02139339164433L134.42409745996648,41.4352038597854L134.55067382292313,35.54919785029103L134.9304029117931,49.0478848454983L135.05697927474975,63.884793285548795L135.56328472657637,52.60695610271518L135.68986108953303,34.99575118589473L136.95562471909957,36.145728489392226L137.20877744501288,54.07849847765228L137.3353538079695,47.29151418649052L137.4619301709262,58.51734390517298L137.58850653388282,61.01736291827517L137.84165925979613,61.86810771584701L138.09481198570944,47.08133560439446L138.34796471162275,49.704138075353L138.72769380049272,17.61266048915558L138.98084652640603,21.924422762590684L139.10742288936268,6.6002197159177545L139.48715197823262,7.136283356725032L139.6137283411893,28.108374309092078L139.8668810671026,34.31110307750445L140.12003379301592,56.35047243424654L140.24661015597258,81.689653604695L140.37318651892923,74.106877543096L140.62633924484254,76.49953572899955L140.7529156077992,54.74770918529542L141.00606833371248,65.33980764432224L141.13264469666916,47.63405588056634L141.38579742258244,15.16538762206941L141.63895014849578,16.672346637315187L141.7655265114524,0.10311067424919704L142.01867923736572,33.30842458556043L142.27183196327903,37.061795644190106L142.77813741510565,59.39445999355644L142.9047137780623,68.64054468647174L143.03129014101896,70.45642020863401L143.15786650397558,55.37737236271267L143.28444286693227,43.45018581492615L143.41101922988892,49.4268778709287L143.53759559284558,48.128274197720245L143.7907483187589,63.95154876154613L144.2970537705855,29.80189208652067L144.5502064964988,29.858634452651906L144.67678285945544,17.200814487437196L145.0565119483254,25.47829776320025L145.56281740015203,10.750690549487967L145.942546489022,13.970410414184663L146.1956992149353,-10.984396194125765L146.95515739267523,-1.9370105245540226L147.0817337556319,12.40016554475173L147.20831011858854,11.60037793107025L147.33488648154517,19.137081806529352L147.46146284450185,0.5893055785459289L147.5880392074585,8.072049627658487L147.8411919333718,21.970305174118092L147.96776829632847,59.50251208053936L148.3474973851984,60.02262116591719L148.9803791999817,31.77127858529339L149.233531925895,23.06959615737401L149.36010828885165,25.02164372419281L149.61326101476496,29.078829662277567L149.7398373777216,-3.4459330262998984L151.00560100728813,-10.90437387891058L151.25875373320147,7.650246773698563L151.3853300961581,17.09682380231537L151.51190645911475,37.603348256840704L151.7650591850281,49.67176408240705L151.89163554798472,43.992513467641864L152.14478827389803,55.07446827778363L152.2713646368547,68.46239175335268L152.39794099981134,75.99350883342679L152.524517362768,98.8069264222061L152.65109372572465,93.28381269363557L152.7776700886813,89.48070656674572L153.41055190346458,85.1796216239185L153.66370462937786,65.15647272708316L153.9168573552912,65.3801941029155L154.04343371824785,78.88866540551251L154.17001008120448,80.59496110168183L154.80289189598778,57.101490837722864L155.30919734781438,38.15330582037988L155.56235007372769,58.54793442710947L155.68892643668434,54.521711154212376L156.44838461442427,32.841252103500175L156.57496097738093,43.10641172050386L156.70153734033758,61.43637806753114L156.82811370329424,60.99583641796616L156.9546900662509,66.22444612502183L157.4609955180775,55.58859851706873L157.71414824399082,45.43716840024911L157.84072460694745,61.38004469493441L158.6001827846874,52.06063123250841L158.72675914764403,54.46255375682964L159.10648823651402,38.47194258824186L159.3596409624273,33.48665186448531L159.48621732538396,52.589414983458425L159.61279368834064,75.20734573910231L159.86594641425393,77.19477877845979L160.2456755031239,61.64497439382861L160.37225186608055,77.0046829330475L160.4988282290372,49.77389842062146L160.7519809549505,63.88674869140198L160.87855731790717,70.96569465487532L161.0051336808638,86.66723019365854L161.13171004382048,92.10006457514173L161.25828640677713,95.61179620520677L161.3848627697338,85.614430613424L161.76459185860375,73.92852853471547L161.8911682215604,53.22684549474652L162.1443209474737,45.26049205130676L162.27089731043037,83.91887251524328L162.397473673387,87.63413118270344L162.777202762257,75.14271061257266L162.90377912521362,78.37777449371357L163.03035548817027,73.02349377198586L163.5366609399969,82.87339353890715L163.66323730295355,34.12988783835649L163.7898136659102,33.10598481684345L164.42269548069348,56.503964119068605L164.67584820660676,81.09148901113176L164.9290009325201,64.42768173764694L165.05557729547675,59.50563322377944L165.18215365843338,42.97244153800461L165.56188274730337,34.94197881889992L165.68845911026,25.883056071196446L165.81503547321665,39.14611688642616L165.94161183617334,22.7138809757046L166.06818819912996,24.111333714351662L166.19476456208662,30.49098695281922L166.32134092504327,33.641761884209245L166.44791728799996,44.02975401251424L166.70107001391324,73.98804596704814L167.0807991027832,60.100372946200544L167.3339518286965,72.67320507311138L167.46052819165314,58.61138229546328L167.84025728052313,43.334173161324145L167.96683364347976,29.389738863299204L168.2199863693931,46.79993271181L168.34656273234972,55.86900915564411L168.47313909530638,60.01592831828518L168.59971545826306,60.8562626676249L168.72629182121972,52.50108436912274L168.979444547133,49.71522123256758L169.10602091008968,60.19797851263992L169.23259727304634,57.28202764992897L169.35917363600296,46.62856371252635L169.6123263619163,30.28022754404344L169.99205545078624,57.8483174030954L170.3717845396562,40.433856077049214L170.49836090261286,53.05050740527524L170.75151362852617,63.014033583852246L170.87808999148282,57.56452977662458L171.00466635443948,24.358807850707922L171.1312427173961,21.87521567297115L171.2578190803528,22.790467690211344L171.38439544330944,25.450462883121148L171.63754816922273,13.538825595277322L172.14385362104935,17.857377039163108L172.27042998400603,23.163429204882792L172.5235827099193,34.13718439429954L172.77673543583265,48.82512406422232L173.02988816174593,54.63768147518003L173.15646452470259,27.25209305960737L173.91592270244251,22.14465399721304L174.04249906539917,18.62165524179184L174.29565179131245,35.14594074235389L174.42222815426913,44.45063581980093L174.5488045172258,50.08595932484715L175.0551099690524,67.62671139507987L175.3082626949657,49.00470095890881L175.56141542087903,65.51260444256367L175.8145681467923,58.13057558820387L175.941144509749,38.18559433109291L176.06772087270565,50.02020498891871L176.44744996157561,41.774830713336975L176.57402632453224,51.899258235409064L176.7006026874889,35.526750011633126L176.95375541340223,63.38084649341171L177.08033177635886,68.8802654795472L177.46006086522885,70.32045019497201L177.58663722818548,64.44903673520984L177.96636631705542,50.050097829360595L178.0929426800121,32.874765840882674L178.21951904296876,19.110614069503885L178.47267176888204,17.927378843546016L178.97897722070866,30.28266829591062L179.10555358366534,48.30516203126819L179.232129946622,43.48396403626851L179.48528267253528,29.972414969378498L179.61185903549196,37.518082570010264L180.11816448731858,44.0811943772466L180.2447408502752,45.94056483141573L180.49789357618852,52.28036886313023L180.87762266505848,50.40520333098254L181.00419902801514,42.467043076816594L181.3839281168851,33.77613664939353L181.51050447984176,20.319280751248076L182.143386294625,34.52429019499887L182.39653902053834,32.44347948634222L182.52311538349497,30.068360503351894L182.64969174645162,8.59843192154086L182.7762681094083,24.049550255289L182.90284447236496,33.96917156186005L183.0294208353216,44.8810333792195L183.15599719827824,53.03037767272102L183.5357262871482,65.0869893231506L183.66230265010486,66.77770819887583L183.78887901306155,48.79386889942253L183.91545537601817,44.10285472193254L184.16860810193148,46.12780235036835L184.4217608278448,31.836643710472956L184.54833719080145,18.52363074808526L184.9280662796714,25.75491488071578L185.05464264262807,56.45182213186275L185.43437173149803,63.30382691741422L185.81410082036797,35.66658841431726L186.3204062721946,18.88619685504314L186.95328808697786,66.26443477257152L187.07986444993455,48.985011417168444L187.20644081289117,59.40586631008667L187.45959353880448,56.644222263047475L187.7127462647178,54.42425694682438L188.09247535358776,44.647214872335205L188.4722044424577,33.425162157222516L188.72535716837103,35.3790292087174L189.105086257241,38.23674349917899L189.48481534611093,46.55004217927147L189.73796807202427,48.57984125012458L189.8645444349809,35.925429988568155L190.1176971608942,54.65973243202349L190.2442735238509,65.33303327614122L190.7505789756775,67.64239566462584L191.2568844275041,61.82446437169468L191.76318987933072,55.03608912791744L191.88976624228738,42.86433285420004L192.52264805707065,27.90486743044415L192.77580078298396,42.55230780297963L192.90237714594062,43.986008917160234L193.1555298718539,37.039742237106715L193.28210623481056,32.2943479239217L193.53525896072387,36.673897860166335L194.42129350142048,52.87792127334633L195.56048076803035,51.37536121528842L195.687057130987,25.96193357930666L195.9402098569003,23.062784534291836L196.06678621985697,4.293489505795735L196.4465153087269,5.293667738805058L196.57309167168358,26.50125228079755L196.82624439759687,30.139908283410552L197.3325498494235,27.834622066862757L197.58570257533682,41.65829073999559L198.09200802716342,45.18079355340511L198.21858439012007,50.025537825553606L198.34516075307673,44.73756011611421L198.47173711603338,53.7830053146518L198.59831347899004,55.086006090583L199.10461893081663,31.30334523562317L199.2311952937733,24.18995728822426L199.4843480196866,19.76309775431879L199.61092438264325,17.332232632582635L200.11722983446987,25.13062329379747L200.24380619742655,27.17123977737178L200.75011164925317,31.38428150717009L200.8766880122098,22.876429820069543L201.38299346403642,46.98728235951749L201.76272255290638,49.4696691686776L202.14245164177635,67.94333799743298L202.26902800473297,78.15373904144899L202.5221807306463,76.38132134321434L202.64875709360297,76.74882987251151L203.02848618247293,66.16698515834999L203.2816389083862,88.18973267908359L204.29424981203945,65.04025471601241L204.67397890090942,68.63705320769982L204.80055526386607,68.26138991581539L205.05370798977938,65.43068050944484L205.3068607156927,65.00784550510383L205.43343707864932,50.18644898277241L206.57262434525924,33.31642501310487L206.6992007082159,46.30414783217244L206.82577707117252,38.08393535098026L206.95235343412918,19.727762053777212L207.20550616004252,31.91341473373591L207.4586588859558,33.242486146650734L207.58523524891248,28.190182335516358L207.7118116118691,19.592187614582393L207.83838797482576,30.364208792458303L208.21811706369573,64.1993546599338L208.47126978960904,58.21284119356669L208.59784615256572,49.47848429969358L208.72442251552235,53.20472915957727L208.850998878479,52.378527150087045L208.97757524143566,56.32970233426907L209.10415160439229,72.54119427369966L209.23072796734897,72.87818442830134L209.48388069326228,80.35842737485787L209.6104570562189,98.72282818991748L209.7370334191756,73.23899976236385L209.86360978213224,71.88370594315761L209.9901861450889,51.88878163875812L210.11676250804553,74.66409218443685L210.2433388710022,78.15907270229518L210.36991523395886,69.58021168127449L210.4964915969155,75.73272778023136L210.62306795987215,75.11718957715495L210.74964432282883,56.904063337342876L211.50910250056873,61.697338247409L211.8888315894387,50.878733145162066L212.01540795239535,35.25844715236194L212.2685606783087,48.67972987714293L212.39513704126531,61.242593434561776L212.90144249309193,73.77114534805524L213.0280188560486,55.369738978389194L213.15459521900524,39.669442500662036L213.28117158196187,48.177120439579525L213.66090067083184,57.29920932674782L213.7874770337885,68.7640611038177L213.91405339674517,52.66795937234656L214.04062975970183,50.406476175594605L214.16720612265846,63.37206185485854L214.4203588485718,49.29864694081967L214.54693521152845,78.2936640432052L215.05324066335504,47.182909394657926L215.1798170263117,71.1013664663073L215.30639338926835,61.62060263792709L215.55954611518166,45.94132505469314L215.93927520405163,30.027259375019618L216.44558065587822,62.32423223928789L216.5721570188349,47.801315216373105L216.69873338179156,37.879473629772825L216.95188610770484,43.58050400666299L217.20503883361818,49.44163929705386L217.3316151965748,48.78165310417472L218.21764973727142,41.26397212917258L218.59737882614138,61.35957698837848L218.85053155205466,49.48658369017186L219.10368427796797,86.70607350032077L219.48341336683794,73.83606690510243L219.6099897297946,87.45173880222393L219.98971881866456,70.36486058261627L220.11629518162118,78.26917181013502L220.36944790753452,88.65915501415773L220.49602427049118,85.45298977057023L221.00232972231777,79.35859085882122L221.2554824482311,90.95821968146268L221.38205881118776,82.88592505740598L221.7617879000577,70.3147362745527L221.88836426301438,71.88980116733079L222.014940625971,75.87983513576886L222.26809335188432,72.64010229377809L222.52124607779763,65.59883437254848L222.9009751666676,50.67798083416542L223.1541278925809,54.66858488075129L223.4072806184942,47.11801318469228L223.53385698145087,65.31292935215977L223.66043334440752,53.30775227826601L223.91358607032083,50.33611833511748L224.16673879623414,48.928232300629226L224.29331515919077,66.5868188567338L224.41989152214745,74.52335159719463L224.5464678851041,74.09651552660002L224.92619697397404,76.81143596251951L225.17934969988735,93.30882555594316L225.305926062844,100.6013785336162L225.43250242580066,97.72536773888746L225.55907878875735,78.60820935658396L225.68565515171397,72.08096512024467L226.06538424058394,55.6400779922696L226.6982660553672,64.41871241970799L227.3311478701505,47.28050154977167L227.45772423310711,52.90382676344954L227.5843005960638,43.56339349042606L228.0906060478904,48.106249146545125L228.21718241084707,65.51285270638816L228.3437587738037,88.50337018459217L229.2297933145003,95.07262327571377L229.35636967745694,94.82652147214093L229.60952240337025,96.25894631536949L229.7360987663269,77.72177737995258L229.86267512928356,87.08127551120026L229.98925149224021,78.5316175166762L230.49555694406683,56.72478038978124L230.74870966998014,63.500919223391584L231.00186239589345,62.84479581220233L231.25501512180674,66.25746044764283L231.38159148476342,50.5392564692864L231.76132057363336,55.683852853458234L231.88789693659004,63.47506285097538L232.39420238841666,59.567260260525195L232.52077875137329,46.557378274753155L232.64735511432994,79.06582363185849L232.7739314772866,83.13551028319284L233.0270842031999,48.69134534047206L233.15366056615656,48.76814490060157L233.78654238093984,36.82002036907811L233.91311874389646,53.77754706285046L234.1662714698098,49.90749214750202L234.41942419572308,60.110990870228754L234.54600055867976,60.44329359025773L234.67257692163642,80.18062367623583L234.79915328459305,88.34659962852007L235.05230601050638,73.79469316366888L235.30545873641967,64.7529598757632L235.8117641882463,78.10975426652418L236.06491691415962,74.81065016198995L236.3180696400729,54.2190820446387L236.69779872894287,56.265123416236314L236.82437509189953,36.3274791340726L237.33068054372615,57.55896959152463L237.7104096325961,79.0975878458618L237.9635623585094,89.06131344539239L238.09013872146605,68.95674409364432L238.21671508442273,90.60093476198777L238.34329144737939,87.34939456561649L238.72302053624935,105.37804250095199L238.849596899206,99.34268240396241L238.97617326216263,113.22302877107525L239.1027496251193,104.5862522162289L239.22932598807597,65.21611349574519L239.3559023510326,83.7955164550253L239.7356314399026,91.13911802393528L239.86220780285922,77.67018264147957L239.98878416581587,60.95638005699971L240.24193689172915,51.879625187789664L240.36851325468584,52.99205068129595L240.4950896176425,49.375653739220745L240.62166598059915,53.443625026920614L240.87481870651246,66.9587790431911L241.12797143242577,69.79563257763611L241.50770052129573,70.83894679513122L241.760853247209,65.0150756929798L241.8874296101657,65.50027867942623L242.01400597312235,65.33305493569009L242.14058233607898,65.57061767429015L242.6468877879056,65.93077244697886L242.90004051381894,83.11648881056038L243.02661687677556,95.52642675654867L243.40634596564556,104.37597783573929L243.53292232860218,67.50916813124068L243.65949869155884,51.6740421395509L243.7860750545155,75.04698613020334L244.41895686929874,86.4145794154068L245.43156777295198,76.87815049743239L245.55814413590866,80.26181980213639L245.68472049886532,89.16391485776099L246.06444958773528,67.66435526540886L246.31760231364856,59.31366099439284L246.44417867660522,75.14514544763011L246.5707550395619,62.653698659114184L246.69733140251853,72.41346504747578L246.82390776547518,92.59922307757465L246.95048412843184,86.57899579352764L247.07706049138852,72.49399289067027L247.3302132173018,65.12310593662221L247.45678958025846,76.23356573144284L247.83651866912842,79.48032159130462L248.46940048391167,73.74351717756687L248.59597684686833,85.7952469784861L248.84912957278166,83.47514917436301L248.9757059357383,72.70484655576156L249.22885866165163,70.88569092115779L250.11489320234818,67.32086921126029L250.24146956530487,74.05761311734886L250.3680459282615,66.63389368816726L250.74777501713146,81.59376693794057L250.87435138008811,72.42303706457749L251.25408046895805,81.1509459356548L251.38065683191473,82.33533135035142L251.5072331948714,67.00298320191503L251.63380955782804,48.374447611846456L251.88696228374135,53.67691056464218L252.013538646698,66.9914178862406L252.2666913726113,67.52650363660032L252.51984409852463,67.84647965332721L252.7729968244379,76.24826125721243L252.8995731873946,85.18490879434941L253.27930227626453,86.37482690050996L253.4058786392212,77.23361070612621L253.53245500217784,70.51763616623548L253.6590313651345,98.66141556645081L253.78560772809115,119.48313716820152L254.29191317991777,104.31907839848114L254.54506590583108,107.8615203220074L255.0513713576577,89.12399752912049L255.304524083571,80.510834386146L255.55767680948432,63.794235827290414L255.68425317244098,56.225037210143256L256.19055862426757,34.00280104744819L256.57028771313753,31.806311170496677L256.6968640760942,38.488250664655816L256.9500168020075,49.00768805156131L257.07659316496415,45.7435009157154L257.32974589087746,40.32723801099157L257.4563222538341,26.609463729894063L257.58289861679077,34.285325026980146L257.8360513427041,32.570308321362404L257.96262770566074,41.0178073333056L258.0892040686174,39.54433939253428L258.8486622463573,55.970436066207256L258.975238609314,56.064721682112264L259.10181497227063,67.73420343009576L259.2283913352273,103.93443887715149L259.35496769818394,83.38160925719605L259.60812042409725,71.49539399282192L259.7346967870539,62.948099145703324L259.98784951296716,78.83601217393799L260.3675786018372,80.72978722341925L260.87388405366374,67.79326700760963L261.38018950549036,89.29868684581984L261.506765868447,112.11068769889317L261.63334223140373,86.02595387922234L261.75991859436033,97.86222356614317L262.26622404618695,79.96471153734288L262.3928004091436,82.32772551652135L262.51937677210026,80.63597068805802L262.64595313505697,83.4078775834018L262.77252949801357,70.18128658826868L262.8991058609702,61.903006750804366L263.0256822239269,75.28072004203771L263.2788349498402,75.55547581990946L263.40541131279684,72.6443997258558L263.7851404016668,92.63863313430784L263.91171676462346,87.76851716424497L264.1648694905368,107.29272666811781L264.4180222164501,68.0879860134769L264.6711749423634,62.95528623797636L264.79775130532005,89.82172339348624L265.30405675714667,79.09743732594274L265.8103622089733,91.62952700050226L266.0635149348866,80.00123579469725L266.19009129784325,63.71357966251001L266.6963967496699,69.15451094343564L266.9495494755832,64.46465754137067L267.07612583853984,51.06788953479345L267.2027022014965,67.0404207176254L267.58243129036646,78.48599979611319L267.9621603792364,93.68245309353505L268.2153131051497,74.02499338202115L268.7216185569763,57.953877047389135" fill="none"></path></g></g></g></g><g opacity="0.2"><g><g><g><path style="fill: none;" stroke="rgb(255, 112, 67)" stroke-width="2px" d="M34.428770724209876,199.34313172818472L35.1882289019498,162.02110868875658L35.4413816278631,142.45997515398994L35.56795799081976,161.56589456242907L35.82111071673307,132.46698391387508L35.94768707968972,89.20904247139515L36.20083980560303,166.59628742431957L36.32741616855969,192.50116061069272L36.70714525742964,84.84288794091482L36.83372162038629,86.93471151157793L37.46660343516957,185.51579836134076L37.97290888699618,101.24583179646561L38.099485249952835,166.76614265478017L38.4792143388228,203.70027159559592L38.858943427692765,169.35835910177227L38.98551979064942,188.11734577536933L39.23867251656272,48.23012383091466L39.36524887951938,17.506517854128145L39.87155433134599,79.11156548740293L40.1247070572593,139.6925263090925L40.75758887204257,156.19210102666509L41.26389432386919,154.92677972265662L41.39047068682584,123.2911112560505L41.643623412739146,105.14206406613721L41.896776138652456,110.68297153131152L42.02335250160911,95.62526844884997L42.149928864565766,139.48165699753372L42.403081590479076,136.91337421740354L42.65623431639237,528.2934061364875L42.782810679349026,115.78917191070741L43.542268857088956,-1.9993152036822328L43.921997945958914,476.8349680367981L44.04857430891557,91.96310111500861L44.428303397785534,127.60138541896777L45.31433793848211,69.55807860990446L45.56749066439542,130.6850327965476L45.69406702735208,32.174692600812726L45.94721975326539,93.7204859575395L46.20037247917869,103.33839340971917L46.45352520509199,65.78678640733143L46.95983065691861,75.99449532394102L47.08640701987527,41.749477278778635L47.21298338283192,249.83910957259192L47.59271247170188,88.71186535206743L47.719288834658535,123.58353427385464L47.84586519761519,139.92258472800313L47.972441560571845,198.13875165521674L48.225594286485155,31.78474252641265L48.35217064944181,123.18293529922084L48.73189973831177,68.65076067959491L48.85847610126842,54.68678399886087L48.98505246422508,245.34933290821024L49.364781553095035,130.72515068307166L49.49135791605169,141.4299312843532L49.617934279008345,99.84929706333969L49.744510641965,6.78402423067568L50.12423973083496,46.0408259209835L50.50396881970492,131.54738284616724L50.63054518266158,126.47038786642224L50.75712154561823,96.37796645645903L51.01027427153154,45.25591762603383L51.13685063448819,70.29975869598458L51.263426997444846,77.96290763001436L51.3900033604015,120.992530325404L51.64315608631481,147.92054141146036L51.89630881222812,43.14337614551007L52.14946153814143,23.3756434027437L52.402614264054726,89.96363830280825L52.655766989968036,54.91288861817977L52.78234335292469,-2.4563217191580016L53.035496078838,147.43011211010253L53.162072441794656,103.62101100453583L53.28864880475131,127.59853868326172L53.41522516770796,20.262896060168753L53.541801530664614,38.302976533334025L53.794954256577924,127.79032432212443L53.92153061953458,77.94398210930196L54.4278360713612,26.313052912757524L54.80756516023116,56.6828201847484L55.18729424910112,93.79692608297955L55.440446975014424,144.64795513072386L55.56702333797108,92.44546466519932L55.693599700927734,8.369234280318818L55.94675242684104,52.948271959714496L56.07332878979769,147.47254955905373L56.326481515711,18.09009867386707L56.45305787866766,26.65128728849781L56.57963424162431,6.528819646361665L56.70621060458097,-5.561319614533165L57.339092419364235,27.24282842474808L57.46566878232089,55.16714429059177L57.592245145277545,-18.748770055452002L57.97197423414751,50.393168511556745L58.098550597104165,5.087106163234278L58.22512696006081,45.154331335190385L58.35170332301747,-45.54688564558815L58.60485604893077,36.723565389758754L59.617466952584,121.80532608680733L59.74404331554066,35.91435440665193L60.12377240441062,-1.8129067322642702L60.25034876736728,51.08951169565173L60.37692513032393,68.85403869593758L60.630077856237236,67.93844414514935L60.883230582150546,-37.921113297032164L61.136383308063856,68.38010991820921L61.26295967102051,51.88074606994817L61.51611239693382,37.95936499014899L61.76926512284713,47.86474003131118L61.89584148580377,-10.750128046732204L62.14899421171708,-17.819152695445116L62.781876026500356,28.409410173619147L62.90845238945701,-24.562911431078607L63.03502875241366,26.30873009187057L63.161605115370314,110.6411139729671L63.28818147832697,95.39278503285641L63.921063293110244,67.67580641760289L64.17421601902355,11.141322250070555L64.3007923819802,67.24115204915235L64.42736874493686,14.012729665566479L64.55394510789351,-29.011252275738986L64.93367419676348,111.4223320549645L65.06025055972013,99.08104744400316L65.43997964859008,78.34495010523098L65.69313237450339,-21.867421738750597L65.81970873746005,62.583786999409334L66.19943782633001,59.230385055017926L66.45259055224332,49.67125742343526L67.08547236702658,39.5994537781253L67.21204872998324,15.0281181180499L67.33862509293989,27.70816427803042L67.46520145589655,54.777088781535916L68.09808327067982,52.7932302983909L68.22465963363648,125.45694995507074L68.47781235954979,59.88260383566924L68.85754144841975,-24.449094720164755L68.98411781137641,-9.345369410455493L69.11069417433305,22.13531011215495L69.2372705372897,25.475532724573934L69.49042326320301,129.31617466056377L69.74357598911631,33.54977138148754L69.99672871502962,16.327705685186668L70.12330507798629,35.75504264176927L70.24988144094293,89.7704820134204L70.3764578038996,47.87306936911775L70.75618689276955,2.613872725289223L71.00933961868286,-18.433098696048507L71.26249234459617,12.007678816609808L71.38906870755282,44.474488674724874L71.51564507050948,15.863529613117901L71.64222143346613,-24.958976715513888L71.76879779642279,66.15159031632813L71.89537415937944,70.13844367264211L72.02195052233608,19.758707536231707L72.78140870007601,71.29390206532845L73.16113778894598,51.346666821097664L73.28771415190263,7.9968917934339L73.79401960372925,53.420777369589835L74.1737486925992,-89.75922159218308L74.30032505555587,-76.36438118334618L74.80663050738248,0.2507130679778522L74.93320687033913,-33.853233407751716L75.05978323329579,-14.883641009235323L75.18635959625244,13.840660307334513L75.3129359592091,-20.416113701947285L75.56608868512241,-41.33772331756332L75.69266504807905,34.49014307638392L75.81924141103572,-21.495870011784024L75.94581777399236,-28.60374733115164L76.19897049990567,43.159613082500094L76.32554686286232,27.80864350498818L76.57869958877563,54.19709274009349L77.08500504060224,-12.753544658524294L77.21158140355891,118.7032276444661L77.59131049242886,16.018834861080943L77.71788685538553,72.13052605893792L77.84446321834217,46.464146063937754L77.97103958129884,63.787692616426305L78.35076867016879,7.624338437237423L78.73049775903876,60.22125995003264L78.85707412199541,62.550838669478274L79.23680321086536,145.47846391429812L79.36337957382202,114.24597757139236L79.86968502564864,66.33873683033654L79.99626138860529,1.6978564358778778L80.37599047747526,89.18089141830205L80.5025668404319,63.56944287896297L80.62914320338857,8.78591203995897L80.7557195663452,-40.42877115008919L80.88229592930188,79.41237056034153L81.00887229225852,-19.531727809269757L81.13544865521519,116.70355396295417L81.26202501817183,13.525041665258907L81.51517774408514,15.990367504020508L81.64175410704179,42.83155315104252L81.76833046999845,-32.28657985752575L81.8949068329551,7.510785312963019L82.4012122847817,32.17068608389311L82.52778864773838,39.63767384084533L82.65436501069502,6.1628559561514L82.78094137365169,47.25606576349676L82.90751773660833,83.06441616722806L83.16067046252164,21.25656497356162L83.41382318843495,-47.95796535395125L83.79355227730491,-28.31158789998695L84.17328136617486,21.999510275511096L84.29985772913153,-8.310950002603892L84.42643409208817,14.153063192408847L84.67958681800148,2.7560513586077313L84.93273954391479,14.31711951680158L85.43904499574141,46.500573737509534L85.56562135869805,46.13381928738092L85.94535044756803,81.70863192856088L86.07192681052467,120.72251217195299L86.19850317348134,22.133306853695142L86.32507953643798,84.39784825887001L86.45165589939464,29.875953518182563L86.57823226235129,83.95776400564684L86.70480862530795,129.1139509907789L86.95796135122126,50.720332248440194L87.08453771417791,27.836583688769718L87.21111407713457,57.46904641289532L87.33769044009122,69.1475687776274L87.59084316600453,77.5339467329759L87.9705722548745,100.80759264971857L88.47687770670112,33.06118718660584L88.85660679557107,83.20917794961316L88.98318315852771,125.2965311263024L89.10975952148438,16.710960658944753L89.48948861035433,35.11737384361552L89.74264133626764,81.53107996822838L89.86921769922431,-7.014420040484726L89.99579406218095,23.413599878824282L90.1223704251376,-51.50025348417144L90.24894678809426,9.56096219459327L90.37552315105091,-6.592786852022943L90.50209951400757,9.24602887778023L90.88182860287753,34.27727050636533L91.00840496583419,87.04262388176814L91.13498132879084,42.514142119818665L91.26155769174748,12.65942314131011L91.64128678061746,37.763889138334L92.52732132131403,52.78642976309313L92.90705041018398,29.85908397325786L93.03362677314065,38.08894418210186L93.28677949905396,39.87875018128491L93.4133558620106,-18.473269299900455L93.53993222496727,-45.73635172202371L93.66650858792391,49.1686504193349L93.79308495088057,-20.436568025168487L94.04623767679388,45.15348785794415L94.17281403975053,24.6147114774631L94.29939040270719,1.70613305635656L94.5525431286205,27.58543833870321L94.67911949157715,13.465102063448324L95.0588485804471,43.448187735368286L95.31200130636041,22.33247291846241L95.56515403227372,59.80010121752186L95.69173039523038,67.63057495027353L95.81830675818703,62.59332883575737L96.57776493592695,7.1128222047237095L96.70434129888362,2.89812455727046L96.83091766184026,51.52753997308721L97.33722311366688,-14.839991061742655L97.71695220253685,18.319155463547798L97.97010492845016,40.63297699140278L98.34983401732012,3.207153533359854L98.85613946914673,92.39527776904833L99.36244492097335,11.158349946978927L99.48902128393,26.523500485693187L99.61559764688666,55.602589418960655L99.86875037279997,52.17032235204626L99.9953267357566,78.17172096578544L100.12190309871328,44.138732013395405L100.24847946166992,0.374967809813864L100.37505582462659,47.49730025592L100.6282085505399,76.74260692402369L100.88136127645319,85.61625114105665L101.00793763940985,32.886007506028385L101.13451400236649,117.32029398193572L101.26109036532316,45.69510568468288L101.51424309123647,68.73658448939933L101.6408194541931,33.908249211137466L101.76739581714978,43.73786945212216L102.02054854306309,47.78708740732966L102.40027763193304,78.25902086077078L102.65343035784635,68.48470109674237L103.03315944671631,88.34922285351423L103.15973580967297,74.91758574981033L103.41288853558626,14.144259398651268L103.66604126149957,-45.644307267528305L103.91919398741288,47.45064542073762L104.17234671332619,60.55559324350909L104.29892307628286,44.44760283750113L104.67865216515281,54.758163260823515L104.80522852810945,52.72432875083907L104.93180489106612,41.90024883654316L105.05838125402276,46.041774832885515L105.56468670584938,-29.40315289127098L105.81783943176269,89.28542987950732L106.070992157676,65.24026586909896L106.45072124654597,48.07582021218152L106.57729760950262,98.56325784947057L106.70387397245928,36.40040816979492L106.83045033541592,87.88973862362765L106.95702669837259,114.06842561105987L107.08360306132923,136.2475543661567L107.58990851315585,51.763344580737815L107.84306123906916,19.307130905528577L107.96963760202581,80.11588330102951L108.09621396498247,-10.970117456015902L108.22279032793911,44.953741902570094L108.34936669089578,40.36459307511634L108.72909577976573,21.037419041524156L108.8556721427224,21.888751169614846L108.98224850567904,61.915700303063225L109.86828304637562,79.6483333199758L110.24801213524559,49.30687525306168L110.88089395002885,94.62680225861914L111.0074703129855,-16.30105180420556L111.13404667594216,98.85747325642296L111.51377576481212,69.23602845382631L111.76692849072543,90.34183241308892L111.89350485368207,65.52283074658773L112.02008121663874,84.1196062022682L112.3998103055087,55.095712311301234L113.03269212029197,14.82921563992208L113.28584484620528,104.80029762942831L113.41242120916193,9.720273959475929L113.53899757211859,65.99074974893666L113.66557393507524,28.08182469811258L113.91872666098855,-13.903415014454328L114.2984557498585,81.56502992738935L114.42503211281516,48.18968964042326L114.67818483872847,-13.31129398759727L115.18449029055509,-24.433384956453626L115.31106665351173,47.27240813514256L115.56421937942504,66.63242506401004L115.94394846829502,64.52763303068606L116.19710119420833,56.60358604093019L116.45025392012163,28.390906391529864L116.57683028307828,55.00846513364379L116.70340664603494,35.40948055745232L116.95655937194823,-9.376736220549862L117.20971209786154,39.90906264482148L117.33628846081821,60.199540410942085L117.46286482377485,17.746487130682038L117.58944118673152,76.90618879246541L117.71601754968816,20.16320759312934L117.96917027560147,50.91259234325391L118.09574663855813,28.473830748300355L118.22232300151478,41.790702229188376L118.85520481629806,0.3357461178639307L118.9817811792547,56.53552797062459L119.10835754221137,67.64475591147585L119.36151026812468,36.99795908142462L119.48808663108132,60.05625471373789L119.61466299403799,59.51832709995144L119.74123935699463,100.02705989298374L120.6272738976912,47.95652089916714L121.00700298656118,29.584901150903555L121.13357934951782,29.80921338107421L121.38673207543113,95.93493003287404L122.0196138902144,69.58828563878525L122.14619025317106,22.11649002609833L122.27276661612771,61.11608387363233L122.65249570499766,121.5819100512108L122.77907206795433,90.54373977890646L123.03222479386764,3.2954550575750936L123.15880115682428,50.98254823736354L123.28537751978095,33.102306702359805L123.53853024569426,8.299910994143868L123.6651066086509,60.82128857607315L123.91825933456421,96.24786009122727L124.04483569752085,-1.258425877520455L124.17141206047752,95.77941391559943L124.29798842343416,42.092139910061654L124.42456478639083,1.0475354790305966L124.55114114934747,46.06750088889569L125.18402296413075,47.144094159059044L125.3105993270874,82.08129071941313L125.56375205300071,85.58599139484797L125.81690477891402,103.16152677464925L126.07005750482732,75.38318518973212L126.19663386778399,71.83604706534608L126.57636295665394,57.27942218447608L126.7029393196106,132.18832011865015L127.20924477143721,24.255284735911157L127.33582113439387,67.20683306869616L127.46239749735051,-2.8973021669553027L127.58897386030718,26.174617209719184L127.96870294917713,61.30929288034806L128.3484320380471,51.35599778813414L128.98131385283037,36.03771295391382L129.10789021578702,119.36915293036873L129.36104294170033,75.68325222008026L129.487619304657,-7.160394321411292L129.61419566761364,23.508543786353624L129.86734839352695,43.889431769805036L129.99392475648358,42.11728607546504L130.12050111944026,85.2937265290275L130.2470774823969,43.71240698275144L130.7533829342235,102.40281899166075L130.87995929718016,71.93863498541943L131.13311202309347,96.9372973053687L131.25968838605013,62.66586787893359L131.38626474900678,59.26053936657083L131.6394174749201,38.4668219884152L131.76599383787675,10.711834179753208L132.1457229267467,49.4351892291452L132.39887565266002,58.64095261188324L133.0317574674433,36.50942760387081L133.15833383039995,1.1816483611819815L133.53806291926992,-14.744625415590196L133.91779200813986,28.845909648545824L134.29752109700985,48.53425009551031L134.42409745996648,58.555919561997165L134.55067382292313,26.72018883604964L134.9304029117931,69.295915338309L135.05697927474975,86.14015594562444L135.56328472657637,35.69020032846495L135.68986108953303,8.578943810664025L136.95562471909957,37.870694444638524L137.20877744501288,80.97765346004236L137.3353538079695,37.111037749748014L137.4619301709262,75.35608848319681L137.58850653388282,64.7673914379284L137.84165925979613,63.144224912204685L138.09481198570944,24.901177437215704L138.34796471162275,53.63834178179061L138.72769380049272,-30.52455589014058L138.98084652640603,28.392066172743437L139.10742288936268,-16.38608485409164L139.48715197823262,7.940378817936146L139.6137283411893,59.56651073764262L139.8668810671026,43.61519623012284L140.12003379301592,89.40952646935966L140.24661015597258,119.69842536036776L140.37318651892923,62.73271345069772L140.62633924484254,80.08852300785476L140.7529156077992,22.11996936973905L141.00606833371248,81.22795533286263L141.13264469666916,21.075428234932627L141.38579742258244,-33.53761476567611L141.63895014849578,18.93278516018385L141.7655265114524,-24.75074327034959L142.01867923736572,83.1163954525273L142.27183196327903,42.69185223213483L142.77813741510565,92.89345651760596L142.9047137780623,82.5096717258448L143.03129014101896,73.18023349187753L143.15786650397558,32.75880059383055L143.28444286693227,25.55940599324644L143.41101922988892,58.39191595493232L143.53759559284558,46.180368687907524L143.7907483187589,87.68646060728499L144.2970537705855,-21.422592926017348L144.5502064964988,29.94374800184871L144.67678285945544,-1.7859154603847462L145.0565119483254,37.894522676844666L145.56281740015203,-11.34072027108046L145.942546489022,18.79999021122971L146.1956992149353,-48.4166061065916L146.4488519408486,-1.547527703667544L146.95515739267523,4.3723119143778995L147.0817337556319,33.90592964871032L147.20831011858854,10.400696510548226L147.33488648154517,30.44213761971789L147.46146284450185,-27.232358763429108L147.5880392074585,19.29616570132752L147.8411919333718,42.81768849380753L147.96776829632847,115.80082244017103L148.3474973851984,60.80278479398387L148.9803791999817,-10.605735285642329L149.233531925895,10.017072515494913L149.36010828885165,27.949715074421004L149.61326101476496,35.164608569404685L149.7398373777216,-52.23307705916609L150.6258719184182,-39.586928141018646L150.75244828137485,22.795331057333936L151.00560100728813,-14.15909405471935L151.25875373320147,35.48217775261221L151.3853300961581,31.266689345240614L151.51190645911475,68.36313493862873L151.7650591850281,67.77438782075662L151.89163554798472,35.47363754549408L152.14478827389803,71.69740049299618L152.2713646368547,88.5442769667061L152.39794099981134,87.29018445353815L152.524517362768,133.0270528053752L152.65109372572465,84.99914210077988L152.7776700886813,83.77604737641106L153.41055190346458,78.7279942096775L153.66370462937786,35.12174938183036L153.9168573552912,65.71577616666401L154.04343371824785,99.15137235940801L154.17001008120448,83.15440464593577L154.80289189598778,21.861285441784315L155.30919734781438,9.731028294365426L155.56235007372769,89.13987733720387L155.68892643668434,48.48237624486685L156.44838461442427,0.32056352743169847L156.57496097738093,58.504151146009484L156.70153734033758,88.93132758807224L156.82811370329424,60.3350239436186L156.9546900662509,74.06736068560532L157.4609955180775,39.63482710513929L157.71414824399082,30.21002322501956L157.84072460694745,85.29435913696217L158.6001827846874,38.081511038869415L158.72675914764403,58.06543754331144L159.10648823651402,14.486025835360163L159.3596409624273,26.008715778850313L159.48621732538396,81.24355966191798L159.61279368834064,109.13424187256805L159.86594641425393,80.17592833749588L160.2456755031239,38.320267816881845L160.37225186608055,100.04424574187578L160.4988282290372,8.92772165198225L160.7519809549505,85.05602409757286L160.87855731790717,81.58411360008542L161.0051336808638,110.21953350183321L161.13171004382048,100.2493161473667L161.25828640677713,100.87939365030434L161.3848627697338,70.6183822257499L161.76459185860375,56.39967541665285L161.8911682215604,22.174320934793325L162.1443209474737,33.31096188614722L162.27089731043037,141.90644321114814L162.397473673387,93.20701918389386L162.777202762257,56.40557975737649L162.90377912521362,83.23037031542482L163.03035548817027,64.99207268939428L163.5366609399969,97.64824318928913L163.66323730295355,-38.98537071246933L163.7898136659102,31.5701302845737L164.42269548069348,91.6009330724064L164.67584820660676,117.97277634922648L164.9290009325201,39.43197082741974L165.05557729547675,52.1225604529782L165.18215365843338,18.172654009342335L165.56188274730337,22.896284740242702L165.68845911026,12.294671949641309L165.81503547321665,59.0407081092708L165.94161183617334,-1.9344728903779076L166.06818819912996,26.207512822322354L166.19476456208662,40.06046681052069L166.32134092504327,38.36792428129413L166.44791728799996,59.61174220497198L166.70107001391324,118.92548389884905L167.0807991027832,39.26886341492902L167.3339518286965,91.53245326347769L167.46052819165314,37.51864812899114L167.84025728052313,20.418359460115465L167.96683364347976,8.473087416261517L168.2199863693931,72.91522348457603L168.34656273234972,69.47262382139526L168.47313909530638,66.23630706224687L168.59971545826306,62.11676419163452L168.72629182121972,39.9683169213695L168.979444547133,45.536426527734896L169.10602091008968,75.92211443274847L169.23259727304634,52.90810135586255L169.35917363600296,30.648367806422378L169.6123263619163,5.757723291319092L169.99205545078624,99.20045219167332L170.3717845396562,14.312164087979948L170.49836090261286,71.97548439761432L170.75151362852617,77.95932285171786L170.87808999148282,49.39027406578318L171.00466635443948,-25.44977503816695L171.1312427173961,18.149827406366096L171.2578190803528,24.16334571607153L171.38439544330944,29.440455672485808L171.63754816922273,-4.32863033648842L172.14385362104935,24.335204204991935L172.27042998400603,31.122507453462298L172.5235827099193,50.59781717842454L172.77673543583265,70.85703356910655L173.02988816174593,63.35651759161649L173.15646452470259,-13.826289563751704L173.91592270244251,14.483495403621458L174.04249906539917,13.337157108660033L174.29565179131245,59.93236899319711L174.42222815426913,58.40767843597134L174.5488045172258,58.53894458241668L175.0551099690524,93.93783950042871L175.3082626949657,21.07168530465246L175.56141542087903,90.27445966804589L175.8145681467923,47.057532306664164L175.941144509749,8.268122445426382L176.06772087270565,67.77212097565736L176.44744996157561,29.406769299964292L176.57402632453224,67.0858995185172L176.7006026874889,10.967987675969237L176.95375541340223,105.16199121607951L177.08033177635886,77.12939395875038L177.46006086522885,72.48072726810916L177.58663722818548,55.64191654556637L177.96636631705542,28.451689470586683L178.0929426800121,7.111767858165916L178.21951904296876,-1.535613587564473L178.47267176888204,16.15252600460921L178.97897722070866,48.81560247445761L179.10555358366534,75.33890263430477L179.232129946622,36.2521670437691L179.48528267253528,9.705091369043696L179.61185903549196,48.83658397095771L180.11816448731858,53.925862088101006L180.2447408502752,48.72962051266952L180.49789357618852,61.79007491070208L180.87762266505848,47.5924550327609L181.00419902801514,30.55980269556769L181.3839281168851,20.739777008258937L181.51050447984176,0.13399690403006678L182.143386294625,55.83180436062505L182.39653902053834,29.32226342335711L182.52311538349497,26.50568202886647L182.64969174645162,-23.606460951175865L182.7762681094083,47.22622775591119L182.90284447236496,48.84860352171656L183.0294208353216,61.24882610525858L183.15599719827824,65.2543941129734L183.5357262871482,83.17190679879515L183.66230265010486,69.31378651246361L183.78887901306155,21.818109950242654L183.91545537601817,37.06633345569755L184.16860810193148,49.16522379302207L184.4217608278448,10.39990575062988L184.54833719080145,-1.4458886954962116L184.9280662796714,36.60184107966145L185.05464264262807,102.4971830085833L185.43437173149803,73.58183409574123L185.81410082036797,-5.789269340328207L186.3204062721946,-6.284390483868226L186.95328808697786,137.33179164886405L187.07986444993455,23.065876384063852L187.20644081289117,75.03714864946416L187.45959353880448,52.50175619248878L187.7127462647178,51.09430897248969L188.09247535358776,29.9816517606014L188.4722044424577,16.59208308455349L188.72535716837103,38.309829785959685L189.105086257241,42.52331493487147L189.48481534611093,59.01999019941015L189.73796807202427,51.62453985640425L189.8645444349809,16.943813096233537L190.1176971608942,82.76118609720653L190.2442735238509,81.34298454231795L190.7505789756775,71.1064392473527L191.2568844275041,53.09756743229811L191.76318987933072,44.85352626225178L191.88976624228738,24.606698443623866L192.52264805707065,5.46566929481018L192.77580078298396,64.52346836178278L192.90237714594062,46.13656058843119L193.1555298718539,26.620342217026558L193.28210623481056,25.176256454144134L193.53525896072387,43.24322276453315L194.42129350142048,77.18395639311622L195.56048076803035,49.121521128201515L195.687057130987,-12.158207874665965L195.9402098569003,18.714060966769505L196.06678621985697,-23.860453036948417L196.4465153087269,6.793935088318943L196.57309167168358,58.31262909378622L196.82624439759687,35.59789228733009L197.3325498494235,24.376692742041126L197.58570257533682,62.39379374969487L198.09200802716342,50.46454777351939L198.21858439012007,57.292654233776396L198.34516075307673,36.80559355195512L198.47173711603338,67.35117311245814L198.59831347899004,57.040507254479984L199.10461893081663,-4.370646046816507L199.2311952937733,13.519875367125717L199.4843480196866,13.122808453460532L199.61092438264325,13.685934949978257L200.11722983446987,36.8282092856198L200.24380619742655,30.232164502733234L200.75011164925317,37.70384410186764L200.8766880122098,10.11465228941874L201.38299346403642,83.15356116868954L201.76272255290638,53.19324938241791L202.14245164177635,95.65384124056618L202.26902800473297,93.46934060747299L202.5221807306463,73.7226947958625L202.64875709360297,77.30009266645722L203.02848618247293,50.29421808710779L203.2816389083862,121.22385396018399L204.29424981203945,30.31603777140574L204.67397890090942,74.03225094523079L204.80055526386607,67.69789497798867L205.05370798977938,61.18461639988893L205.3068607156927,64.37359299859237L205.43343707864932,27.954354199275297L206.57262434525924,8.011389058603566L206.6992007082159,65.78573206077364L206.82577707117252,25.753616629192077L206.95235343412918,-7.806497892027398L207.20550616004252,50.19189375367389L207.4586588859558,35.23609326602311L207.58523524891248,20.611726618814867L207.7118116118691,6.695195533181543L207.83838797482576,46.5222405592722L208.21811706369573,114.95207346114694L208.47126978960904,49.23307099401611L208.59784615256572,36.37694895888401L208.72442251552235,58.79409644940281L208.850998878479,51.13922413585171L208.97757524143566,62.256465110542216L209.10415160439229,96.85843218284572L209.23072796734897,73.38366966020386L209.48388069326228,91.57879179469273L209.6104570562189,126.26942941250672L209.7370334191756,35.01325712103337L209.86360978213224,69.85076521434804L209.9901861450889,21.89639518215885L210.11676250804553,108.8270580029548L210.2433388710022,83.40154347908266L210.36991523395886,56.71192014974351L210.4964915969155,84.96150192866664L210.62306795987215,74.19388227254059L210.74964432282883,29.584373977624658L211.50910250056873,68.88725061250808L211.8888315894387,34.650825491791714L212.01540795239535,11.828018163161726L212.2685606783087,68.81165396431426L212.39513704126531,80.08688877069018L212.90144249309193,92.56397321829536L213.0280188560486,27.767629423889996L213.15459521900524,16.118997784071365L213.28117158196187,60.93863734795561L213.66090067083184,70.98234265750035L213.7874770337885,85.9613387694226L213.91405339674517,28.523806775139786L214.04062975970183,47.014251380466725L214.16720612265846,82.82044037375455L214.4203588485718,28.188524569761324L214.54693521152845,121.78618969678337L215.05324066335504,0.5167774218371444L215.1798170263117,106.97905207378153L215.30639338926835,47.39945689535673L215.55954611518166,22.42240867984223L215.93927520405163,6.156160855509409L216.44558065587822,110.76969153569007L216.5721570188349,26.016939682001105L216.69873338179156,22.996711249872572L216.95188610770484,52.132049571998344L217.20503883361818,58.23334223264012L217.3316151965748,47.79167381485606L218.21764973727142,29.987450666669268L218.59737882614138,91.50298427718735L218.85053155205466,31.677093742861892L219.10368427796797,142.53530821554432L219.48341336683794,54.53105701227471L219.6099897297946,107.87524664790635L219.98971881866456,44.73454325320474L220.11629518162118,90.12563865141328L220.36944790753452,104.24412982019203L220.49602427049118,80.64374190518903L221.00232972231777,70.21699249119776L221.2554824482311,108.35766291542495L221.38205881118776,70.777483121321L221.7617879000577,51.45795310027281L221.88836426301438,74.25239850649815L222.014940625971,81.86488608842593L222.26809335188432,67.78050303079182L222.52124607779763,55.036932490704224L222.9009751666676,28.29670052659098L223.1541278925809,60.654490950630155L223.4072806184942,35.79215564060362L223.53385698145087,92.60530360336088L223.66043334440752,35.29998666742542L223.91358607032083,45.8786674203948L224.16673879623414,46.8164032488967L224.29331515919077,93.07469869089073L224.41989152214745,86.42815070788585L224.5464678851041,73.45626142070797L224.92619697397404,80.8838166163987L225.17934969988735,118.05490994607862L225.305926062844,111.54020800012586L225.43250242580066,93.41135154679432L225.55907878875735,49.9324717831287L225.68565515171397,62.29009876573584L226.06538424058394,30.9787473003071L226.6982660553672,77.5866640608656L227.3311478701505,21.57318524486713L227.45772423310711,61.33881458396629L227.5843005960638,29.55274358089084L228.0906060478904,54.92053263072378L228.21718241084707,91.62275804615274L228.3437587738037,122.98914640189832L229.2297933145003,104.92650291239624L229.35636967745694,94.45736876678166L229.60952240337025,98.4075835802123L229.7360987663269,49.91602397682711L229.86267512928356,101.1205227080718L229.98925149224021,65.7071305248901L230.49555694406683,24.01452469943892L230.74870966998014,73.66512747380695L231.00186239589345,61.860610695418494L231.25501512180674,71.37645740080372L231.38159148476342,26.961950501751783L231.76132057363336,63.40074742971594L231.88789693659004,75.16187784725118L232.39420238841666,53.70555637484997L232.52077875137329,27.042555296095127L232.64735511432994,127.82849166751657L232.7739314772866,89.24004026019429L233.0270842031999,-2.974902073608934L233.15366056615656,48.88334424079587L233.78654238093984,18.897833571792983L233.91311874389646,79.21383710350894L234.1662714698098,44.102409774479405L234.41942419572308,75.41623895431896L234.54600055867976,60.941747670301105L234.67257692163642,109.78661880520303L234.79915328459305,100.59556355694622L235.05230601050638,51.96683346639204L235.30545873641967,51.19035994390472L235.8117641882463,98.14494585266584L236.06491691415962,69.86199400518855L236.3180696400729,23.331729868611585L236.69779872894287,59.334185473632736L236.82437509189953,6.421012710827238L237.33068054372615,89.40620527770261L237.7104096325961,111.40551522736769L237.9635623585094,104.0069018446884L238.09013872146605,38.79989006602229L238.21671508442273,123.06722076450296L238.34329144737939,82.47208427105944L238.72302053624935,132.42101440395527L238.849596899206,90.28964225847812L238.97617326216263,134.0435483217443L239.1027496251193,91.63108738395931L239.22932598807597,6.1609054150194815L239.3559023510326,111.66462089394554L239.7356314399026,102.15452037730029L239.86220780285922,57.46677956779606L239.98878416581587,35.88567618027994L240.24193689172915,38.26449288397455L240.36851325468584,54.66068892155547L240.4950896176425,43.95105832610809L240.62166598059915,59.545581958470414L240.87481870651246,87.23151006759691L241.12797143242577,74.05091287930374L241.50770052129573,72.40391812137388L241.760853247209,56.27926903975278L241.8874296101657,66.22808315909607L242.01400597312235,65.08221932008566L242.14058233607898,65.92696178219013L242.6468877879056,66.47100460601179L242.90004051381894,108.8950633559325L243.02661687677556,114.14133367553131L243.40634596564556,117.65030445452521L243.53292232860218,12.208953574492664L243.65949869155884,27.921353152016348L243.7860750545155,110.10640211618193L244.41895686929874,103.46596934321224L245.43156777295198,62.57350712047084L245.55814413590866,85.33732375919227L245.68472049886532,102.51705744119772L246.06444958773528,35.41501587688074L246.31760231364856,46.787619587868924L246.44417867660522,98.89237212748594L246.5707550395619,43.91652847634034L246.69733140251853,87.05311463001819L246.82390776547518,122.87786012272318L246.95048412843184,77.54865486745713L247.07706049138852,51.36648853638419L247.3302132173018,54.06677550555016L247.45678958025846,92.89925542367382L247.83651866912842,84.35045538109718L248.46940048391167,65.13831055696029L248.59597684686833,103.8728416798649L248.84912957278166,79.99500246817844L248.9757059357383,56.54939262785958L249.22885866165163,68.15695746925213L250.11489320234818,61.973636646414L250.24146956530487,84.16272897648197L250.3680459282615,55.49831454439484L250.74777501713146,104.03357681260059L250.87435138008811,58.66694225453286L251.25408046895805,94.2428092422706L251.38065683191473,84.1119094723963L251.5072331948714,44.00446097926035L251.63380955782804,20.431644226743668L251.88696228374135,61.63060499383575L252.013538646698,86.96317886863837L252.2666913726113,68.32913226213988L252.51984409852463,68.3264436784175L252.7729968244379,88.85093366304045L252.8995731873946,98.58988010005487L253.27930227626453,88.15970405975078L253.4058786392212,63.52178641455068L253.53245500217784,60.443674356399264L253.6590313651345,140.87708466677395L253.78560772809115,150.7157195708278L254.29191317991777,81.57299024390069L254.54506590583108,113.17518320729687L255.0513713576577,61.017713339790156L255.304524083571,67.59108967168414L255.55767680948432,38.71933798900684L255.68425317244098,44.87123928442272L256.19055862426757,0.669446803405702L256.57028771313753,28.511576355069376L256.6968640760942,48.51115990589462L256.9500168020075,64.7868441319197L257.07659316496415,40.8472202119465L257.32974589087746,32.20284365390582L257.4563222538341,6.032802308247522L257.58289861679077,45.79911697260925L257.8360513427041,29.99778326293565L257.96262770566074,53.689055851220495L258.0892040686174,37.334137481377205L258.8486622463573,80.60958107671651L258.975238609314,56.206150105969776L259.10181497227063,85.2384260520712L259.2283913352273,158.234792047735L259.35496769818394,52.552364827262885L259.60812042409725,53.66607109626059L259.7346967870539,50.12715687502534L259.98784951296716,102.66788171629014L260.3675786018372,83.57044979764125L260.87388405366374,48.3884866838953L261.38018950549036,121.5568166031353L261.506765868447,146.32868897850312L261.63334223140373,46.89885314971618L261.75991859436033,115.61662809652444L262.26622404618695,53.11844349414243L262.3928004091436,85.87224648528901L262.51937677210026,78.09833844536298L262.64595313505697,87.56573792641758L262.77252949801357,50.341400095569064L262.8991058609702,49.48558699460775L263.0256822239269,95.3472899788876L263.2788349498402,75.96760948671728L263.40541131279684,68.27778558477532L263.7851404016668,122.62998324698583L263.91171676462346,80.4633432091505L264.1648694905368,136.5790409239271L264.4180222164501,9.280875031515318L264.6711749423634,55.25623657472536L264.79775130532005,130.12137912675098L265.30405675714667,63.011008224627425L265.8103622089733,110.42766151234173L266.0635149348866,62.55879898598962L266.19009129784325,39.282095464229336L266.6963967496699,77.31590786482413L266.9495494755832,57.42987743827327L267.07612583853984,30.972737524927673L267.2027022014965,90.99921749187342L267.58243129036646,95.65436841384508L267.9621603792364,116.47713303966793L268.2153131051497,44.5388038147503L268.7216185569763,33.8472025454412" fill="none"></path></g></g></g></g></g></g><g transform="translate(51, 176)" clip-path="url(#clip_1)"><clipPath id="clip_1"><rect width="278" height="23"></rect></clipPath><g><g><line x1="0" y1="0" x2="0" y2="5" style="visibility: inherit;" fill="rgb(0, 0, 0)" stroke="rgb(204, 204, 204)" stroke-width="1px"></line><line x1="25.31527259133079" y1="0" x2="25.31527259133079" y2="5" style="visibility: inherit;" fill="rgb(0, 0, 0)" stroke="rgb(204, 204, 204)" stroke-width="1px"></line><line x1="50.63054518266158" y1="0" x2="50.63054518266158" y2="5" style="visibility: inherit;" fill="rgb(0, 0, 0)" stroke="rgb(204, 204, 204)" stroke-width="1px"></line><line x1="75.94581777399236" y1="0" x2="75.94581777399236" y2="5" style="visibility: inherit;" fill="rgb(0, 0, 0)" stroke="rgb(204, 204, 204)" stroke-width="1px"></line><line x1="101.26109036532316" y1="0" x2="101.26109036532316" y2="5" style="visibility: inherit;" fill="rgb(0, 0, 0)" stroke="rgb(204, 204, 204)" stroke-width="1px"></line><line x1="126.57636295665394" y1="0" x2="126.57636295665394" y2="5" style="visibility: inherit;" fill="rgb(0, 0, 0)" stroke="rgb(204, 204, 204)" stroke-width="1px"></line><line x1="151.89163554798472" y1="0" x2="151.89163554798472" y2="5" style="visibility: inherit;" fill="rgb(0, 0, 0)" stroke="rgb(204, 204, 204)" stroke-width="1px"></line><line x1="177.20690813931552" y1="0" x2="177.20690813931552" y2="5" style="visibility: inherit;" fill="rgb(0, 0, 0)" stroke="rgb(204, 204, 204)" stroke-width="1px"></line><line x1="202.5221807306463" y1="0" x2="202.5221807306463" y2="5" style="visibility: inherit;" fill="rgb(0, 0, 0)" stroke="rgb(204, 204, 204)" stroke-width="1px"></line><line x1="227.8374533219771" y1="0" x2="227.8374533219771" y2="5" style="visibility: inherit;" fill="rgb(0, 0, 0)" stroke="rgb(204, 204, 204)" stroke-width="1px"></line><line x1="253.15272591330788" y1="0" x2="253.15272591330788" y2="5" style="visibility: inherit;" fill="rgb(0, 0, 0)" stroke="rgb(204, 204, 204)" stroke-width="1px"></line><line x1="278.4679985046387" y1="0" x2="278.4679985046387" y2="5" style="visibility: inherit;" fill="rgb(0, 0, 0)" stroke="rgb(204, 204, 204)" stroke-width="1px"></line></g><g transform="translate(0, 8)"><text style="text-anchor: middle; visibility: hidden; font-family: Roboto, sans-serif; font-size: 12px; font-weight: 200;" x="0" y="0" dx="0em" dy="0.95em" fill="rgb(33, 33, 33)" stroke="none" stroke-width="1px">-20k</text><text style="text-anchor: middle; visibility: inherit; font-family: Roboto, sans-serif; font-size: 12px; font-weight: 200;" x="25.31527259133079" y="0" dx="0em" dy="0.95em" fill="rgb(33, 33, 33)" stroke="none" stroke-width="1px">0</text><text style="text-anchor: middle; visibility: hidden; font-family: Roboto, sans-serif; font-size: 12px; font-weight: 200;" x="50.63054518266158" y="0" dx="0em" dy="0.95em" fill="rgb(33, 33, 33)" stroke="none" stroke-width="1px">20k</text><text style="text-anchor: middle; visibility: inherit; font-family: Roboto, sans-serif; font-size: 12px; font-weight: 200;" x="75.94581777399236" y="0" dx="0em" dy="0.95em" fill="rgb(33, 33, 33)" stroke="none" stroke-width="1px">40k</text><text style="text-anchor: middle; visibility: hidden; font-family: Roboto, sans-serif; font-size: 12px; font-weight: 200;" x="101.26109036532316" y="0" dx="0em" dy="0.95em" fill="rgb(33, 33, 33)" stroke="none" stroke-width="1px">60k</text><text style="text-anchor: middle; visibility: inherit; font-family: Roboto, sans-serif; font-size: 12px; font-weight: 200;" x="126.57636295665394" y="0" dx="0em" dy="0.95em" fill="rgb(33, 33, 33)" stroke="none" stroke-width="1px">80k</text><text style="text-anchor: middle; visibility: hidden; font-family: Roboto, sans-serif; font-size: 12px; font-weight: 200;" x="151.89163554798472" y="0" dx="0em" dy="0.95em" fill="rgb(33, 33, 33)" stroke="none" stroke-width="1px">100k</text><text style="text-anchor: middle; visibility: inherit; font-family: Roboto, sans-serif; font-size: 12px; font-weight: 200;" x="177.20690813931552" y="0" dx="0em" dy="0.95em" fill="rgb(33, 33, 33)" stroke="none" stroke-width="1px">120k</text><text style="text-anchor: middle; visibility: hidden; font-family: Roboto, sans-serif; font-size: 12px; font-weight: 200;" x="202.5221807306463" y="0" dx="0em" dy="0.95em" fill="rgb(33, 33, 33)" stroke="none" stroke-width="1px">140k</text><text style="text-anchor: middle; visibility: inherit; font-family: Roboto, sans-serif; font-size: 12px; font-weight: 200;" x="227.8374533219771" y="0" dx="0em" dy="0.95em" fill="rgb(33, 33, 33)" stroke="none" stroke-width="1px">160k</text><text style="text-anchor: middle; visibility: hidden; font-family: Roboto, sans-serif; font-size: 12px; font-weight: 200;" x="253.15272591330788" y="0" dx="0em" dy="0.95em" fill="rgb(33, 33, 33)" stroke="none" stroke-width="1px">180k</text><text style="text-anchor: middle; visibility: hidden; font-family: Roboto, sans-serif; font-size: 12px; font-weight: 200;" x="278.4679985046387" y="0" dx="0em" dy="0.95em" fill="rgb(33, 33, 33)" stroke="none" stroke-width="1px">200k</text></g><line x1="0" y1="0" x2="278.4679985046387" y2="0" fill="rgb(0, 0, 0)" stroke="rgb(204, 204, 204)" stroke-width="1px"></line></g></g></g></g></svg>