<svg viewBox="0 0 330 200" xmlns="http://www.w3.org/2000/svg"><g><g><g><g><g><line x1="41.149001121520996" y1="176.88999938964844" x2="36.149001121520996" y2="176.88999938964844" style="visibility: inherit;" fill="rgb(0, 0, 0)" stroke="rgb(204, 204, 204)" stroke-width="1px"></line><line x1="41.149001121520996" y1="162.1491661071778" x2="36.149001121520996" y2="162.1491661071778" style="visibility: inherit;" fill="rgb(0, 0, 0)" stroke="rgb(204, 204, 204)" stroke-width="1px"></line><line x1="41.149001121520996" y1="147.40833282470706" x2="36.149001121520996" y2="147.40833282470706" style="visibility: inherit;" fill="rgb(0, 0, 0)" stroke="rgb(204, 204, 204)" stroke-width="1px"></line><line x1="41.149001121520996" y1="132.66749954223636" x2="36.149001121520996" y2="132.66749954223636" style="visibility: inherit;" fill="rgb(0, 0, 0)" stroke="rgb(204, 204, 204)" stroke-width="1px"></line><line x1="41.149001121520996" y1="117.92666625976564" x2="36.149001121520996" y2="117.92666625976564" style="visibility: inherit;" fill="rgb(0, 0, 0)" stroke="rgb(204, 204, 204)" stroke-width="1px"></line><line x1="41.149001121520996" y1="103.18583297729491" x2="36.149001121520996" y2="103.18583297729491" style="visibility: inherit;" fill="rgb(0, 0, 0)" stroke="rgb(204, 204, 204)" stroke-width="1px"></line><line x1="41.149001121520996" y1="88.44499969482426" x2="36.149001121520996" y2="88.44499969482426" style="visibility: inherit;" fill="rgb(0, 0, 0)" stroke="rgb(204, 204, 204)" stroke-width="1px"></line><line x1="41.149001121520996" y1="73.70416641235353" x2="36.149001121520996" y2="73.70416641235353" style="visibility: inherit;" fill="rgb(0, 0, 0)" stroke="rgb(204, 204, 204)" stroke-width="1px"></line><line x1="41.149001121520996" y1="58.96333312988282" x2="36.149001121520996" y2="58.96333312988282" style="visibility: inherit;" fill="rgb(0, 0, 0)" stroke="rgb(204, 204, 204)" stroke-width="1px"></line><line x1="41.149001121520996" y1="44.22249984741209" x2="36.149001121520996" y2="44.22249984741209" style="visibility: inherit;" fill="rgb(0, 0, 0)" stroke="rgb(204, 204, 204)" stroke-width="1px"></line><line x1="41.149001121520996" y1="29.48166656494138" x2="36.149001121520996" y2="29.48166656494138" style="visibility: inherit;" fill="rgb(0, 0, 0)" stroke="rgb(204, 204, 204)" stroke-width="1px"></line><line x1="41.149001121520996" y1="14.74083328247073" x2="36.149001121520996" y2="14.74083328247073" style="visibility: inherit;" fill="rgb(0, 0, 0)" stroke="rgb(204, 204, 204)" stroke-width="1px"></line><line x1="41.149001121520996" y1="0" x2="36.149001121520996" y2="0" style="visibility: inherit;" fill="rgb(0, 0, 0)" stroke="rgb(204, 204, 204)" stroke-width="1px"></line></g><g transform="translate(31.149001121520996, 0)"><text style="text-anchor: end; visibility: hidden; font-family: Roboto, sans-serif; font-size: 12px; font-weight: 200;" x="0" y="176.88999938964844" dx="0em" dy="0.3em" fill="rgb(33, 33, 33)" stroke="none" stroke-width="1px">2.7</text><text style="text-anchor: end; visibility: inherit; font-family: Roboto, sans-serif; font-size: 12px; font-weight: 200;" x="0" y="162.1491661071778" dx="0em" dy="0.3em" fill="rgb(33, 33, 33)" stroke="none" stroke-width="1px">2.8</text><text style="text-anchor: end; visibility: hidden; font-family: Roboto, sans-serif; font-size: 12px; font-weight: 200;" x="0" y="147.40833282470706" dx="0em" dy="0.3em" fill="rgb(33, 33, 33)" stroke="none" stroke-width="1px">2.9</text><text style="text-anchor: end; visibility: inherit; font-family: Roboto, sans-serif; font-size: 12px; font-weight: 200;" x="0" y="132.66749954223636" dx="0em" dy="0.3em" fill="rgb(33, 33, 33)" stroke="none" stroke-width="1px">3</text><text style="text-anchor: end; visibility: hidden; font-family: Roboto, sans-serif; font-size: 12px; font-weight: 200;" x="0" y="117.92666625976564" dx="0em" dy="0.3em" fill="rgb(33, 33, 33)" stroke="none" stroke-width="1px">3.1</text><text style="text-anchor: end; visibility: inherit; font-family: Roboto, sans-serif; font-size: 12px; font-weight: 200;" x="0" y="103.18583297729491" dx="0em" dy="0.3em" fill="rgb(33, 33, 33)" stroke="none" stroke-width="1px">3.2</text><text style="text-anchor: end; visibility: hidden; font-family: Roboto, sans-serif; font-size: 12px; font-weight: 200;" x="0" y="88.44499969482426" dx="0em" dy="0.3em" fill="rgb(33, 33, 33)" stroke="none" stroke-width="1px">3.3</text><text style="text-anchor: end; visibility: inherit; font-family: Roboto, sans-serif; font-size: 12px; font-weight: 200;" x="0" y="73.70416641235353" dx="0em" dy="0.3em" fill="rgb(33, 33, 33)" stroke="none" stroke-width="1px">3.4</text><text style="text-anchor: end; visibility: hidden; font-family: Roboto, sans-serif; font-size: 12px; font-weight: 200;" x="0" y="58.96333312988282" dx="0em" dy="0.3em" fill="rgb(33, 33, 33)" stroke="none" stroke-width="1px">3.5</text><text style="text-anchor: end; visibility: inherit; font-family: Roboto, sans-serif; font-size: 12px; font-weight: 200;" x="0" y="44.22249984741209" dx="0em" dy="0.3em" fill="rgb(33, 33, 33)" stroke="none" stroke-width="1px">3.6</text><text style="text-anchor: end; visibility: hidden; font-family: Roboto, sans-serif; font-size: 12px; font-weight: 200;" x="0" y="29.48166656494138" dx="0em" dy="0.3em" fill="rgb(33, 33, 33)" stroke="none" stroke-width="1px">3.7</text><text style="text-anchor: end; visibility: inherit; font-family: Roboto, sans-serif; font-size: 12px; font-weight: 200;" x="0" y="14.74083328247073" dx="0em" dy="0.3em" fill="rgb(33, 33, 33)" stroke="none" stroke-width="1px">3.8</text><text style="text-anchor: end; visibility: hidden; font-family: Roboto, sans-serif; font-size: 12px; font-weight: 200;" x="0" y="0" dx="0em" dy="0.3em" fill="rgb(33, 33, 33)" stroke="none" stroke-width="1px">3.9</text></g><line x1="41.149001121520996" y1="0" x2="41.149001121520996" y2="176.88999938964844" fill="rgb(0, 0, 0)" stroke="rgb(204, 204, 204)" stroke-width="1px"></line></g></g><g transform="translate(41, 0)" clip-path="url(#clip_0)"><clipPath id="clip_0"><rect width="288" height="176"></rect></clipPath><g><g><g><line x1="0" y1="0" x2="0" y2="176.88999938964844" fill="rgb(0, 0, 0)" stroke="rgb(66, 66, 66)" stroke-width="1px" opacity="0.25"></line><line x1="26.259181716225363" y1="0" x2="26.259181716225363" y2="176.88999938964844" fill="rgb(0, 0, 0)" stroke="rgb(66, 66, 66)" stroke-width="1px" opacity="0.25"></line><line x1="52.51836343245073" y1="0" x2="52.51836343245073" y2="176.88999938964844" fill="rgb(0, 0, 0)" stroke="rgb(66, 66, 66)" stroke-width="1px" opacity="0.25"></line><line x1="78.77754514867608" y1="0" x2="78.77754514867608" y2="176.88999938964844" fill="rgb(0, 0, 0)" stroke="rgb(66, 66, 66)" stroke-width="1px" opacity="0.25"></line><line x1="105.03672686490145" y1="0" x2="105.03672686490145" y2="176.88999938964844" fill="rgb(0, 0, 0)" stroke="rgb(66, 66, 66)" stroke-width="1px" opacity="0.25"></line><line x1="131.2959085811268" y1="0" x2="131.2959085811268" y2="176.88999938964844" fill="rgb(0, 0, 0)" stroke="rgb(66, 66, 66)" stroke-width="1px" opacity="0.25"></line><line x1="157.55509029735217" y1="0" x2="157.55509029735217" y2="176.88999938964844" fill="rgb(0, 0, 0)" stroke="rgb(66, 66, 66)" stroke-width="1px" opacity="0.25"></line><line x1="183.81427201357755" y1="0" x2="183.81427201357755" y2="176.88999938964844" fill="rgb(0, 0, 0)" stroke="rgb(66, 66, 66)" stroke-width="1px" opacity="0.25"></line><line x1="210.0734537298029" y1="0" x2="210.0734537298029" y2="176.88999938964844" fill="rgb(0, 0, 0)" stroke="rgb(66, 66, 66)" stroke-width="1px" opacity="0.25"></line><line x1="236.3326354460283" y1="0" x2="236.3326354460283" y2="176.88999938964844" fill="rgb(0, 0, 0)" stroke="rgb(66, 66, 66)" stroke-width="1px" opacity="0.25"></line><line x1="262.5918171622536" y1="0" x2="262.5918171622536" y2="176.88999938964844" fill="rgb(0, 0, 0)" stroke="rgb(66, 66, 66)" stroke-width="1px" opacity="0.25"></line><line x1="288.850998878479" y1="0" x2="288.850998878479" y2="176.88999938964844" fill="rgb(0, 0, 0)" stroke="rgb(66, 66, 66)" stroke-width="1px" opacity="0.25"></line></g><g><line x1="0" y1="176.88999938964844" x2="288.850998878479" y2="176.88999938964844" fill="rgb(0, 0, 0)" stroke="rgb(66, 66, 66)" stroke-width="1px" opacity="0.25"></line><line x1="0" y1="162.1491661071778" x2="288.850998878479" y2="162.1491661071778" fill="rgb(0, 0, 0)" stroke="rgb(66, 66, 66)" stroke-width="1px" opacity="0.25"></line><line x1="0" y1="147.40833282470706" x2="288.850998878479" y2="147.40833282470706" fill="rgb(0, 0, 0)" stroke="rgb(66, 66, 66)" stroke-width="1px" opacity="0.25"></line><line x1="0" y1="132.66749954223636" x2="288.850998878479" y2="132.66749954223636" fill="rgb(0, 0, 0)" stroke="rgb(66, 66, 66)" stroke-width="1px" opacity="0.25"></line><line x1="0" y1="117.92666625976564" x2="288.850998878479" y2="117.92666625976564" fill="rgb(0, 0, 0)" stroke="rgb(66, 66, 66)" stroke-width="1px" opacity="0.25"></line><line x1="0" y1="103.18583297729491" x2="288.850998878479" y2="103.18583297729491" fill="rgb(0, 0, 0)" stroke="rgb(66, 66, 66)" stroke-width="1px" opacity="0.25"></line><line x1="0" y1="88.44499969482426" x2="288.850998878479" y2="88.44499969482426" fill="rgb(0, 0, 0)" stroke="rgb(66, 66, 66)" stroke-width="1px" opacity="0.25"></line><line x1="0" y1="73.70416641235353" x2="288.850998878479" y2="73.70416641235353" fill="rgb(0, 0, 0)" stroke="rgb(66, 66, 66)" stroke-width="1px" opacity="0.25"></line><line x1="0" y1="58.96333312988282" x2="288.850998878479" y2="58.96333312988282" fill="rgb(0, 0, 0)" stroke="rgb(66, 66, 66)" stroke-width="1px" opacity="0.25"></line><line x1="0" y1="44.22249984741209" x2="288.850998878479" y2="44.22249984741209" fill="rgb(0, 0, 0)" stroke="rgb(66, 66, 66)" stroke-width="1px" opacity="0.25"></line><line x1="0" y1="29.48166656494138" x2="288.850998878479" y2="29.48166656494138" fill="rgb(0, 0, 0)" stroke="rgb(66, 66, 66)" stroke-width="1px" opacity="0.25"></line><line x1="0" y1="14.74083328247073" x2="288.850998878479" y2="14.74083328247073" fill="rgb(0, 0, 0)" stroke="rgb(66, 66, 66)" stroke-width="1px" opacity="0.25"></line><line x1="0" y1="0" x2="288.850998878479" y2="0" fill="rgb(0, 0, 0)" stroke="rgb(66, 66, 66)" stroke-width="1px" opacity="0.25"></line></g></g></g><g><g><line x1="0" y1="574.8924980163575" x2="288.850998878479" y2="574.8924980163575" fill="rgb(0, 0, 0)" stroke="rgb(153, 153, 153)" stroke-width="1.5px"></line></g></g><g><g><line x1="26.259181716225363" y1="0" x2="26.259181716225363" y2="176.88999938964844" fill="rgb(0, 0, 0)" stroke="rgb(153, 153, 153)" stroke-width="1.5px"></line></g></g><g><g><g><g><g><path style="fill: none;" stroke="rgb(255, 112, 67)" stroke-width="2px" d="M34.92471168257973,-9.797377330178627L35.05600759116086,3.0369539965984096L35.18730349974199,4.199113782563283L35.31859940832312,-7.874145215552284L36.50026258555326,-2.843409656111137L36.762854402715504,3.306790094276233L36.894150311296634,13.996533988510404L37.15674212845889,2.287034581202943L37.28803803704002,-0.6151297307255228L37.55062985420227,5.311398401494173L37.6819257627834,12.81231459313587L38.07581348852678,17.94192963808714L38.2071093971079,14.093850764126564L38.86358894001354,13.43374841304352L39.38877257433804,19.910100619558847L39.52006848291917,24.1828852460552L39.913956208662555,18.727224219244132L40.30784393440594,33.859681984194786L40.43913984298707,29.356473851560715L40.70173166014931,21.049389627573387L40.83302756873044,29.212278350715096L41.35821120305495,42.48160760120837L41.6208030202172,46.42805664806522L42.27728256312284,52.23294121709224L42.802466197447345,60.45524408351662L42.933762106028475,69.32999816367044L43.19635392319072,59.337627153076845L43.45894574035297,56.89131781365842L43.590241648934104,61.274818214865114L43.721537557515234,56.929980179205174L43.98412937467749,65.88821880820471L44.24672119183973,72.97640485224898L44.37801710042086,73.32494465357779L45.16579255190763,68.81155189633748L45.29708846048876,84.10528879022537L45.559680277651005,85.00668175009298L45.69097618623213,77.05004658835885L46.08486391197551,66.95718232428429L47.0039352720434,51.92866528402317L47.26652708920565,69.3810800307776L47.39782299778678,74.65072035357365L47.660414814949036,70.81704165787562L47.923006632111296,74.17816936946238L48.18559844927354,76.55889077588947L48.710782083598055,87.88415142481276L48.84207799217918,81.7524566974492L48.97337390076031,95.4348023100592L49.367261626503684,93.93282034514303L49.49855753508481,99.06718883344519L49.62985344366594,96.15358264424019L49.76114935224707,95.72425183702215L50.02374116940932,89.97744401373417L50.15503707799045,82.67941989295399L50.548924803733826,88.52682514816185L50.68022071231495,91.11412085862729L50.81151662089608,90.87164899468871L51.20540434663946,89.39021038192195L51.33670025522059,109.47197691583834L51.467996163801715,106.67270237868478L51.599292072382845,97.39790621312743L51.99317979812622,102.59032963160676L52.387067523869604,106.38873315101681L52.51836343245073,110.1818028617008L52.64965934103186,110.35315490080046L52.91225115819411,107.8936087717849L53.04354706677523,109.79544514738309L53.17484297535636,119.87428491702323L53.306138883937486,117.68551143976084L53.568730701099746,114.64278160772294L53.831322518262,105.8680720676675L54.09391433542425,109.00803318988181L54.3565061525865,103.98447947675476L54.61909796974876,105.14094860879632L54.75039387832988,93.32656861270213L55.01298569549214,95.46305125711919L55.144281604073264,105.04703433528785L55.275577512654394,102.25101750629858L55.40687342123552,94.23335445576228L55.53816932981664,97.1883845303993L55.8007611469789,102.64538785379219L55.93205705556002,110.05303603504902L56.457240689884536,112.09150769323875L56.85112841562791,119.85900412010393L57.245016141371295,119.02511931015563L57.50760795853355,103.23369870218039L57.63890386711468,93.12390478233763L57.7701997756958,90.97576936988258L58.032791592858054,96.18320929337143L58.16408750143918,107.74359846205256L58.42667931860144,118.3727862165902L58.55797522718256,123.4876977794234L58.68927113576369,117.89652325048624L58.82056704434482,129.2267573900775L59.47704658725045,132.17852916736723L59.60834249583157,117.97011261517407L59.7396384044127,109.0065388635405L60.133526130156085,112.85100293880343L60.264822038737215,126.51462453407765L60.39611794731833,125.5541669141261L60.52741385589946,107.28602739214386L60.790005673061714,120.13959909007497L61.84037294171073,117.36509878138263L61.971668850291856,127.54818927177611L62.36555657603524,124.9908650064149L62.49685248461637,124.0082170298688L62.6281483931975,128.7194047660894L62.890740210359745,131.1336289185045L63.153332027522,137.38734081812225L63.41592384468425,143.45861024073764L63.54721975326538,133.24346247728693L63.809811570427634,117.4981287201096L64.07240338758989,126.1117303633177L64.20369929617101,117.4046765907206L64.46629111333327,111.49286979193967L65.1227706562389,117.42873329096467L65.25406656482004,110.00210460822544L65.38536247340116,125.02127194258347L65.51665838198228,130.1137380719701L65.6479542905634,115.46090499328925L66.30443383346905,110.28437673935271L66.56702565063131,126.93147385181042L66.69832155921242,122.1871227399651L66.82961746779355,117.31383306151234L66.96091337637468,117.41202416974708L67.35480110211806,131.62407934584428L67.48609701069918,134.74557924401446L67.87998473644257,125.33559333501964L68.14257655360481,120.54741814904384L68.27387246218595,135.19949601430204L68.66776018792933,128.92168433856793L68.93035200509158,128.68236294506633L69.5868315479972,136.19107684589244L69.71812745657834,135.58171220839225L69.84942336515947,132.76099826322962L69.98071927374059,126.88632855021625L70.63719881664623,128.73435025933907L70.76849472522736,141.2559305706758L71.03108654238962,139.2238231379532L71.424974268133,137.11705191983106L71.55627017671412,133.6725021017612L71.68756608529524,130.62295252360613L71.81886199387637,129.63062698677533L72.08145381103863,132.17598948080382L72.34404562820087,128.36627339711742L72.60663744536312,131.2315030578471L72.73793335394426,135.10184522308296L72.86922926252538,136.3747085960916L73.00052517110652,132.39783145288152L73.39441289684989,132.85377363223648L73.65700471401215,122.55648846731592L73.9195965311744,131.28704160805492L74.05089243975553,146.62739119566604L74.18218834833665,130.40260356623136L74.31348425691777,132.11465910290613L74.44478016549891,126.23828420765037L74.57607607408004,124.31617661671783L74.70737198266116,123.24969181284185L75.49514743414792,133.7238648075793L75.8890351598913,130.3299732902214L76.02033106847243,126.07144134278386L76.54551470279694,144.7994461376737L76.93940242854032,146.16087364750322L77.07069833712146,143.32257773865743L77.59588197144595,142.78586212376516L77.72717788002709,148.5017662163252L77.8584737886082,134.49354124227835L77.98976969718933,127.86180629874801L78.12106560577045,143.12331073854514L78.25236151435159,128.74514577116423L78.38365742293271,129.4283237074134L78.51495333151384,125.37328366621728L78.64624924009496,126.25400058287532L78.77754514867608,133.50397438653087L79.04013696583834,145.6249285962425L79.17143287441948,156.03324024858142L79.43402469158173,155.85154917365367L79.95920832590623,152.0810138607445L80.09050423448737,141.25634427715462L80.48439196023074,153.58016655639514L80.61568786881188,153.97205240523647L80.746983777393,141.73590891646953L80.87827968597414,138.72373529631784L81.2721674117175,143.63496637570933L81.66605513746087,146.10376269971928L81.79735104604201,134.01838377023023L82.1912387717854,150.36624396678522L82.32253468036652,149.91587286034732L82.84771831469102,145.05571412360095L82.97901422327216,145.84855702869822L83.37290194901553,138.8536129177603L83.50419785759665,147.56553150257022L83.63549376617779,150.30665999176503L83.76678967475891,149.44497256400246L83.89808558334003,162.95806540418383L84.02938149192116,125.24775912236112L84.1606774005023,134.70314806609588L84.29197330908342,145.16955334770063L84.55456512624568,162.72265266599922L84.68586103482679,143.38081152594103L84.81715694340792,145.22883152845785L84.94845285198905,129.6780541498075L85.47363648631355,146.53796389888694L85.60493239489469,142.87745211739272L85.73622830347581,140.15928567625045L85.86752421205695,138.17932681116483L85.99882012063807,131.57822380076672L86.26141193780032,123.12964449457643L86.52400375496258,135.4866524703553L86.78659557212484,128.38968876954758L86.91789148070595,115.96396573627314L87.31177920644933,129.61992391232738L87.44307511503047,133.71464925578863L87.57437102361159,128.2990020477626L87.83696284077384,122.44953887961084L88.0995546579361,130.19612106154395L88.6247382922606,136.3170628017124L88.75603420084173,144.45668334187468L89.14992192658512,148.21029456169572L89.28121783516623,139.46080481754024L89.41251374374737,145.71515655290685L89.54380965232849,149.36125047588143L89.67510556090961,152.60083541935418L89.80640146949075,167.5448059646236L89.93769737807186,163.6421013084808L90.20028919523412,152.46425305709826L90.33158510381526,158.51243832838708L90.46288101239638,160.2387319247819L90.59417692097752,160.8708058146165L90.85676873813976,147.46181195203633L91.25065646388315,151.09857549484477L91.77584009820765,134.7466550458315L92.16972782395102,137.5664199012994L92.30102373253214,142.50358563537802L92.43231964111328,129.62185384504943L92.82620736685666,133.9836955888261L93.08879918401891,135.93373665490702L93.22009509260005,137.1371629935065L93.35139100118117,146.1796298023821L93.4826869097623,140.6115086193609L93.61398281834343,138.39492078900906L93.74527872692454,153.01274702286057L93.87657463550568,136.14595186385495L94.27046236124906,134.17198120123288L94.4017582698302,129.0125014114651L94.5330541784113,123.80307361649326L94.66435008699243,132.91492221878792L95.05823781273583,141.69473203293668L95.9773091728037,124.42397807705255L96.37119689854708,135.06561333586586L96.50249280712822,141.26663210374994L96.76508462429047,132.6610183368528L96.89638053287159,101.27762567523979L97.02767644145273,98.73714599050905L97.15897235003385,131.56569018934456L97.29026825861497,145.35013961821633L97.55286007577722,146.65337794664697L97.68415598435836,154.80632801901305L97.81545189293948,151.648541658437L98.07804371010174,155.8762916077514L98.20933961868286,147.2402700896178L98.60322734442624,142.06376021607733L98.8658191615885,151.74156731998437L99.12841097875075,152.02424880696427L99.25970688733187,145.67396133915807L99.39100279591301,154.95815455629406L100.17877824739976,141.63118133465824L100.3100741559809,129.45500532841757L100.44137006456201,137.31490814834788L100.96655369888653,138.18709591330438L101.3604414246299,141.87970403523624L101.62303324179216,154.7412029137979L102.01692096753554,140.77668832191029L102.54210460186005,149.85241972992785L103.06728823618455,148.69461260486202L103.19858414476569,142.23712308809502L103.32988005334681,149.7983954768119L103.59247187050906,153.24540036586026L103.72376777909018,151.50138136334272L103.85506368767132,145.69802539419405L103.98635959625244,150.05866324819908L104.11765550483358,146.2118734454172L104.38024732199582,149.73779428505796L104.64283913915807,142.75214295424078L104.77413504773921,135.65729260489766L104.90543095632032,141.41370846601794L105.03672686490145,149.9585195398374L105.29931868206371,121.19204434638765L105.43061459064484,129.00146979861634L105.56191049922597,139.0590348398676L105.82450231638822,151.7002218593878L106.2183900421316,148.2918810629634L106.48098185929385,138.1835715019995L106.87486958503723,149.71960821601277L107.00616549361837,149.34835727802266L107.2687573107806,149.1946172119247L107.53134912794286,140.64534696856825L107.79394094510512,141.05779583712575L108.05653276226737,135.233929997814L108.1878286708485,143.4113534105924L108.58171639659189,142.5514596120976L108.713012305173,129.22982366475097L108.84430821375413,125.32067776353132L108.97560412233526,131.3436794315508L109.50078775665976,140.1223587121881L109.76337957382202,155.59053792267582L110.02597139098428,166.62726985859373L110.41985911672765,159.6954450344841L110.55115502530879,134.9144561058978L110.68245093388991,124.19838557968622L110.81374684247103,136.03542389932565L110.94504275105217,137.33044663032143L111.07633865963328,154.69772987739296L111.6015222939578,153.83906585716338L111.86411411112005,157.65062455912974L111.99541001970118,167.97641808123217L112.1267059282823,158.95023670780654L112.25800183686343,161.57930458335156L112.38929774544457,160.15930833464094L112.78318547118793,144.34590800305344L112.91448137976907,131.35718418905137L113.0457772883502,138.22441385950862L113.96484864841807,152.14411567104753L114.35873637416147,147.58360750784277L115.0152159170671,156.36546237770008L115.14651182564822,153.81462745999806L115.27780773422936,162.184890541593L115.67169545997272,147.51805424871964L115.93428727713498,149.78376945157396L116.06558318571611,157.31802839184598L116.19687909429724,130.7173239459736L116.59076682004061,137.77266808511055L117.24724636294624,118.6537290361338L117.5098381801085,122.2340764862725L117.64113408868964,116.59670881452345L117.77242999727075,127.82404512987978L117.90372590585189,129.93473335301556L118.16631772301415,124.71867220072743L118.56020544875751,124.87787981401233L118.69150135733864,141.2800266505025L118.9540931745009,136.33590369746233L119.4792768088254,134.71353903342214L119.61057271740653,146.0605393275806L119.87316453456879,154.08821079077424L120.26705226031217,148.41367179592612L120.52964407747443,144.00879525429397L120.79223589463666,144.02607004235335L120.9235318032178,155.6431316779156L121.05482771179892,163.90752985610558L121.31741952896118,163.55999398649544L121.58001134612343,147.65212569759117L121.71130725470456,126.78584544461171L121.84260316328569,140.91730132052842L121.97389907186682,155.18161339391335L122.10519498044795,147.15222247598922L122.3677867976102,162.02032062171295L122.49908270619132,155.19154744017928L122.63037861477245,155.7399312762565L123.28685815767808,152.97663341366382L123.4181540662592,156.5415782684289L123.54944997484034,168.79920750211483L123.81204179200259,144.73798297790546L123.94333770058371,135.67724889793823L124.07463360916485,139.07637318381177L124.20592951774597,142.5784654162158L125.12500087781386,149.89491245322188L125.51888860355724,158.06974423836462L125.65018451213837,157.63509494988332L125.91277632930063,160.1262342403613L126.56925587220626,174.6119856657122L126.70055178078739,155.8712369109294L126.8318476893685,149.97432093555759L127.22573541511188,142.90828559409368L127.35703132369302,142.6883254959194L127.61962314085527,101.01041376121832L127.75091904943639,124.85180984411735L127.88221495801753,125.99750274352614L128.14480677517977,138.29250089700665L128.2761026837609,145.41371531417408L128.53869450092316,147.5537539212314L128.66999040950427,146.00923237203267L128.8012863180854,135.76634137375476L128.93258222666654,152.6461298015965L129.06387813524768,159.1883248527396L129.19517404382879,157.5605532010201L129.85165358673441,153.60492538764336L129.98294949531555,149.55811795899504L130.2455413124778,149.8067523109168L130.50813312964007,139.37518564984723L130.77072494680232,160.4089481846257L130.90202085538343,157.53071898659138L131.2959085811268,147.67070675844369L131.42720448970795,146.7217682291845L131.95238812403247,135.62074821513724L132.08368403261358,109.87865655147937L132.2149799411947,113.18470204047546L132.34627584977585,119.67355217532642L132.7401635755192,136.13481380468144L133.13405130126262,141.4895346277328L133.79053084416825,141.83596433772874L133.92182675274935,146.5188344618102L134.1844185699116,159.4088125264741L134.31571447849274,140.29722412208142L134.44701038707387,135.25710378327207L134.70960220423612,131.7041010568265L134.84089811281723,120.32759199086473L134.97219402139837,119.79023116059362L135.1034899299795,129.28483546205007L135.628673564304,145.55358720973987L135.75996947288513,148.78342843394842L136.02256129004738,166.18291775785218L136.15385719862851,174.87520765707737L136.28515310720962,170.49944400353516L136.5477449243719,156.42348697673182L136.67904083295304,156.70840834553107L137.0729285586964,131.68182799913023L137.33552037585866,130.35155115462854L137.9919999187643,133.0309995602926L138.12329582734543,136.23552566830935L138.51718355308878,105.4242389703281L138.91107127883217,121.23063700399622L139.30495900457555,149.3498263059387L139.4362549131567,156.10581249004258L139.5675508217378,155.28932121823843L139.96143854748118,139.35632807542396L140.09273445606232,148.43456774071072L140.61791809038684,146.2652775131863L140.74921399896795,162.31591409757814L142.06217308477923,155.63743856499138L142.32476490194148,164.7641093306583L142.4560608105226,170.49593843884153L142.58735671910372,165.4565994359535L142.71865262768486,164.42228088764978L142.9812444448471,166.1353523137804L143.24383626200935,151.9262145127984L143.50642807917163,149.19125935942984L143.90031580491498,134.76716367344966L144.16290762207726,127.22626492234119L144.2942035306584,140.1558846757442L144.68809125640175,132.78312269960048L144.81938716498288,143.21765459724455L145.08197898214516,154.54143025408192L145.34457079930738,133.97999942442448L145.4758667078885,136.8789266571914L145.60716261646965,143.38366233695214L145.8697544336319,141.86692345252817L146.00105034221303,148.7856704146214L146.26364215937528,163.42738568284463L146.39493806795642,159.59360161738618L146.65752988511863,137.57324084180297L146.9201217022809,141.35061017124883L147.05141761086202,133.2408839607222L147.3140094280243,152.15426035458813L147.57660124518654,147.32602333079407L148.10178487951106,159.02351486495013L148.23308078809217,155.0935767236331L148.3643766966733,156.93658037962516L148.4956726052544,135.33253090581536L148.62696851383555,131.08119682974728L148.7582644224167,149.0176152179114L148.88956033099782,149.84916645702148L149.15215214816007,155.45187961177757L149.6773357824846,152.18577257870587L149.9399275996468,144.57176023304694L150.07122350822794,135.9505571211246L150.46511123397133,146.13696547384052L150.99029486829585,116.57232369123345L151.3841825940392,124.42957261433345L151.64677441120148,96.17273380376086L151.7780703197826,114.34228826651727L151.90936622836372,119.70223485686533L152.43454986268824,85.90893762006145L152.56584577126938,94.57276200198501L152.69714167985052,117.70502766672803L152.8284375884316,128.6722818729471L152.95973349701273,136.05125271136802L153.09102940559387,150.0826920673194L153.35362122275612,147.21259679682035L153.48491713133726,148.95098938492515L153.87880485708064,147.3309985759745L154.53528439998627,133.5860453974622L154.7978762171485,147.0263495762409L154.92917212572965,145.10412699489086L155.1917639428919,125.38805229728597L155.32305985147303,130.6256634699431L155.84824348579752,153.62979975994736L156.11083530295977,159.07957940765738L156.2421312115409,153.4781330851431L156.37342712012205,164.0839832734189L156.6360189372843,136.62939783491538L156.89861075444657,113.45381405506481L157.02990666302767,112.34002115357578L157.1612025716088,123.65173708868438L157.42379438877106,127.47982035404857L157.55509029735217,125.77517208326532L157.81768211451444,129.76972317230044L157.94897802309558,140.99160161558447L158.0802739316767,127.23788941251074L158.21156984025782,129.98007872035106L158.34286574883896,146.58693546695747L158.47416165742007,139.53066274268383L159.1306412003257,135.15141334109816L159.39323301748794,127.10289167041003L159.65582483465022,135.22017034091905L159.78712074323136,154.0992466339172L159.91841665181246,139.38095852322164L160.5748961947181,136.0060603979385L161.1000798290426,134.32533052900308L161.36267164620486,167.90537810195968L161.493967554786,136.19753612557244L162.28174300627273,139.76324622907816L162.41303891485387,147.6373756826555L162.544334823435,152.10455062083784L162.67563073201615,153.50898378518386L162.80692664059725,142.28283385376076L163.33211027492175,150.67369932208092L163.59470209208402,130.68767507756104L163.72599800066513,121.8291286460812L164.51377345215192,125.39528198779321L164.64506936073303,139.6327713242134L165.03895708647642,141.3101192712332L165.30154890363866,141.96143817673422L165.4328448122198,122.70926111994069L165.56414072080094,123.85352454166436L165.82673253796318,143.3567385105184L166.22062026370654,134.00283193043055L166.35191617228767,144.48603007002683L166.4832120808688,161.26278909259304L166.74580389803106,155.82206359431004L166.8770998066122,143.8293116933451L167.0083957151933,152.6551312802415L167.13969162377444,156.6850838300823L167.27098753235558,151.77800373664476L167.4022834409367,130.32262128130287L167.79617116668007,133.2859863811525L167.9274670752612,129.85930097726018L168.19005889242345,84.02562572922295L168.3213548010046,101.31600235315211L168.4526507095857,117.14593756183717L168.8465384353291,129.72034136314977L168.97783434391022,144.2160515142528L169.10913025249135,143.8468563374086L169.63431388681585,147.32558956281096L169.76560979539698,124.23464007521902L169.8969057039781,131.16677987069863L170.55338524688375,85.93701272421029L170.81597706404597,101.15284409697081L171.07856888120824,98.8406303072641L171.20986478978938,129.35477829624315L171.3411606983705,149.70140333357082L171.7350484241139,149.3153071287979L171.866344332695,157.5339418496161L171.99764024127614,160.40040284695633L172.12893614985728,116.87826865042399L172.26023205843836,123.96906036462259L172.3915279670195,138.0670835521549L172.52282387560064,133.6146506770122L172.65411978418177,136.60677515358879L172.91671160134402,143.68688464172908L173.3105993270874,106.39468001432063L173.57319114424968,115.18350786588215L173.70448705283076,122.65828018949277L174.09837477857417,123.19803180756817L174.22967068715528,138.170299070605L174.49226250431755,151.47823755964512L174.62355841289866,134.59303187396415L174.7548543214798,119.86163979340566L174.88615023006093,134.3537225668326L175.01744613864207,145.5755239742615L175.2800379558043,134.9036486540144L175.41133386438543,136.98362717042673L175.54262977296656,119.83377293311818L175.67392568154767,100.19582699797488L175.93651749870995,95.34405254874392L176.33040522445333,107.97369063428081L176.7242929501967,119.18177143749071L176.85558885877782,124.45233862532038L177.11818067594007,117.77672584473832L177.2494765845212,112.85341594726555L177.38077249310234,120.25525001534183L177.51206840168345,124.55175034027474L177.6433643102646,130.77955933309718L177.77466021884572,142.99050598421982L178.03725203600797,148.78824335018402L178.56243567033246,146.9703266338455L178.6937315789136,156.30030218470017L178.95632339607585,152.08773337448167L179.21891521323812,156.33758799366615L179.48150703040037,150.88672546192183L179.6128029389815,148.475458213615L180.40057839046824,137.95167371108798L180.53187429904938,132.84509373073126L180.79446611621162,143.39945138979L180.92576202479276,156.92608341836458L181.0570579333739,150.75719909439928L181.5822415676984,141.81417755897064L181.84483338486064,137.8091745949728L182.1074252020229,139.70309895206964L182.37001701918516,140.8072186775675L182.5013129277663,118.99963942656582L182.63260883634743,142.6754328736594L183.02649656209078,112.6136907424989L183.1577924706719,126.02033850916563L183.28908837925303,146.34046370632092L183.5516801964153,149.07095933655853L183.6829761049964,135.7091525846918L184.07686383073982,140.0750595798709L184.20815973932093,133.6876304087353L184.6020474650643,113.90501817974769L184.73334337364543,110.64364222653239L184.86463928222656,106.93632020958319L185.1272310993888,127.84519018647465L185.65241473371333,126.69072662335039L185.78371064229447,148.87483835786492L185.91500655087557,134.40719576989918L186.17759836803782,133.23383886769443L186.30889427661896,144.697616611248L186.83407791094348,118.39393824502163L186.9653738195246,127.49643274029167L187.22796563668686,131.80423531800736L187.62185336243022,119.77139995556568L187.75314927101135,115.92726656162539L188.14703699675474,128.97027298861522L188.27833290533587,116.45285363489054L188.93481244824147,118.98925631391982L189.19740426540375,125.02545843295829L189.32870017398486,140.706373893805L189.459996082566,146.35652914063033L189.59129199114713,128.9842330612904L189.72258789972827,118.02481156574996L189.85388380830938,114.69078230524838L189.9851797168905,128.61085719209436L190.37906744263387,126.8365360445261L190.510363351215,134.5417309225869L190.64165925979614,137.3669058093027L190.77295516837725,155.96751591263245L191.03554698553953,153.71067536081407L191.29813880270177,139.9224230884398L191.4294347112829,143.78179539168744L191.82332243702626,146.76224753911848L191.9546183456074,152.29353345547017L192.34850607135078,144.64050762374976L192.74239379709417,123.67984935133428L193.2675774314187,126.4032881573439L193.92405697432432,125.34564685276419L194.05535288290545,121.01997752458325L194.18664879148656,105.55592474094746L194.44924060864884,108.4282888891307L194.71183242581108,97.4148354530836L195.10572015155444,116.78036591544246L195.49960787729782,128.2948540291049L195.7621996944601,120.68522291238848L196.15608742020348,114.70268362776574L196.54997514594683,80.81225215869068L196.8125669631091,108.36441770276207L196.94386287169021,111.90948511435258L197.2064546888525,120.34438579955165L197.33775059743363,123.63514862990559L197.86293423175815,138.66600149190296L198.3881178660826,115.86318134264482L198.91330150040713,127.96710881479952L199.04459740898827,117.44429770669343L199.7010769518939,127.07771519209547L199.96366876905614,132.7141636821651L200.09496467763728,116.02055736015166L200.35755649479952,116.72764631991768L200.48885240338066,107.10117946713463L200.7514442205429,113.06350827883367L201.6705155806108,140.647392630033L202.85217875784093,147.73694505608094L202.98347466642207,134.04176187090837L203.24606648358431,143.7663408121968L203.37736239216545,130.48286102971267L203.77125011790883,137.51862699346006L203.90254602648994,149.63277026585848L204.1651378436522,145.77229092088436L204.6903214779767,151.87552289604844L204.95291329513898,133.3991787116989L205.47809692946345,108.74876793849336L205.60939283804458,133.8329804653647L205.74068874662572,105.30708358878331L205.87198465520686,97.50190353859422L206.00328056378797,110.24675048609915L206.5284641981125,119.13879976549441L206.65976010669362,140.23319269498194L206.92235192385584,147.04931084066033L207.05364783243698,115.33397711741277L207.5788314667615,127.20646550835076L207.71012737534264,112.90300765112389L208.23531100966716,133.4667268622784L208.36660691824824,128.85022226239883L208.89179055257276,119.51403189393396L209.28567827831614,92.28669977366889L209.67956600405955,123.73216186440135L209.81086191264063,134.6282558089745L210.0734537298029,113.72471547509844L210.20474963838404,117.27841452150378L210.59863736412743,129.05731451908895L210.86122918128967,126.09011499417103L211.91159644993868,105.03631208683946L212.30548417568207,129.2696373004653L212.4367800842632,130.25945162695552L212.69937190142545,112.06645905382193L212.9619637185877,120.70879215701875L213.0932596271688,116.30364485993184L214.27492280439898,120.83223582574797L214.40621871298012,137.03096839089577L214.5375146215612,121.06934824225718L214.66881053014234,111.41290653852455L214.9314023473046,105.84618993869616L215.19399416446686,118.33666745772695L215.325290073048,120.13673748549081L215.4565859816291,109.88573110349205L215.58788189021024,128.94005492583187L215.9817696159536,130.18473741649294L216.24436143311587,124.8428361191709L216.375657341697,125.55917569601988L216.50695325027812,137.74668674784024L216.63824915885925,152.1378512406951L216.7695450674404,114.45963231374311L216.9008409760215,140.98345113264264L217.03213688460264,148.88958669482278L217.2947287017649,139.83288376330412L217.426024610346,142.86404182147095L217.55732051892713,110.3229037855534L217.68861642750826,131.98437142041783L217.8199123360894,113.09571745848717L217.9512082446705,122.13635245733158L218.08250415325165,145.3754930414259L218.21380006183279,128.0629299178986L218.3450959704139,87.07422030377518L218.47639187899503,84.29275380477728L218.60768778757617,111.43314852552957L219.3954632390629,101.94808708098591L219.7893509648063,109.0702287140929L219.92064687338743,119.08711577037876L220.1832386905497,107.01814265039252L220.3145345991308,111.22781993124292L220.8397182334553,112.42462949263101L220.97101414203644,101.9746125768254L221.10231005061758,126.96763670451563L221.23360595919868,109.06017699297323L221.62749368494207,120.31967484198691L221.7587895935232,125.77312903093264L221.89008550210434,134.08745229047724L222.02138141068545,140.20262257218386L222.15267731926656,138.2781491509832L222.41526913642883,144.01099101602856L222.54656504500997,131.44172292877874L223.07174867933446,110.48406604098679L223.2030445879156,94.72343342201592L223.33434049649674,59.41546031031408L223.59693231365895,75.31710574438206L223.99082003940237,89.95608353902203L224.51600367372686,119.78820591038385L224.647299582308,82.89247017467102L224.77859549088913,99.10807969909553L225.04118730805135,115.54069966912186L225.30377912521362,124.39484677362537L225.43507503379473,112.22882765575133L226.35414639386266,130.46779531926845L226.74803411960602,138.37507956955534L227.01062593676826,137.99271106938582L227.27321775393054,151.6595354271454L227.66710547967392,116.082992266749L227.79840138825506,123.2143483465439L228.1922891139984,116.25530377351879L228.32358502257952,121.70192806385549L228.5861768397418,90.06906346150465L228.71747274832293,109.7923262595011L229.24265638264743,100.76981888200046L229.50524819980967,94.34026176468528L229.6365441083908,105.47527931430908L230.0304318341342,100.96106939797845L230.16172774271533,112.94203708226321L230.29302365129644,111.11272129425235L230.5556154684587,106.59026275287862L230.81820728562096,100.64581992044248L231.2120950113643,98.22507429180763L231.4746868285266,57.53125382894796L231.73727864568883,82.45247611526325L231.86857455426997,88.43519448014857L231.9998704628511,118.55211460340401L232.26246228001335,109.80330314128491L232.5250540971756,98.64531757459547L232.6563500057567,98.456097539344L232.78764591433784,105.09183145734681L232.91894182291898,107.99086557396316L233.31282954866236,74.33095181485521L233.5754213658246,78.8728135119645L233.70671727440575,93.67396614867013L233.83801318298688,90.09562721064627L233.96930909156802,57.15537828090308L234.1006050001491,72.9546757083441L234.49449272589248,85.2110515491853L235.15097226879814,63.11422233550179L235.80745181170377,79.21671021353615L235.93874772028488,103.08241599877267L236.07004362886602,119.71274219733317L236.59522726319054,117.03503980715095L236.72652317177167,127.21239999497276L236.85781908035278,132.93546975720608L237.7768904404207,144.377509517568L237.9081863490018,119.3339610328022L238.17077816616407,134.87100503200676L238.30207407474518,122.24965072642091L238.4333699833263,111.89739786332127L238.56466589190742,122.96110681424571L239.08984952623194,107.87054296044549L239.3524413433942,108.74904893164661L239.61503316055646,116.8612622306777L239.8776249777187,126.9120671632015L240.00892088629982,119.90472551630195L240.4028086120432,118.48025283630395L240.53410452062434,103.18357993417554L241.05928815494886,95.68710431508467L241.19058406352997,98.72037423208967L241.3218799721111,107.06385949444567L241.45317588069224,111.0818873476653L241.71576769785446,126.31080284336662L241.8470636064356,104.02834355944697L242.50354314934125,99.32968755880526L242.63483905792236,120.72659917624377L242.89743087508464,98.62818570877599L243.16002269224686,118.69454406228431L243.291318600828,118.11234063446125L243.42261450940913,114.82080124745L243.55391041799024,116.11585614549352L243.8165022351525,95.21188284596396L244.07909405231476,91.00490970899098L244.60427768663925,110.66015682791726L244.86686950380152,115.85959042227915L245.12946132096377,123.71613444602822L245.52334904670715,121.6278104921062L245.6546449552883,93.24830672174934L246.17982858961278,101.17181415540676L246.57371631535617,123.49540907513779L246.8363081325184,117.07554044134585L246.96760404109955,101.3053560615389L247.09889994968069,85.00961771192337L247.23019585826182,97.16926063246667L247.62408358400518,80.56392368662155L247.75537949258631,97.1709998470884L247.88667540116742,112.7920678691067L248.01797130974856,113.04930631407109L248.1492672183297,126.08141012203629L248.2805631269108,122.27263566975897L248.67445085265422,117.34274649850111L248.80574676123533,112.95577978722075L248.93704266981646,111.5307843952642L249.19963448697868,115.39403018008038L249.33093039555982,108.47129079574943L249.46222630414096,105.54738075834517L249.5935222127221,112.74786715237427L249.85611402988434,106.45066422454141L250.1187058470466,122.82602228257713L250.51259357279,100.11851654146717L250.7751853899522,97.11741220177515L250.90648129853335,110.72435164357957L251.0377772071145,108.56674366694189L251.1690731156956,106.47829809680283L251.69425675002012,105.56607990992298L251.9568485671824,113.46611738702342L252.08814447576347,89.96297906489755L252.48203220150688,65.68077556409534L252.613328110088,79.75571581849321L252.74462401866913,82.7082373027309L252.87591992725027,95.61325622086224L253.53239947015587,94.11676158466507L254.5827667388049,91.89336842639649L254.71406264738604,99.84438628980803L254.84535855596718,89.23736652038495L255.23924628171054,80.73766708262121L255.50183809887278,98.37301746270911L255.63313400745392,123.69479387210461L255.76442991603506,130.28889035145693L255.89572582461616,108.84103662447333L256.0270217331973,110.72731403053652L256.1583176417784,78.48105511797446L256.28961355035955,105.923189717894L256.5522053675218,113.99768535388564L256.68350127610296,93.43845068564646L257.0773890018463,104.44660658674543L257.73386854475194,104.74333061416979L257.8651644533331,109.25724575694197L258.12775627049535,104.10844965642993L258.25905217907643,86.6634985401912L258.5216439962387,84.22704980458694L259.4407153563066,74.30694537547367L259.57201126488775,104.93310292028399L259.70330717346883,99.59429408972866L260.09719489921224,102.2027075974965L260.2284908077933,107.84293166961753L260.62237853353673,110.23291571456924L260.75367444211787,65.14562152314718L260.884970350699,56.45297524187408L261.01626625928014,76.37552578470161L261.27885807644236,81.5642842478678L261.4101539850235,98.14453921301987L261.6727458021858,99.50914440147805L261.935337619348,105.84423464697656L262.19792943651026,101.63055394259547L262.3292253450914,99.95869985216102L262.72311307083476,92.24991517442295L262.8544089794159,65.67188381864163L262.98570488799703,101.26873648059428L263.11700079657817,84.85907191512213L263.2482967051593,59.996032399776915L263.7734803394838,82.56090360194013L264.036072156646,70.85445393774205L264.56125579097056,88.80877104902018L264.82384760813284,95.8240638065244L265.08643942529505,98.33263469512183L265.2177353338762,95.31478513283955L265.7429189682007,104.07495398391187L266.1368066939441,113.99433171399905L266.26810260252523,107.6636644309985L266.53069441968745,93.08337558165671L266.6619903282686,92.67786701911398L266.9245821454308,108.90005308943597L267.05587805401194,80.34789035115459L267.1871739625931,71.4949423152227L267.44976577975535,91.33253005262983L267.5810616883365,80.08774749595518L267.71235759691757,92.01445202090048L268.50013304840434,101.97297006034621L268.6314289569855,106.87044029626954L268.7627248655666,95.87040471197164L268.89402077414775,98.42123988988959L269.0253166827289,94.91251271059554L269.2879084998911,110.67299607143347L269.41920440847224,95.72359530106733L269.68179622563446,97.83831425888903L270.07568395137787,103.90856956800502L270.60086758570236,107.48393341352688L271.12605122002685,105.02775841536179L271.257347128608,117.35550608980137L271.3886430371891,101.44371534131523L271.51993894577026,74.95964590373039L272.04512258009476,77.21771371434833L272.1764184886759,80.80381881813898L272.30771439725703,104.59352701102743L272.43901030583817,105.85748859105944L272.57030621441925,89.87143640590094L272.7016021230004,100.57271488698649L272.8328980315815,98.88999925969945L273.0954898487438,70.07958477468324L273.22678575732493,65.49458515293126L273.6206734830683,74.63647397225434L273.7519693916494,61.31390626479246L274.01456120881164,62.63183429444926L274.2771530259739,62.05510362678463L274.5397448431362,91.66539861144611L274.6710407517173,84.93633564773207L275.1962243860418,71.14533467470967L275.7214080203663,59.172901727493304L275.9839998375286,74.86437618161077L276.1152957461097,102.14363095890165L276.6404793804342,100.51860517902804L276.90307119759643,105.70209824494859L277.03436710617757,104.14434882997341L277.1656630147587,90.13685621090175L277.5595507405021,94.36192820074055L277.9534384662455,57.49210430273645L278.21603028340775,69.89982074646463L278.74121391773224,76.49272134740744" fill="none"></path></g></g></g></g><g opacity="0.2"><g><g><g><path style="fill: none;" stroke="rgb(255, 112, 67)" stroke-width="2px" d="M34.92471168257973,-4.819291594089009L35.05600759116086,22.288450435185943L35.18730349974199,5.942353431542856L35.31859940832312,-25.98403352593232L35.7124871340665,-3.094732074390803L36.50026258555326,2.6411943590901372L36.762854402715504,12.532089707525282L36.894150311296634,30.03114981700127L37.15674212845889,-15.277214521305735L37.28803803704002,-4.968376197361067L37.55062985420227,14.201190598283567L37.6819257627834,24.06368887942881L38.07581348852678,25.6363522050342L38.2071093971079,8.32173245340163L38.86358894001354,12.443594886441126L39.38877257433804,29.624628929201208L39.52006848291917,30.59206218574763L39.913956208662555,10.543732679067022L40.30784393440594,56.55836863155492L40.43913984298707,22.601661652621246L40.70173166014931,8.588763291605561L40.83302756873044,41.4566114354202L41.35821120305495,62.38560147694079L41.6208030202172,52.34773021834918L42.27728256312284,60.94026807063164L42.802466197447345,72.78869838315222L42.933762106028475,82.64212928390043L43.19635392319072,44.349070637186735L43.45894574035297,53.22185380453084L43.590241648934104,67.85006881667505L43.721537557515234,50.41272312571527L43.98412937467749,79.32557675170392L44.24672119183973,83.60868391831536L44.37801710042086,73.84775435557094L45.16579255190763,62.04146276047686L45.29708846048876,107.04589413105715L45.559680277651005,86.35877118989448L45.69097618623213,65.11509384575766L46.08486391197551,51.81788592817247L47.0039352720434,29.3858897236314L47.26652708920565,95.55970215090929L47.39782299778678,82.5551808377677L47.660414814949036,65.06652361432862L47.923006632111296,79.21986093684245L48.18559844927354,80.12997288553015L48.710782083598055,104.87204239819768L48.84207799217918,72.55491460640405L48.97337390076031,115.95832072897429L49.367261626503684,91.67984739776877L49.49855753508481,106.76874156589838L49.62985344366594,91.78317336043257L49.76114935224707,95.08025562619514L50.02374116940932,81.35723227880226L50.15503707799045,71.73238371178377L50.548924803733826,97.2979330309736L50.68022071231495,94.99506442432539L50.81151662089608,90.50794119878084L51.20540434663946,87.16805246277181L51.33670025522059,139.5946267167128L51.467996163801715,102.47379057295439L51.599292072382845,83.48571196479134L51.99317979812622,110.37896475932575L52.387067523869604,112.08633843013195L52.51836343245073,115.87140742772682L52.64965934103186,110.61018295944999L52.91225115819411,104.20428957826152L53.04354706677523,112.64819971078032L53.17484297535636,134.99254457148348L53.306138883937486,114.40235122386733L53.568730701099746,110.07868685966605L53.831322518262,92.7060077575843L54.09391433542425,113.7179748732033L54.3565061525865,96.44914890706423L54.61909796974876,106.87565230685868L54.75039387832988,75.60499861856078L55.01298569549214,98.66777522374468L55.144281604073264,119.42300895254084L55.275577512654394,98.05699226281467L55.40687342123552,82.20685987995786L55.53816932981664,101.6209296423549L55.8007611469789,110.8308928388815L55.93205705556002,121.16450830693432L56.457240689884536,115.14921518052324L56.85112841562791,131.51024876040177L57.245016141371295,117.77429209523326L57.50760795853355,79.54656779021752L57.63890386711468,77.95921390257355L57.7701997756958,87.75356625120004L58.032791592858054,103.99436917860476L58.16408750143918,125.0841822150742L58.42667931860144,134.31656784839652L58.55797522718256,131.16006512367312L58.68927113576369,109.50976145708046L58.82056704434482,146.2221085994643L59.47704658725045,136.60618683330176L59.60834249583157,96.6574877868843L59.7396384044127,95.5611782360902L60.133526130156085,118.61769905169785L60.264822038737215,147.0100569269889L60.39611794731833,124.11348048419859L60.52741385589946,79.88381810917055L60.790005673061714,139.41995663697165L61.84037294171073,113.2033483183441L61.971668850291856,142.8228250073662L62.36555657603524,121.15487860837311L62.49685248461637,122.53424506504963L62.6281483931975,135.7861863704202L62.890740210359745,134.75496514712722L63.153332027522,146.76790866754894L63.41592384468425,152.56551437466078L63.54721975326538,117.92074083211084L63.809811570427634,93.8801280843436L64.07240338758989,139.03213282812976L64.20369929617101,104.344095931825L64.46629111333327,102.62515959376833L65.1227706562389,126.33252853950218L65.25406656482004,98.86216158411663L65.38536247340116,147.55002294412046L65.51665838198228,137.75243726605007L65.6479542905634,93.48165537526802L66.30443383346905,102.51958435844791L66.56702565063131,151.90211952049685L66.69832155921242,115.0705960721971L66.82961746779355,110.0038985438332L66.96091337637468,117.55931083209909L67.35480110211806,152.94216210999005L67.48609701069918,139.4278290912698L67.87998473644257,111.22061447152737L68.14257655360481,113.36515537008017L68.27387246218595,157.1776128121892L68.66776018792933,119.50496682496671L68.93035200509158,128.3233808548139L69.5868315479972,147.4541476971317L69.71812745657834,134.6676652521419L69.84942336515947,128.52992734548573L69.98071927374059,118.07432398069616L70.63719881664623,131.5063828230232L70.76849472522736,160.03830103768087L71.03108654238962,136.17566198886928L71.424974268133,133.95689509264778L71.55627017671412,128.50567737465647L71.68756608529524,126.04862815637354L71.81886199387637,128.14213868152913L72.08145381103863,135.99403322184662L72.34404562820087,122.65169927158787L72.60663744536312,135.52934754894162L72.73793335394426,140.90735847093677L72.86922926252538,138.2840036556045L73.00052517110652,126.4325157380663L73.39441289684989,133.53768690126893L73.65700471401215,107.11056071993517L73.9195965311744,144.38287131916334L74.05089243975553,169.63791557708285L74.18218834833665,106.06542212207933L74.31348425691777,134.68274240791834L74.44478016549891,117.42372186476679L74.57607607408004,121.43301523031914L74.70737198266116,121.64996460702788L75.49514743414792,149.43512429968544L75.8890351598913,125.23913601418465L76.02033106847243,119.6836434216275L76.54551470279694,172.89145333000855L76.93940242854032,148.20301491224748L77.07069833712146,139.0651338753887L77.59588197144595,141.98078870142675L77.72717788002709,157.07562235516528L77.8584737886082,113.48120378120804L77.98976969718933,117.91420388345252L78.12106560577045,166.01556739824085L78.25236151435159,107.17789832009295L78.38365742293271,130.45309061178708L78.51495333151384,119.290723604423L78.64624924009496,127.5750759578623L78.77754514867608,144.37893509201422L79.04013696583834,163.80635991081002L79.17143287441948,171.64570772708979L79.43402469158173,155.5790125612621L79.95920832590623,146.42521089138063L80.09050423448737,125.01933990176987L80.48439196023074,172.06589997525592L80.61568786881188,154.5598811784985L80.746983777393,123.38169368331913L80.87827968597414,134.20547486609033L81.2721674117175,151.00181299479664L81.66605513746087,149.8069571857341L81.79735104604201,115.89031537599658L82.1912387717854,174.8880342616176L82.32253468036652,149.24031620069036L82.84771831469102,137.76547601848145L82.97901422327216,147.03782138634418L83.37290194901553,128.36119675135342L83.50419785759665,160.63340937978504L83.63549376617779,154.4183527255573L83.76678967475891,148.1524414223586L83.89808558334003,183.2277046644558L84.02938149192116,68.68229969962704L84.1606774005023,148.88623148169793L84.29197330908342,160.86916127010775L84.55456512624568,189.05230164344724L84.68586103482679,114.36804981585374L84.81715694340792,148.00086153223313L84.94845285198905,106.35188808183193L85.47363648631355,171.82782852250605L85.60493239489469,137.38668444515136L85.73622830347581,136.08203601453718L85.86752421205695,135.2093885135364L85.99882012063807,121.67656928516953L86.26141193780032,110.45677553529094L86.52400375496258,154.0221644340236L86.78659557212484,117.74424321833614L86.91789148070595,97.32538118636148L87.31177920644933,150.10386117640886L87.44307511503047,139.85673727098037L87.57437102361159,120.17553123572364L87.83696284077384,113.67534412738314L88.0995546579361,141.81599433444356L88.6247382922606,145.49847541196507L88.75603420084173,156.66611415211813L89.14992192658512,153.84071139142728L89.28121783516623,126.33657020130705L89.41251374374737,155.0966841559566L89.54380965232849,154.83039136034316L89.67510556090961,157.4602128345632L89.80640146949075,189.9607617825277L89.93769737807186,157.78804432426662L90.20028919523412,135.69748068002448L90.33158510381526,167.58471623532026L90.46288101239638,162.8281723193741L90.59417692097752,161.8189166493685L90.85676873813976,127.34832115816609L91.25065646388315,156.5537208090573L91.77584009820765,110.2187743723116L92.16972782395102,141.79606718450125L92.30102373253214,149.90933423649588L92.43231964111328,110.29925615955653L92.82620736685666,140.52645820449106L93.08879918401891,138.85879825402844L93.22009509260005,138.94230250140572L93.35139100118117,159.74333001569542L93.4826869097623,132.25932684482905L93.61398281834343,135.07003904348133L93.74527872692454,174.93948637363795L93.87657463550568,110.84575912534639L94.27046236124906,131.21102520729985L94.4017582698302,121.27328172681337L94.5330541784113,115.9889319240356L94.66435008699243,146.5826951222298L95.05823781273583,154.8644467541599L95.9773091728037,98.51784714322639L96.37119689854708,151.0280662240857L96.50249280712822,150.568160255576L96.76508462429047,119.75259768650722L96.89638053287159,54.20253668282022L97.02767644145273,94.92642646341301L97.15897235003385,180.8085064875977L97.29026825861497,166.02681376152398L97.55286007577722,148.6082354392929L97.68415598435836,167.03575312756223L97.81545189293948,146.91186211757307L98.07804371010174,162.21791653172298L98.20933961868286,134.28623781241734L98.60322734442624,134.29899540576665L98.8658191615885,166.258277975845L99.12841097875075,152.4482710374341L99.25970688733187,136.14853013744872L99.39100279591301,168.88444438199807L100.17877824739976,121.64072150220454L100.3100741559809,111.19074131905656L100.44137006456201,149.10476237824335L100.96655369888653,139.49537756073917L101.3604414246299,147.41861621813405L101.62303324179216,174.03345123164038L102.01692096753554,119.8299164340788L102.54210460186005,163.46601684195414L103.06728823618455,146.9579019172634L103.19858414476569,132.55088881294435L103.32988005334681,161.14030405988706L103.59247187050906,158.4159076994329L103.72376777909018,148.88535285956644L103.85506368767132,136.99299144047112L103.98635959625244,156.5996200292066L104.11765550483358,140.44168874124443L104.38024732199582,155.0266755445191L104.64283913915807,132.27366595801504L104.77413504773921,125.01501708088291L104.90543095632032,150.04833225769838L105.03672686490145,162.77573615056647L105.29931868206371,78.04233155621296L105.43061459064484,140.7156079769593L105.56191049922597,154.14538240174446L105.82450231638822,170.66200238866807L106.2183900421316,143.17936986832686L106.48098185929385,123.02110716055361L106.87486958503723,167.02366328703286L107.00616549361837,148.7914808710375L107.2687573107806,148.96400711277786L107.53134912794286,127.82144160353349L107.79394094510512,141.67646913996217L108.05653276226737,126.49813123884636L108.1878286708485,155.67748852976004L108.58171639659189,141.26161891435552L108.713012305173,109.24736974373083L108.84430821375413,119.4569589117018L108.97560412233526,140.37818193358L109.50078775665976,153.2903776331441L109.76337957382202,178.7928067384073L110.02597139098428,183.18236776247068L110.41985911672765,149.29770779831964L110.55115502530879,97.7429727130184L110.68245093388991,108.12427979036876L110.81374684247103,153.79098137878464L110.94504275105217,139.27298072681518L111.07633865963328,180.7486547480003L111.6015222939578,152.551069826819L111.86411411112005,163.3679626120793L111.99541001970118,183.46510836438577L112.1267059282823,145.41096464766818L112.25800183686343,165.522906396669L112.38929774544457,158.02931396157513L112.78318547118793,120.62580750567213L112.91448137976907,111.87409846804803L113.0457772883502,148.52525836519453L113.96484864841807,173.0236683883559L114.35873637416147,140.74284526303566L115.0152159170671,169.53824468248607L115.14651182564822,149.98837508344513L115.27780773422936,174.74028516398542L115.67169545997272,125.51779980940958L115.93428727713498,153.1823422558555L116.06558318571611,168.61941680225394L116.19687909429724,90.81626727716503L116.59076682004061,148.35568429381604L117.24724636294624,89.9753204626686L117.5098381801085,127.60459766148053L117.64113408868964,108.14065730689981L117.77242999727075,144.66504960291425L117.90372590585189,133.10076568771913L118.16631772301415,116.89458047229527L118.56020544875751,125.11669123393949L118.69150135733864,165.8832469052377L118.9540931745009,128.91971926790214L119.4792768088254,132.2799920373618L119.61057271740653,163.0810397688183L119.87316453456879,166.12971798556467L120.26705226031217,139.90186330365395L120.52964407747443,137.4014804418457L120.79223589463666,144.05198222444233L120.9235318032178,173.06872413125896L121.05482771179892,176.3041271233906L121.31741952896118,163.03869018208027L121.58001134612343,123.79032326423476L121.71130725470456,95.48642506514261L121.84260316328569,162.1144851344034L121.97389907186682,176.57808150399072L122.10519498044795,135.10813609910295L122.3677867976102,184.32246784029851L122.49908270619132,144.9483876678787L122.63037861477245,156.56250703037225L123.28685815767808,148.83168661977473L123.4181540662592,161.8889955505765L123.54944997484034,187.18565135264365L123.81204179200259,108.64614619159147L123.94333770058371,122.08614777798722L124.07463360916485,144.17505961262216L124.20592951774597,147.83160376482192L125.12500087781386,160.86958300873087L125.51888860355724,170.33199191607858L125.65018451213837,156.98312101716147L125.91277632930063,163.86294317607826L126.56925587220626,196.34061280373862L126.70055178078739,127.76011377875513L126.8318476893685,141.1289469724998L127.22573541511188,132.309232581898L127.35703132369302,142.35838534865798L127.61962314085527,38.49354615916672L127.75091904943639,160.61390396846585L127.88221495801753,127.71604209263934L128.14480677517977,156.73499812722733L128.2761026837609,156.09553693992532L128.53869450092316,150.76381183181732L128.66999040950427,143.6924500482346L128.8012863180854,120.40200487633777L128.93258222666654,177.96581244335906L129.06387813524768,169.00161742945423L129.19517404382879,155.11889572344083L129.85165358673441,147.67148366757831L129.98294949531555,143.4879068160226L130.2455413124778,150.1797038387995L130.50813312964007,123.72783565824287L130.77072494680232,191.95959198679338L130.90202085538343,153.2133751895399L131.2959085811268,132.88068841622228L131.42720448970795,145.2983604352958L131.95238812403247,118.96921819406634L132.08368403261358,71.26551905599263L132.2149799411947,118.1437702739695L132.34627584977585,129.40682737760292L132.7401635755192,160.82670624871392L133.13405130126262,149.52161586230977L133.79053084416825,142.35560890272248L133.92182675274935,153.54313964793258L134.1844185699116,178.7437796234699L134.31571447849274,111.62984151549247L134.44701038707387,127.69692327505803L134.70960220423612,126.37459696715815L134.84089811281723,103.26282839192208L134.97219402139837,118.98418991518702L135.1034899299795,143.5267419142347L135.628673564304,169.95671483127447L135.75996947288513,153.62819027026126L136.02256129004738,192.28215174370783L136.15385719862851,187.91364250591505L136.28515310720962,163.93579852322182L136.5477449243719,135.30955143652682L136.67904083295304,157.13579039873002L137.0729285586964,94.1419574795291L137.33552037585866,128.356135887876L137.9919999187643,137.05017216878878L138.12329582734543,141.0423148303344L138.51718355308878,59.20730892335633L138.91107127883217,144.94023405449846L139.30495900457555,191.52861025885252L139.4362549131567,166.23979176619835L139.5675508217378,154.06458431053215L139.96143854748118,115.45683836120226L140.09273445606232,162.05192723864096L140.61791809038684,143.01134217189974L140.74921399896795,186.39186897416587L142.06217308477923,145.61972526611137L142.32476490194148,178.45411547915867L142.4560608105226,179.09368210111646L142.58735671910372,157.8975909316214L142.71865262768486,162.8708030651942L142.9812444448471,168.70495945297628L143.24383626200935,130.61250781132551L143.50642807917163,145.08882662937685L143.90031580491498,113.13102014447944L144.16290762207726,115.91491679567847L144.2942035306584,159.55031430584862L144.68809125640175,121.72397973538502L144.81938716498288,158.86945244371054L145.08197898214516,171.52709373933797L145.34457079930738,103.13785317993826L145.4758667078885,141.22731750634196L145.60716261646965,153.14076585659313L145.8697544336319,139.59181512589205L146.00105034221303,159.16379085776137L146.26364215937528,185.38995858517956L146.39493806795642,153.84292551919864L146.65752988511863,104.54269967842811L146.9201217022809,147.01666416541778L147.05141761086202,121.07629464493222L147.3140094280243,180.524324945387L147.57660124518654,140.0836677951029L148.10178487951106,176.56975216618414L148.23308078809217,149.1986695116575L148.3643766966733,159.70108586361314L148.4956726052544,102.92645669510058L148.62696851383555,124.70419571564527L148.7582644224167,175.92224280015765L148.88956033099782,151.09649331568653L149.15215214816007,163.8559493439116L149.6773357824846,147.28661202909825L149.9399275996468,133.15074171455856L150.07122350822794,123.01875245324118L150.46511123397133,161.41657800291435L150.99029486829585,72.22536101732294L151.3841825940392,136.21544599898334L151.64677441120148,53.787475587902L151.7780703197826,141.59661996065188L151.90936622836372,127.74215474238738L152.43454986268824,35.21899176485567L152.56584577126938,107.56849857487032L152.69714167985052,152.40342616384262L152.8284375884316,145.1231631822757L152.95973349701273,147.11970896899948L153.09102940559387,171.1298511012465L153.35362122275612,142.9074538910718L153.48491713133726,151.55857826708237L153.87880485708064,144.90101236254853L154.53528439998627,112.96861562969389L154.7978762171485,167.18680584440884L154.92917212572965,142.22079312286587L155.1917639428919,95.81394025087867L155.32305985147303,138.48208022892868L155.84824348579752,188.13600419495378L156.11083530295977,167.2542488792224L156.2421312115409,145.07596360137177L156.37342712012205,179.99275855583255L156.6360189372843,95.44751967716002L156.89861075444657,78.69043838528887L157.02990666302767,110.66933180134222L157.1612025716088,140.61931099134748L157.42379438877106,133.22194525209488L157.55509029735217,123.21819967709054L157.81768211451444,135.76154980585306L157.94897802309558,157.8244192805105L158.0802739316767,106.60732110790013L158.21156984025782,134.09336268211155L158.34286574883896,171.49722058686714L158.47416165742007,128.94625365627326L159.1306412003257,128.58253923871965L159.39323301748794,115.03010916437782L159.65582483465022,147.39608834668255L159.78712074323136,182.41786107341431L159.91841665181246,117.30352635717828L160.5748961947181,130.9437132100138L161.1000798290426,131.80423572559997L161.36267164620486,218.27544946139466L161.493967554786,88.63577316099145L162.28174300627273,145.11181138433676L162.41303891485387,159.4485698630215L162.544334823435,158.80531302811144L162.67563073201615,155.61563353170277L162.80692664059725,125.44360895662614L163.33211027492175,163.25999752456121L163.59470209208402,100.7086387107811L163.72599800066513,108.5413089988615L164.51377345215192,130.7445120003613L164.64506936073303,160.98900532884363L165.03895708647642,143.82614119176287L165.30154890363866,142.9384165349857L165.4328448122198,93.8309955347504L165.56414072080094,125.56991967424985L165.82673253796318,172.61155946379952L166.22062026370654,119.97197206029888L166.35191617228767,160.21082727942124L166.4832120808688,186.42792762644243L166.74580389803106,147.66097534688564L166.8770998066122,125.84018384189768L167.0083957151933,165.89386066058617L167.13969162377444,162.73001265484348L167.27098753235558,144.41738359648846L167.4022834409367,98.13954759828994L167.79617116668007,137.73103403092685L167.9274670752612,124.71927287142172L168.19005889242345,15.275112857167175L168.3213548010046,127.25156728904588L168.4526507095857,140.89084037486464L168.8465384353291,148.5819470651186L168.97783434391022,165.95961674090725L169.10913025249135,143.29306357214227L169.63431388681585,152.54368940091445L169.76560979539698,89.59821584383099L169.8969057039781,141.56498956391806L170.55338524688375,18.092362004477756L170.81597706404597,123.9765911561117L171.07856888120824,95.37230962270405L171.20986478978938,175.1260002797117L171.3411606983705,180.22134088956227L171.7350484241139,148.7361628216386L171.866344332695,169.86189393084354L171.99764024127614,164.70009434296662L172.12893614985728,51.59506735562535L172.26023205843836,134.6052479359205L172.3915279670195,159.21411833345337L172.52282387560064,126.93600136429816L172.65411978418177,141.09496186845354L172.91671160134402,154.30704887393952L173.3105993270874,50.456373073207935L173.57319114424968,128.3667496432245L173.70448705283076,133.87043867490868L174.09837477857417,124.00765923468137L174.22967068715528,160.62869996516022L174.49226250431755,171.44014529320523L174.62355841289866,109.26522334544279L174.7548543214798,97.7645516725679L174.88615023006093,156.09184672697305L175.01744613864207,162.40822608540478L175.2800379558043,118.89583567364389L175.41133386438543,140.10359494504522L175.54262977296656,94.1089915771554L175.67392568154767,70.73890809525983L175.93651749870995,88.0663908748975L176.33040522445333,126.91814776258617L176.7242929501967,135.9938926423056L176.85558885877782,132.35818940706488L177.11818067594007,107.76330667386537L177.2494765845212,105.46845110105642L177.38077249310234,131.35800111745633L177.51206840168345,130.99650082767405L177.6433643102646,140.12127282233087L177.77466021884572,161.30692596090378L178.03725203600797,157.48484939913035L178.56243567033246,144.2434515593377L178.6937315789136,170.2952655109821L178.95632339607585,145.76888015915392L179.21891521323812,162.71236992244306L179.48150703040037,142.71043166430536L179.6128029389815,144.85855734115466L180.40057839046824,122.16599695729747L180.53187429904938,125.1852237601961L180.79446611621162,159.23098787837807L180.92576202479276,177.21603146122652L181.0570579333739,141.5038726084513L181.5822415676984,128.39964525582766L181.84483338486064,131.801670148976L182.1074252020229,142.543985487715L182.37001701918516,142.46339826581425L182.5013129277663,86.28827055006332L182.63260883634743,178.1891230442998L183.02649656209078,67.52107754575809L183.1577924706719,146.13031015916567L183.28908837925303,176.82065150205383L183.5516801964153,153.16670278191486L183.6829761049964,115.66644245689169L184.07686383073982,146.62392007263955L184.20815973932093,124.1064866520319L184.6020474650643,84.23109983626638L184.73334337364543,105.75157829670935L184.86463928222656,101.37533718415943L185.1272310993888,159.20849515181183L185.65241473371333,124.95903127866406L185.78371064229447,182.15100595963668L185.91500655087557,112.70573188795062L186.17759836803782,131.47380351438736L186.30889427661896,161.89328322657823L186.83407791094348,78.938420695682L186.9653738195246,141.1501744831967L187.22796563668686,138.26593918458093L187.62185336243022,101.72214691190311L187.75314927101135,110.16106647071503L188.14703699675474,148.53478262909996L188.27833290533587,97.67672460430367L188.93481244824147,122.79386033246374L189.19740426540375,134.079761611516L189.32870017398486,164.22774708507495L189.459996082566,154.8317620108683L189.59129199114713,102.92578894228063L189.72258789972827,101.58567932243932L189.85388380830938,109.68973841449588L189.9851797168905,149.49096952236326L190.37906744263387,124.17505432317375L190.510363351215,146.0995232396781L190.64165925979614,141.6046681393764L190.77295516837725,183.86843106762717L191.03554698553953,150.32541453308662L191.29813880270177,119.24004467987835L191.4294347112829,149.57085384655875L191.82332243702626,151.23292576026506L191.9546183456074,160.59046232999754L192.34850607135078,133.16096887616916L192.74239379709417,92.2388619427111L193.2675774314187,130.4884463663584L193.92405697432432,123.75918489589459L194.05535288290545,114.5314735323118L194.18664879148656,82.35984556549376L194.44924060864884,112.73683511140554L194.71183242581108,80.89465529901281L195.10572015155444,145.82866160898084L195.49960787729782,145.56658619959856L195.7621996944601,109.27077623731385L196.15608742020348,105.72887470083151L196.54997514594683,29.97660495507806L196.8125669631091,149.69266601886923L196.94386287169021,117.22708623173823L197.2064546888525,132.9967368273501L197.33775059743363,128.5712928754365L197.86293423175815,161.21228078489915L198.3881178660826,81.65895111875761L198.91330150040713,146.12300002303166L199.04459740898827,101.66008104453432L199.7010769518939,141.52784142019848L199.96366876905614,141.16883641726966L200.09496467763728,90.98014787713146L200.35755649479952,117.78827975956668L200.48885240338066,92.66147918796014L200.7514442205429,122.00700149638214L201.6705155806108,182.02321915683206L202.85217875784093,158.37127369515292L202.98347466642207,113.49898709314951L203.24606648358431,158.35320922412942L203.37736239216545,110.55764135598656L203.77125011790883,148.07227593908104L203.90254602648994,167.80398517445613L204.1651378436522,139.98157190342317L204.6903214779767,161.03037085879444L204.95291329513898,105.68466243517469L205.47809692946345,71.77315177868513L205.60939283804458,171.45929925567182L205.74068874662572,62.518238273911265L205.87198465520686,85.79413346331057L206.00328056378797,129.3640209073565L206.5284641981125,132.47687368458722L206.65976010669362,171.87478208921314L206.92235192385584,157.2734880591779L207.05364783243698,67.76097653254146L207.5788314667615,145.0151980947576L207.71012737534264,91.44782086528357L208.23531100966716,164.31230567901002L208.36660691824824,121.92546536257943L208.89179055257276,105.50974634123668L209.28567827831614,51.445701593271224L209.67956600405955,170.9003550005L209.81086191264063,150.9723967258342L210.0734537298029,82.36940497428441L210.20474963838404,122.60896309111197L210.59863736412743,146.72566451546666L210.86122918128967,121.63931570679416L211.91159644993868,73.45560772584213L212.30548417568207,165.61962512090398L212.4367800842632,131.74417311669094L212.69937190142545,84.77697019412153L212.9619637185877,133.67229181181395L213.0932596271688,109.6959239143016L214.27492280439898,127.62512227447226L214.40621871298012,161.32906723861745L214.5375146215612,97.12691801929942L214.66881053014234,96.92824398292578L214.9314023473046,97.49611503895358L215.19399416446686,137.072383736273L215.325290073048,122.83684252713648L215.4565859816291,94.50922153049396L215.58788189021024,157.52154065934158L215.9817696159536,132.05176115248472L216.24436143311587,116.8299841731878L216.375657341697,126.63368506129338L216.50695325027812,156.02795332557073L216.63824915885925,173.7245979799773L216.7695450674404,57.9423039233152L216.9008409760215,180.76917936099198L217.03213688460264,160.74879003809295L217.2947287017649,126.24782936602608L217.426024610346,147.41077890872114L217.55732051892713,61.51119673167704L217.68861642750826,164.4765728727143L217.8199123360894,84.76273651559131L217.9512082446705,135.69730495559818L218.08250415325165,180.23420391756736L218.21380006183279,102.09408523260754L218.3450959704139,25.591155882590087L218.47639187899503,80.12055405628053L218.60768778757617,152.14374060665799L219.3954632390629,87.72049491417056L219.7893509648063,119.75344116375345L219.92064687338743,134.11244635480762L220.1832386905497,88.9146829704132L220.3145345991308,117.5423358525186L220.8397182334553,114.2198438347132L220.97101414203644,86.29958720311697L221.10231005061758,164.4571728960509L221.23360595919868,82.19898742565965L221.62749368494207,137.2089216155073L221.7587895935232,133.95331031435128L221.89008550210434,146.55893717979419L222.02138141068545,149.37537799474376L222.15267731926656,135.39143901918217L222.41526913642883,152.61025381359653L222.54656504500997,112.58782079790402L223.07174867933446,79.04758070929893L223.2030445879156,71.0824844935596L223.33434049649674,6.453500642761342L223.59693231365895,99.16957389548406L223.99082003940237,111.91455023098207L224.51600367372686,164.53638946742652L224.647299582308,27.54886657110181L224.77859549088913,123.43149398573225L225.04118730805135,140.1896296241612L225.30377912521362,137.67606743038053L225.43507503379473,93.9797989789404L226.35414639386266,157.82624681454402L226.74803411960602,150.2360059449857L227.01062593676826,137.4191583191314L227.27321775393054,172.15977196378483L227.66710547967392,62.71817752615426L227.79840138825506,133.91138246623632L228.1922891139984,105.81673691398102L228.32358502257952,129.87186449936053L228.5861768397418,42.61976655797844L228.71747274832293,139.3772204564957L229.24265638264743,87.23605781574952L229.50524819980967,84.69592608871244L229.6365441083908,122.17780563874476L230.0304318341342,94.1897545234824L230.16172774271533,130.91348860869041L230.29302365129644,108.3687476122359L230.5556154684587,99.80657494081788L230.81820728562096,91.72915567178825L231.2120950113643,94.59395584885534L231.4746868285266,-3.5094768653416395L231.73727864568883,119.83430954473624L231.86857455426997,97.40927202747663L231.9998704628511,163.72749478828703L232.26246228001335,96.68008594810637L232.5250540971756,81.90833922456113L232.6563500057567,98.17226748646681L232.78764591433784,115.04543233435108L232.91894182291898,112.33941674888777L233.31282954866236,23.84108117619325L233.5754213658246,85.68560605762832L233.70671727440575,115.87569510372853L233.83801318298688,84.72811880361043L233.96930909156802,7.745004886288364L234.1006050001491,96.65362184950574L234.49449272589248,103.5956153104471L235.15097226879814,29.968978514976698L235.80745181170377,103.3704420305876L235.93874772028488,138.8809746766274L236.07004362886602,144.65823149517382L236.59522726319054,113.01848622187754L236.72652317177167,142.47844027670547L236.85781908035278,141.52007440055604L237.7768904404207,161.5405691581109L237.9081863490018,81.76863830565344L238.17077816616407,158.17657103081368L238.30207407474518,103.31761926804212L238.4333699833263,96.36901856867189L238.56466589190742,139.55667024063223L239.08984952623194,85.23469717974513L239.3524413433942,110.06680788844825L239.61503316055646,129.02958217922426L239.8776249777187,141.98827456198708L240.00892088629982,109.39371304595262L240.4028086120432,116.34354381630693L240.53410452062434,80.23857058098292L241.05928815494886,84.44239088644828L241.19058406352997,103.27027910759718L241.3218799721111,119.57908738797963L241.45317588069224,117.10892912749478L241.71576769785446,149.1541760869186L241.8470636064356,70.6046546335674L242.50354314934125,92.28170355784277L242.63483905792236,152.82196660240155L242.89743087508464,65.48056550757428L243.16002269224686,148.79408159254675L243.291318600828,117.23903549272654L243.42261450940913,109.88349216693314L243.55391041799024,118.05843849255872L243.8165022351525,63.85592289666966L244.07909405231476,84.69445000353153L244.60427768663925,140.1430275063067L244.86686950380152,123.65874081382208L245.12946132096377,135.5009504816517L245.52334904670715,118.49532456122327L245.6546449552883,50.67905106621401L246.17982858961278,113.0570753058928L246.57371631535617,156.98080145473432L246.8363081325184,107.44573749065785L246.96760404109955,77.65007949182838L247.09889994968069,60.56601018750007L247.23019585826182,115.40872501328161L247.62408358400518,55.65591826785385L247.75537949258631,122.08161408778871L247.88667540116742,136.22366990213413L248.01797130974856,113.43516398151769L248.1492672183297,145.62956583398412L248.2805631269108,116.55947399134313L248.67445085265422,109.94791274161435L248.80574676123533,106.37532972030023L248.93704266981646,109.3932913073295L249.19963448697868,121.18889885730461L249.33093039555982,98.08718171925284L249.46222630414096,101.16151570223883L249.5935222127221,123.5485967434179L249.85611402988434,97.00485983279214L250.1187058470466,147.3890593696306L250.51259357279,66.05725792980229L250.7751853899522,92.61575569223714L250.90648129853335,131.13476080628607L251.0377772071145,105.33033170198541L251.1690731156956,103.34562974159417L251.69425675002012,104.1977526296032L251.9568485671824,125.31617360267411L252.08814447576347,54.708271581708686L252.48203220150688,29.257470312892103L252.613328110088,100.86812620009005L252.74462401866913,87.13701952908741L252.87591992725027,114.97078459805927L253.53239947015587,91.87201963036932L254.5827667388049,88.5582786889936L254.71406264738604,111.7709130849253L254.84535855596718,73.32683686625023L255.23924628171054,67.98811792597553L255.50183809887278,124.826043032841L255.63313400745392,161.67745848619782L255.76442991603506,140.18003507048527L255.89572582461616,76.66925603399795L256.0270217331973,113.55673013963133L256.1583176417784,30.11166674913146L256.28961355035955,147.0863916177732L256.5522053675218,126.10942880787299L256.68350127610296,62.59959868328769L257.0773890018463,120.95884043839398L257.73386854475194,105.18841665530636L257.8651644533331,116.02811847110024L258.12775627049535,96.38525550566192L258.25905217907643,60.496071865833066L258.5216439962387,80.57237670118047L259.4407153563066,59.426788731803754L259.57201126488775,150.87233923749955L259.70330717346883,91.58608084389562L260.09719489921224,106.11532785914825L260.2284908077933,116.3032677777992L260.62237853353673,113.81789178199688L260.75367444211787,-2.4853197639859252L260.884970350699,43.414005819964586L261.01626625928014,106.2593515989429L261.27885807644236,89.34742194261709L261.4101539850235,123.01492166074787L261.6727458021858,101.55605218416531L261.935337619348,115.34687001522435L262.19792943651026,95.31003288602369L262.3292253450914,97.45091871650949L262.72311307083476,80.68673815781585L262.8544089794159,25.804836784969666L262.98570488799703,154.66401547352328L263.11700079657817,60.244575066913974L263.2482967051593,22.701473126759083L263.7734803394838,116.40821040518495L264.036072156646,53.29477944144491L264.56125579097056,115.74024671593726L264.82384760813284,106.34700294278082L265.08643942529505,102.09549102801793L265.2177353338762,90.78801078941615L265.7429189682007,117.2152072605204L266.1368066939441,128.8733983091297L266.26810260252523,98.16766350649779L266.53069441968745,71.21294230764397L266.6619903282686,92.0696041752999L266.9245821454308,133.23333219491906L267.05587805401194,37.51964624373249L267.1871739625931,58.21552026132485L267.44976577975535,121.0889116587405L267.5810616883365,63.22057366094305L267.71235759691757,109.9045088083185L268.50013304840434,116.91074711951481L268.6314289569855,114.21664565015453L268.7627248655666,79.37035133552492L268.89402077414775,102.24749265676655L269.0253166827289,89.64942194165451L269.2879084998911,134.31372111269047L269.41920440847224,73.29949414551811L269.68179622563446,101.01039269562172L270.07568395137787,113.01395253167902L270.60086758570236,112.84697918180976L271.12605122002685,101.34349591811406L271.257347128608,135.8471276014607L271.3886430371891,77.57602921858597L271.51993894577026,35.23354174735323L272.04512258009476,80.60481543027527L272.1764184886759,86.18297647382497L272.30771439725703,140.2780893003601L272.43901030583817,107.75343096110737L272.57030621441925,65.89235812816332L272.7016021230004,116.62463260861479L272.8328980315815,96.36592581876903L273.0954898487438,26.86396304715889L273.22678575732493,58.6170857203033L273.6206734830683,88.34930720123884L273.7519693916494,41.330054703599664L274.01456120881164,64.6087263389345L274.2771530259739,61.19000762528777L274.5397448431362,136.08084108843835L274.6710407517173,74.84274120216105L275.1962243860418,50.45883321517613L275.7214080203663,41.21425230666863L275.9839998375286,98.40158786278698L276.1152957461097,143.06251312483803L276.6404793804342,98.08106650921764L276.90307119759643,113.47733784382945L277.03436710617757,101.80772470751072L277.1656630147587,69.12561728229412L277.5595507405021,100.6995361854988L277.9534384662455,2.1873684557303736L278.21603028340775,88.51139541205703L278.74121391773224,86.38207224882173" fill="none"></path></g></g></g></g></g></g><g transform="translate(41, 176)" clip-path="url(#clip_1)"><clipPath id="clip_1"><rect width="288" height="23"></rect></clipPath><g><g><line x1="0" y1="0" x2="0" y2="5" style="visibility: inherit;" fill="rgb(0, 0, 0)" stroke="rgb(204, 204, 204)" stroke-width="1px"></line><line x1="26.259181716225363" y1="0" x2="26.259181716225363" y2="5" style="visibility: inherit;" fill="rgb(0, 0, 0)" stroke="rgb(204, 204, 204)" stroke-width="1px"></line><line x1="52.51836343245073" y1="0" x2="52.51836343245073" y2="5" style="visibility: inherit;" fill="rgb(0, 0, 0)" stroke="rgb(204, 204, 204)" stroke-width="1px"></line><line x1="78.77754514867608" y1="0" x2="78.77754514867608" y2="5" style="visibility: inherit;" fill="rgb(0, 0, 0)" stroke="rgb(204, 204, 204)" stroke-width="1px"></line><line x1="105.03672686490145" y1="0" x2="105.03672686490145" y2="5" style="visibility: inherit;" fill="rgb(0, 0, 0)" stroke="rgb(204, 204, 204)" stroke-width="1px"></line><line x1="131.2959085811268" y1="0" x2="131.2959085811268" y2="5" style="visibility: inherit;" fill="rgb(0, 0, 0)" stroke="rgb(204, 204, 204)" stroke-width="1px"></line><line x1="157.55509029735217" y1="0" x2="157.55509029735217" y2="5" style="visibility: inherit;" fill="rgb(0, 0, 0)" stroke="rgb(204, 204, 204)" stroke-width="1px"></line><line x1="183.81427201357755" y1="0" x2="183.81427201357755" y2="5" style="visibility: inherit;" fill="rgb(0, 0, 0)" stroke="rgb(204, 204, 204)" stroke-width="1px"></line><line x1="210.0734537298029" y1="0" x2="210.0734537298029" y2="5" style="visibility: inherit;" fill="rgb(0, 0, 0)" stroke="rgb(204, 204, 204)" stroke-width="1px"></line><line x1="236.3326354460283" y1="0" x2="236.3326354460283" y2="5" style="visibility: inherit;" fill="rgb(0, 0, 0)" stroke="rgb(204, 204, 204)" stroke-width="1px"></line><line x1="262.5918171622536" y1="0" x2="262.5918171622536" y2="5" style="visibility: inherit;" fill="rgb(0, 0, 0)" stroke="rgb(204, 204, 204)" stroke-width="1px"></line><line x1="288.850998878479" y1="0" x2="288.850998878479" y2="5" style="visibility: inherit;" fill="rgb(0, 0, 0)" stroke="rgb(204, 204, 204)" stroke-width="1px"></line></g><g transform="translate(0, 8)"><text style="text-anchor: middle; visibility: hidden; font-family: Roboto, sans-serif; font-size: 12px; font-weight: 200;" x="0" y="0" dx="0em" dy="0.95em" fill="rgb(33, 33, 33)" stroke="none" stroke-width="1px">-20k</text><text style="text-anchor: middle; visibility: inherit; font-family: Roboto, sans-serif; font-size: 12px; font-weight: 200;" x="26.259181716225363" y="0" dx="0em" dy="0.95em" fill="rgb(33, 33, 33)" stroke="none" stroke-width="1px">0</text><text style="text-anchor: middle; visibility: hidden; font-family: Roboto, sans-serif; font-size: 12px; font-weight: 200;" x="52.51836343245073" y="0" dx="0em" dy="0.95em" fill="rgb(33, 33, 33)" stroke="none" stroke-width="1px">20k</text><text style="text-anchor: middle; visibility: inherit; font-family: Roboto, sans-serif; font-size: 12px; font-weight: 200;" x="78.77754514867608" y="0" dx="0em" dy="0.95em" fill="rgb(33, 33, 33)" stroke="none" stroke-width="1px">40k</text><text style="text-anchor: middle; visibility: hidden; font-family: Roboto, sans-serif; font-size: 12px; font-weight: 200;" x="105.03672686490145" y="0" dx="0em" dy="0.95em" fill="rgb(33, 33, 33)" stroke="none" stroke-width="1px">60k</text><text style="text-anchor: middle; visibility: inherit; font-family: Roboto, sans-serif; font-size: 12px; font-weight: 200;" x="131.2959085811268" y="0" dx="0em" dy="0.95em" fill="rgb(33, 33, 33)" stroke="none" stroke-width="1px">80k</text><text style="text-anchor: middle; visibility: hidden; font-family: Roboto, sans-serif; font-size: 12px; font-weight: 200;" x="157.55509029735217" y="0" dx="0em" dy="0.95em" fill="rgb(33, 33, 33)" stroke="none" stroke-width="1px">100k</text><text style="text-anchor: middle; visibility: inherit; font-family: Roboto, sans-serif; font-size: 12px; font-weight: 200;" x="183.81427201357755" y="0" dx="0em" dy="0.95em" fill="rgb(33, 33, 33)" stroke="none" stroke-width="1px">120k</text><text style="text-anchor: middle; visibility: hidden; font-family: Roboto, sans-serif; font-size: 12px; font-weight: 200;" x="210.0734537298029" y="0" dx="0em" dy="0.95em" fill="rgb(33, 33, 33)" stroke="none" stroke-width="1px">140k</text><text style="text-anchor: middle; visibility: inherit; font-family: Roboto, sans-serif; font-size: 12px; font-weight: 200;" x="236.3326354460283" y="0" dx="0em" dy="0.95em" fill="rgb(33, 33, 33)" stroke="none" stroke-width="1px">160k</text><text style="text-anchor: middle; visibility: hidden; font-family: Roboto, sans-serif; font-size: 12px; font-weight: 200;" x="262.5918171622536" y="0" dx="0em" dy="0.95em" fill="rgb(33, 33, 33)" stroke="none" stroke-width="1px">180k</text><text style="text-anchor: middle; visibility: hidden; font-family: Roboto, sans-serif; font-size: 12px; font-weight: 200;" x="288.850998878479" y="0" dx="0em" dy="0.95em" fill="rgb(33, 33, 33)" stroke="none" stroke-width="1px">200k</text></g><line x1="0" y1="0" x2="288.850998878479" y2="0" fill="rgb(0, 0, 0)" stroke="rgb(204, 204, 204)" stroke-width="1px"></line></g></g></g></g></svg>